<svg xmlns="http://www.w3.org/2000/svg" viewBox="0 0 196.1 59.2"><path fill="#FFF" d="M.2 58v-9.7c4.5-3.7 8.5-7.3 12.2-10.7 3.7-3.4 6.5-6.3 8.5-8.5 2-2.3 3.5-4.4 4.7-6.5 1.1-2.1 1.7-4.2 1.7-6.5 0-1.8-.7-3.2-2-4.2s-3.2-1.6-5.5-1.6c-2.5 0-4.6.6-6.2 1.8-1.6 1.1-2.9 2.6-4 4.2L0 9.6c2.3-3.5 5.1-5.9 8.3-7.4C11.4.7 15.4 0 20.2 0 26 0 30.6 1.4 34 4.1c3.4 2.7 5.1 6.6 5.1 11.5 0 3.6-.7 6.8-2 9.6-1.3 2.7-3.2 5.4-5.7 8-2.4 2.6-5.5 5.4-9.1 8.6-3.7 3.1-5.9 5-6.7 5.6H41V58H.2zm93.4-28.4c0 10.2-1.8 17.7-5.4 22.5-3.6 4.8-9.2 7.2-16.8 7.2-7.6 0-13.2-2.4-16.7-7.2-3.6-4.8-5.4-12.2-5.4-22.4 0-10.1 1.8-17.6 5.4-22.4C58.3 2.4 63.8 0 71.4 0s13.2 2.4 16.8 7.2c3.6 4.8 5.4 12.2 5.4 22.4zm-11.9 0c0-6.8-.8-11.8-2.5-14.9-1.7-3.2-4.2-4.7-7.8-4.7-3.5 0-6.1 1.6-7.7 4.8-1.6 3.2-2.4 8.2-2.4 14.9 0 6.8.8 11.8 2.4 14.9 1.6 3.2 4.2 4.7 7.7 4.7s6.1-1.6 7.8-4.8c1.6-3.2 2.5-8.1 2.5-14.9zm58.2 19V58h-11.1v-9.4h-28.5V37.9L128 1.2h11.9v37.4h7v9.9l-7 .1zm-11.1-32.2l-17.2 22.3h17.2V16.4zm67.3 26.2c0 5.2-1.8 9.3-5.5 12.2-3.6 2.9-8.9 4.3-15.7 4.3-6.7 0-11.9-1.4-15.7-4.2-3.7-2.8-5.6-6.9-5.6-12.4 0-3.4.9-6.3 2.9-8.8 1.9-2.5 4.4-4.5 7.6-5.9-3.1-1.5-5.4-3.3-6.9-5.5-1.5-2.1-2.3-4.5-2.3-7 0-5 1.8-8.8 5.2-11.4 3.5-2.6 8.4-3.9 14.6-3.9 6.1 0 10.9 1.3 14.5 3.8 3.6 2.5 5.3 6.4 5.3 11.5 0 1.7-.4 3.3-1.2 4.7-.8 1.5-1.9 2.8-3.1 3.9-1.3 1.2-3.2 2.5-5.9 3.9 3.1 1.5 5.5 3 7 4.3 1.5 1.3 2.6 2.9 3.4 4.6s1.4 3.7 1.4 5.9zm-12.7-27.1c0-1.8-.7-3.3-2-4.6-1.3-1.2-3.5-1.8-6.5-1.8-3.3 0-5.5.6-6.7 1.8-1.2 1.2-1.8 2.7-1.8 4.3 0 1.2.3 2.3.8 3.1.5.8 1.5 1.7 2.7 2.7 1.3.9 2.9 1.8 5 2.6 3.2-1.4 5.4-2.8 6.6-4.1 1.3-1.3 1.9-2.6 1.9-4zm1.1 27.1c0-2.3-.8-4.3-2.4-5.9-1.6-1.6-4-3.1-7.2-4.6-3.5 1.5-5.9 3.1-7.4 4.6-1.5 1.6-2.2 3.5-2.2 5.9 0 2.1.8 3.9 2.3 5.2 1.5 1.4 4 2.1 7.3 2.1 3.4 0 5.8-.7 7.3-2.1 1.5-1.4 2.3-3.1 2.3-5.2z"/></svg>
