<svg xmlns="http://www.w3.org/2000/svg" viewBox="0 0 114 114"><circle fill="none" stroke="#444" stroke-width="8" cx="57" cy="57" r="53"/><path fill="#444" d="M84.1 32.3c-.8-3.9-3.4-5.4-7.3-7-3.8-1.4-13-3.2-19.8-3.3-6.8.1-16 1.9-19.8 3.4-3.9 1.5-6.5 3.1-7.3 7L27 53.7V83h5v4.8c0 5.7 9 5.5 9 0V83h32v4.8c0 5.6 9 5.7 9 0V83h5V53.7l-2.9-21.4zM44.9 28h24.7c2.4 0 2.4 4 0 4H44.9c-2.4 0-2.4-4 0-4zm-8.6 46.2c-2.3 0-4.1-1.9-4.1-4.1 0-2.3 1.9-4.1 4.1-4.1 2.3 0 4.2 1.8 4.2 4.1 0 2.2-1.9 4.1-4.2 4.1zM56.7 57h-22c-2.2 0-2.6-1.5-2.4-3l2.3-15.8c.3-1.9 1-3.2 3.6-3.2H76c2.6 0 3.2 1.3 3.6 3.2L81.7 54c.2 1.5-.3 3-2.4 3H56.7zm20.9 17.2c-2.3 0-4.1-1.9-4.1-4.1 0-2.3 1.9-4.1 4.1-4.1 2.3 0 4.2 1.8 4.2 4.1 0 2.2-1.9 4.1-4.2 4.1z"/></svg>
