<svg xmlns="http://www.w3.org/2000/svg" viewBox="0 0 1155.5 821.79"><path d="M1155.5 548.21v273.58H305.69L0 523.55V0h279.58L398 118.42h314.32z" opacity=".08"/><path d="M279.26 0H0v523.55h374.6z" fill="#fff"/><path d="M279.26 0l58.2 118.31L433 642l-58.4-118.45z" fill="#d8d8d8"/><path d="M433 642h279.32V118.42H337.46z" fill="#fff"/><path d="M288 52.53L347 171l76.4 417.6L365 470.13z" fill="#ccc"/><path d="M288.85 52.53H114a66.78 66.78 0 0 1-66.78 66.78v284.93A66.78 66.78 0 0 1 114 471h251zM665.13 522.66V237.74A66.78 66.78 0 0 1 598.35 171H347l76.4 418.49h174.9a66.78 66.78 0 0 1 66.78-66.78" fill="#f2f2f2"/><path d="M433 642L.36 523.55H374.6z" opacity=".12"/><path d="M208.15 354.21v23.48a4.24 4.24 0 0 1-4.29 4.29h-18.12a4.32 4.32 0 0 1-4.29-4.29v-23.48c-31.39-4.43-48.56-23.21-49.23-24a4.45 4.45 0 0 1-.27-5.5l13.82-18.11a4.38 4.38 0 0 1 3.09-1.61 3.65 3.65 0 0 1 3.22 1.21c.27.13 19 18.11 42.79 18.11 13.15 0 27.37-7 27.37-22.13 0-12.88-15.83-19.18-33.94-26.43-24.15-9.52-54.2-21.6-54.2-55.27 0-24.68 19.32-45.08 47.36-50.44v-24.17a4.32 4.32 0 0 1 4.29-4.29h18.11a4.24 4.24 0 0 1 4.29 4.29v23.61c27.23 3.09 41.72 17.84 42.26 18.38a4.29 4.29 0 0 1 .67 5.1l-10.87 19.59a4 4 0 0 1-3.09 2.15 4.43 4.43 0 0 1-3.62-.94c-.13-.13-16.37-14.49-36.49-14.49-17 0-28.84 8.45-28.84 20.66 0 14.22 16.37 20.53 35.42 27.9 24.68 9.52 52.59 20.39 52.59 52.72 0 27.37-19.59 49-48 53.66" fill="#3d82f7"/><path d="M592.31 450.76a4.24 4.24 0 0 1-4.29 4.29H459.77a4.24 4.24 0 0 1-4.29-4.29v-20.12a4.32 4.32 0 0 1 4.29-4.29h13V375H460a4.24 4.24 0 0 1-4.29-4.29V353.1a4.24 4.24 0 0 1 4.29-4.29h12.74v-29.92c0-30.59 24.68-52.72 58.76-52.72a70 70 0 0 1 44.94 16.77 4.32 4.32 0 0 1 .4 5.77l-13.82 17a4.36 4.36 0 0 1-3 1.61 4.25 4.25 0 0 1-3.09-.94c-.13-.13-11.67-9.26-25.22-9.26-15.16 0-25.35 9.12-25.35 22.81v28.84h40.92a4.24 4.24 0 0 1 4.29 4.29v17.57a4.24 4.24 0 0 1-4.29 4.29h-40.83v50.84H562v-24.23a4.24 4.24 0 0 1 4.29-4.29H588a4.24 4.24 0 0 1 4.29 4.29v49.23z" fill="#b3b3b3"/></svg>