<svg xmlns="http://www.w3.org/2000/svg" width="157.8" height="184" viewBox="-0.001 0 157.849 184.029"><linearGradient id="a" gradientUnits="userSpaceOnUse" x1="-967" y1="1120.2" x2="-967" y2="1304.2" gradientTransform="matrix(1 0 0 -1 1045.93 1304.203)"><stop offset="0" stop-color="#772E7E"/><stop offset=".5" stop-color="#9C27A9"/></linearGradient><path d="M156.6 65c-2.8-15.3-9.4-28.6-20-40-4.4-4.8-9.4-9-15-12.5C111.7 6 100.4 2 88.3.5c-1.5-.2-3-.2-4.4-.5H73.3c0 .3-.3.2-.5.2-2.7.2-5.4.5-8 1C45.4 5 29.5 14.4 17 29.8 7 42.4 1.5 56.8.3 73c-.6 8 0 15.7 1.7 23.4C3 102 5 107.6 7.6 113l.6 1.2c4.3 8.3 9.7 15.7 16.5 22 3.5 3.4 7.3 6.5 11.5 9 12.6 8 26.5 12.3 41.5 12.5 1 0 1.2.3 1 1.2v24c0 .3 0 .6.2 1 .2 0 .4 0 .5-.2 15-7 29-16 41.4-27.3l7-7c1-1 2-2 2.8-3.2l4.3-5c1.7-2 3.2-4 4.6-6.2 3.2-4.5 6-9.3 8.4-14.3 1.3-2.6 2.4-5.2 3.4-7.8v-.3c3-7.2 4.7-14.7 5.7-22.4.4-2.7.6-5.4.8-8 .2-6 0-11.7-1.2-17.4zM55 113.2c-1.4.4-2.8.6-4 .8-1.2.2-2-.4-2.3-1.3v-9c0-.8-.3-1.7.4-2.5.4-.4.8-.7 1.4-.8 1.5-.4 3-.7 4.5-1.5 2.5-1.7 4-4 5-7 0-.3 0-.8.2-1.3H41.4c-.5 0-1 0-1.6-.2-1.6-.4-2.8-2-2.8-3.5V58.6c0-1.5 0-3 1.3-4 .7-.6 1.4-1 2.3-1h27.7c2.4 0 4.4 2.5 3.6 5v32.3c0 6.7-2.7 12.5-7.7 17l-.7 1c-2.6 2-5.4 3.4-8.6 4.3zm51-.7h-.4c0 .2-.2.2-.2.3-1.8.4-3.6.8-5.5 1-1.5.2-2.5-.5-2.5-2v-3-5.2-1.2c0-1.4.5-2 2.2-2.3 2-.5 4-1.2 5.8-2.8 2-1.8 3-4 3.5-6.8H89.6c-2.2 0-3.8-1.7-3.8-4v-28-.4c-.2-1.7.3-3 1.8-4 .6-.5 1.3-.7 2-.7H117c2.5 0 4.5 2.5 3.7 5 .2.3.2.8.2 1.3v31c-.2 9-6 17.8-14.5 21.3l-.6.3c0 .2.2.3.4.3-.2 0-.3-.2-.5-.4z" fill="url(#a)"/><path d="M105.4 113c-1.8.4-3.6.8-5.5 1-1.5.2-2.5-.5-2.5-2v-3-5.2c.5-1.2 1.6-1.4 2.7-1.7 5-1 8-4.3 8.8-9.3 0-.6.4-1.3 0-2H89.6c-2.2 0-3.8-1.7-3.8-4v-28-.4c.2 0 .2-.3.3-.5 1-1.4 2-2.2 3.7-2.2H117c1.8 0 3.2 1 3.7 3 .2.3.2.8.2 1.3v31c-.2 9-6 17.8-14.5 21.3l-.6.3h-.5v.3zM63.6 109c-2.6 2-5.4 3.4-8.6 4.3-1.4.4-2.8.6-4 .8-1.2.2-2-.4-2.3-1.3v-9c.5-1 1.5-1.3 2.6-1.5 5-1.2 8-4.2 8.8-9.3.3-.8.6-1.5.2-2.3H41.4c-.5 0-1 0-1.6-.2-1.6-.4-2.8-2-2.8-3.5V58.6c.7-1.8 1.8-3 3.8-3h27.5c1.7 0 3 1.2 3.6 3v32.3c0 6.7-2.7 12.5-7.7 17l-.7 1z" fill="#FFF"/><path d="M72 58.5c-.6-1.7-2-3-3.7-3H40.8c-2 0-3 1.3-3.8 3 0-1.4 0-2.8 1.3-4 .7-.5 1.4-1 2.3-1h27.7c2.4 0 4.4 2.6 3.6 5zM120.7 58.5c-.5-1.8-2-3-3.7-3H89.7c-1.6 0-2.8 1-3.5 2.3l-.4.5c-.2-1.7.3-3 1.8-4 .6-.5 1.3-.7 2-.7H117c2.5 0 4.5 2.5 3.7 5zM109 90.7c.4.7 0 1.4 0 2-.8 5-3.8 8.3-8.8 9.4-1 .4-2.2.6-2.7 1.8v-1.2c0-1.4.5-2 2.2-2.3 2-.5 4-1.2 5.8-2.8 2-1.8 3-4 3.5-6.8zM60.2 90.7c.4.8 0 1.5 0 2.2-1 5-3.8 8-9 9.2-1 .2-2 .4-2.5 1.6 0-1-.3-1.8.4-2.6.4-.4.8-.7 1.4-.8 1.5-.4 3-.7 4.5-1.5 2.5-1.7 4-4 5-7 0-.3 0-.8.2-1.3z" fill="#6FA14D"/><path d="M105.4 113c0-.2 0-.2.2-.3 0 0-.2 0-.2.2z" fill="#77AB50"/></svg>