<svg xmlns="http://www.w3.org/2000/svg" viewBox="0 0 101 83"><defs><filter id="a" x="-50" y="-50" width="200" height="200"><feOffset result="shadowOffsetOuter1" dx="-1" dy="1" in="SourceAlpha"/><feGaussianBlur result="shadowBlurOuter1" stdDeviation="2.5" in="shadowOffsetOuter1"/><feColorMatrix values="0 0 0 0 0 0 0 0 0 0 0 0 0 0 0 0 0 0 0.2 0" in="shadowBlurOuter1"/></filter><filter id="b" x="-50" y="-50" width="200" height="200"><feOffset result="shadowOffsetOuter1" dx="-1" dy="1" in="SourceAlpha"/><feGaussianBlur result="shadowBlurOuter1" stdDeviation="2.5" in="shadowOffsetOuter1"/><feColorMatrix values="0 0 0 0 0 0 0 0 0 0 0 0 0 0 0 0 0 0 0.5 0" in="shadowBlurOuter1"/></filter><filter id="c" x="-50" y="-50" width="200" height="200"><feOffset result="shadowOffsetOuter1" dx="-1" dy="1" in="SourceAlpha"/><feGaussianBlur result="shadowBlurOuter1" stdDeviation="2.5" in="shadowOffsetOuter1"/><feColorMatrix values="0 0 0 0 0 0 0 0 0 0 0 0 0 0 0 0 0 0 0.5 0" in="shadowBlurOuter1"/></filter></defs><title>export</title><ellipse cx="40.38" cy="42.97" rx="34.11" ry="34.19" transform="rotate(-70 40.376 42.979)" filter="url(#a)"/><ellipse cx="40.38" cy="42.97" rx="34.11" ry="34.19" transform="rotate(-70 40.376 42.979)" fill="#ff3a39"/><ellipse cx="49.66" cy="40.03" rx="34.11" ry="34.19" transform="rotate(-70 49.657 40.028)" filter="url(#b)"/><ellipse cx="49.66" cy="40.03" rx="34.11" ry="34.19" transform="rotate(-70 49.657 40.028)" fill="#ff3a39"/><ellipse cx="60.62" cy="40.66" rx="34.11" ry="34.19" transform="rotate(-70 60.622 40.66)" filter="url(#c)"/><ellipse cx="60.62" cy="40.66" rx="34.11" ry="34.19" transform="rotate(-70 60.622 40.66)" fill="#ff3a39"/><path d="M68.79 48.18a5.13 5.13 0 0 0-2.41-3.36 14.25 14.25 0 0 0-5.85-1.53q-5.47-.38-8.38-2.35a9.21 9.21 0 0 1-3.81-5.83 9.46 9.46 0 0 1 .8-7 10 10 0 0 1 5.6-4.45l-1.21-5.25 3.57-.82 1.22 5.28a9.48 9.48 0 0 1 7.05 1.93q2.89 2.31 4 7.23l-4.41 1a8.58 8.58 0 0 0-2.85-5 5.42 5.42 0 0 0-4.8-1 6.15 6.15 0 0 0-4 2.48 5.65 5.65 0 0 0-.55 4.49 5.15 5.15 0 0 0 2.5 3.54A15.09 15.09 0 0 0 61.12 39a22.72 22.72 0 0 1 6.31 1.3 9.44 9.44 0 0 1 3.79 2.63 9.85 9.85 0 0 1 2 4.21 9.13 9.13 0 0 1-.93 7.08 11.08 11.08 0 0 1-6.15 4.5l1.06 4.58-3.55.82-1.06-4.58A10.6 10.6 0 0 1 54.87 58a11 11 0 0 1-4.27-7l4.4-1a7.24 7.24 0 0 0 3 4.72 6.78 6.78 0 0 0 5.38.65 7.64 7.64 0 0 0 4.59-2.65 5.24 5.24 0 0 0 .82-4.54z" fill="#fff" style="isolation:isolate"/></svg>