<svg xmlns="http://www.w3.org/2000/svg" width="186.061" height="102.68" viewBox="253.02 38.27 186.061 102.68" enable-background="new 253.02 38.27 186.061 102.68"><path fill="#040203" d="M253.02 137.641c2.701-.301 9.76-1.051 11.711-1.801 3.609-1.359 4.66-4.06 4.66-7.37v-76.67c0-3.31-.9-5.86-4.66-7.37-2.851-1.2-9.01-2.55-11.711-2.85v-3.31h86.38v25.7h-3.9c-1.95-6.76-9.77-19.84-16.98-20.74-3.6-.45-7.51-.6-12.319-.6h-16.83v43.45h11.42c7.81 0 11.27-2.56 13.229-4.52 2.7-2.55 4.65-9.17 5.25-14.13h4.061v42.7h-4.061c-.449-4.51-2.85-12.78-5.25-15.19-1.96-2.1-5.869-4.35-13.229-4.35h-11.42v37.28c0 3.31 1.21 5.86 4.51 7.37 1.81.75 8.561 2.1 11.271 2.4v3.31h-52.132v-3.309z"/><path d="M365.31 137.641c2.71-.15 10.221-1.201 12.171-1.951 3.609-1.359 4.659-4.209 4.659-7.52v-85.54h-5.26c-3.46 0-8.11.15-11.57.6-6.46.9-14.149 14.12-15.949 20.74h-4.181v-25.7h93.9v25.7h-4.15c-1.8-6.62-9.52-19.84-15.979-20.74-3.46-.45-7.66-.6-11.57-.6h-5.26v84.79c0 3.3 1.2 6.01 4.66 7.51 1.8.76 9.47 2.41 12.17 2.711v3.31h-53.641v-3.31z"/></svg>