<svg xmlns:svg="http://www.w3.org/2000/svg" xmlns="http://www.w3.org/2000/svg" width="1024" height="1024" version="1.1"><style>.s0{fill:#ec4d68;}.s1{fill:#464040;}.s2{-inkscape-font-specification:Keifont;fill-opacity:0.2;fill:#000;font-family:Keifont;font-size:350;line-height:125;text-align:center;text-anchor:middle;writing-mode:lr-tb;}.s3{-inkscape-font-specification:Keifont;fill:#fef9fd;font-family:Keifont;font-size:350;line-height:125;text-align:center;text-anchor:middle;writing-mode:lr-tb;}</style><defs><linearGradient><stop offset="0" style="stop-color:#ffffff;stop-opacity:1"/><stop offset="1" style="stop-color:#fff9f9;stop-opacity:0.7"/></linearGradient><linearGradient><stop offset="0" style="stop-color:#0eb0fb;stop-opacity:1"/><stop offset="1" style="stop-color:#ff00f3;stop-opacity:1"/></linearGradient><linearGradient><stop offset="0" style="stop-color:#056aff;stop-opacity:1"/><stop offset="1" style="stop-color:#ffffff;stop-opacity:0"/></linearGradient><linearGradient x1="509.1" y1="513.9" x2="467.2" y2="1029.1" gradientUnits="userSpaceOnUse" gradientTransform="matrix(1.2524295,0,0,1.2524296,-146.91309,-129.30104)"/><mask maskUnits="userSpaceOnUse"><rect transform="translate(-11,4)" clip-path="url(#clipPath4581)" width="1024" height="1024" x="0" y="0" fill="#ec4d68"/></mask><clipPath clipPathUnits="userSpaceOnUse"><rect y="0" x="0" height="1024" width="1024" fill="#464040"/></clipPath></defs><path d="M813.9 913.1C584.1 955 584.9 956.7 584.9 956.7L673.6 879.6z" fill="#ec4d68"/><path d="M816.1 912.8 615.9 742.7 205.8 831.9zM926.6 206.6 556.1 56.7 602.7 213.2z" fill="#464040"/><path d="m30.9 211.3 897.1-4.8 2.9 557.3-724.2 68.3z" fill="#ec4d68"/><g transform="matrix(0.99804688,0,0,0.99804689,0.99804688,2.0068843)"><g transform="matrix(0.99358344,-0.11310149,0.11310149,0.99358344,-13.037329,22.570573)" style="-inkscape-font-specification:Arial;fill-opacity:0.2;fill:#000;font-family:Arial;font-size:16;letter-spacing:0;line-height:125;word-spacing:0"><path d="m146.3 536.1c23.2-10 47.5-17.9 72.8-23.6l19.5-69.7 67.7 10.3-16.4 53c6.4 0 12.8 0.3 19.1 1 14.4 1.4 27.3 6.4 39 15 11.8 8.7 20.6 19.6 26.3 32.8 5.7 13.2 8.9 27 9.6 41.4 0.9 14.1-0.2 28-3.4 41.7-7.1 28.3-18.8 54.1-35.2 77.6l-67-8.9c10.7-18.7 20.4-38.1 29.1-58.1 3.6-10.9 6.2-22.2 7.5-33.8 1.4-11.6 0.1-23-3.8-34.2-3.9-11.4-12.2-18.6-25-21.5-3.6-0.7-7.6-1-12-1L225.9 715.5 164.4 706.7 201.7 574c-13.7 4.8-27 10-40 15.7L146.3 536.1m340.1-19.1-48.5 48.5c-18.5-26.2-38.1-51.4-58.8-75.5-20.1-23-39.9-46.3-59.5-69.7l44.8-41.7c18 18 35.5 36.3 52.6 55 23.7 27.3 46.8 55.1 69.4 83.4M500.7 444.2l73.5-1.4 16.1-56.4 57.1 4.8-13.7 50.2 45.1-0.7-6.2 59.1-54 0.7-36.6 157.9-59.5-5.8 35.9-150-55.4-0.7-2.4-57.8m264.2-32.5 50.2 26.3-48.9 68.4-46.1-23.2 44.8-71.4 -71.4 96.7 52 1.4c1.4 21.6 2.7 43.3 4.1 64.9 27.8 4.6 55.4 10.9 82.7 19.1l-21.2 54.3c-20.1-7.5-40.3-14.5-60.8-20.8 0 13.9-0.7 26-2.1 36.2-2.5 15.3-9.5 27.8-20.8 37.6-11.2 9.8-24.3 15-39.3 15.7-10.7 0.9-21.3-0.1-31.8-3.1-10.3-2.7-19.4-7.7-27.3-15-8-7.3-13.7-16.1-17.1-26.3-3.4-10.3-5.1-20.6-5.1-31.1 0.5-15 5.7-27.8 15.7-38.3 10.3-10.5 22.1-18.1 35.5-22.9 13.4-5 27.3-7.9 41.7-8.5-1.8-21-3.9-42-6.2-63.2m7.2 142.9c0.9-11.2 1.3-22.4 1-33.8-5 0.2-9.8 0.5-14.4 0.7-4.6 0.2-9.1 1.3-13.7 3.1-4.6 1.6-8.1 4.4-10.6 8.5-2.3 4.1-3.3 8.4-3.1 13-1.4 7.1-0.1 13.7 3.8 19.8 3.9 6.2 9.6 8.9 17.1 8.2 3.4-0.5 6.7-1.3 9.9-2.4 3.4-1.4 5.8-3.6 7.2-6.8 1.4-3.4 2.3-6.8 2.7-10.3" class="s2"/></g><g transform="matrix(0.99358344,-0.11310149,0.11310149,0.99358344,-28.037329,7.570573)" style="-inkscape-font-specification:Arial;fill:#fef9fd;font-family:Arial;font-size:16;letter-spacing:0;line-height:125;word-spacing:0"><path d="m146.3 536.1c23.2-10 47.5-17.9 72.8-23.6l19.5-69.7 67.7 10.3-16.4 53c6.4 0 12.8 0.3 19.1 1 14.4 1.4 27.3 6.4 39 15 11.8 8.7 20.6 19.6 26.3 32.8 5.7 13.2 8.9 27 9.6 41.4 0.9 14.1-0.2 28-3.4 41.7-7.1 28.3-18.8 54.1-35.2 77.6l-67-8.9c10.7-18.7 20.4-38.1 29.1-58.1 3.6-10.9 6.2-22.2 7.5-33.8 1.4-11.6 0.1-23-3.8-34.2-3.9-11.4-12.2-18.6-25-21.5-3.6-0.7-7.6-1-12-1L225.9 715.5 164.4 706.7 201.7 574c-13.7 4.8-27 10-40 15.7L146.3 536.1m340.1-19.1-48.5 48.5c-18.5-26.2-38.1-51.4-58.8-75.5-20.1-23-39.9-46.3-59.5-69.7l44.8-41.7c18 18 35.5 36.3 52.6 55 23.7 27.3 46.8 55.1 69.4 83.4M500.7 444.2l73.5-1.4 16.1-56.4 57.1 4.8-13.7 50.2 45.1-0.7-6.2 59.1-54 0.7-36.6 157.9-59.5-5.8 35.9-150-55.4-0.7-2.4-57.8m264.2-32.5 50.2 26.3-48.9 68.4-46.1-23.2 44.8-71.4 -71.4 96.7 52 1.4c1.4 21.6 2.7 43.3 4.1 64.9 27.8 4.6 55.4 10.9 82.7 19.1l-21.2 54.3c-20.1-7.5-40.3-14.5-60.8-20.8 0 13.9-0.7 26-2.1 36.2-2.5 15.3-9.5 27.8-20.8 37.6-11.2 9.8-24.3 15-39.3 15.7-10.7 0.9-21.3-0.1-31.8-3.1-10.3-2.7-19.4-7.7-27.3-15-8-7.3-13.7-16.1-17.1-26.3-3.4-10.3-5.1-20.6-5.1-31.1 0.5-15 5.7-27.8 15.7-38.3 10.3-10.5 22.1-18.1 35.5-22.9 13.4-5 27.3-7.9 41.7-8.5-1.8-21-3.9-42-6.2-63.2m7.2 142.9c0.9-11.2 1.3-22.4 1-33.8-5 0.2-9.8 0.5-14.4 0.7-4.6 0.2-9.1 1.3-13.7 3.1-4.6 1.6-8.1 4.4-10.6 8.5-2.3 4.1-3.3 8.4-3.1 13-1.4 7.1-0.1 13.7 3.8 19.8 3.9 6.2 9.6 8.9 17.1 8.2 3.4-0.5 6.7-1.3 9.9-2.4 3.4-1.4 5.8-3.6 7.2-6.8 1.4-3.4 2.3-6.8 2.7-10.3" class="s3"/></g></g></svg>
