<svg xmlns="http://www.w3.org/2000/svg" viewBox="0 0 252.91 252.91"><title>tuner</title><circle cx="126.46" cy="126.46" r="126.46" fill="#ff9800"/><circle cx="126.46" cy="126.46" r="80.74" fill="#fff"/><path d="M74.2 44.45L68.1 34l3.66-2.14a5.56 5.56 0 0 1 3.31-1 2.88 2.88 0 0 1 2.23 1.56 2.73 2.73 0 0 1 .4 1.58 2.64 2.64 0 0 1-.6 1.5 2.56 2.56 0 0 1 1.74.07 2.78 2.78 0 0 1 1.33 1.22 3.19 3.19 0 0 1 .37 2.84 5 5 0 0 1-2.28 2.39zm-1.39-7.32l1.59-.93q1.61-1 .87-2.25a1.39 1.39 0 0 0-1-.78 2.51 2.51 0 0 0-1.48.45l-1.5.88zm.89 1.52l1.65 2.82 1.84-1.08a2.06 2.06 0 0 0 1-1.05 1.44 1.44 0 0 0-.19-1.25 1.52 1.52 0 0 0-2.33-.59zM40.11 81.74l-10.51-6 2.09-3.68a5.55 5.55 0 0 1 2.38-2.49 2.88 2.88 0 0 1 2.71.23 2.73 2.73 0 0 1 1.13 1.2 2.64 2.64 0 0 1 .24 1.59 2.56 2.56 0 0 1 1.54-.81 2.77 2.77 0 0 1 1.77.39 3.19 3.19 0 0 1 1.75 2.27 5 5 0 0 1-.77 3.21zm-4.88-5.63l.91-1.6q.9-1.65-.37-2.38A1.39 1.39 0 0 0 34.5 72a2.51 2.51 0 0 0-1.06 1.13l-.86 1.52zm1.53.89l2.84 1.61 1.05-1.86a2 2 0 0 0 .31-1.4 1.44 1.44 0 0 0-.76-1 1.52 1.52 0 0 0-2.31.66zM26.78 124.1v4.37l2.5.81v2.65l-12.12-4.41v-2.31l12.05-4.61v2.65zm-2 3.71v-3l-4.51 1.55zM38.78 172.13a4.32 4.32 0 0 1 2 1 7.93 7.93 0 0 1 1.78 2.11 5.39 5.39 0 0 1 .82 2.71 4.56 4.56 0 0 1-.77 2.59 7 7 0 0 1-2.29 2.14l-.71.42a7.42 7.42 0 0 1-3 1.08 4.52 4.52 0 0 1-2.61-.48 5.79 5.79 0 0 1-2.83-5.36 4.38 4.38 0 0 1 1.83-2.76l1.24 2.08a2.4 2.4 0 0 0-.93 1.41 2.34 2.34 0 0 0 .39 1.59 2.21 2.21 0 0 0 1.81 1.17 5 5 0 0 0 2.78-.88l.66-.4a4.77 4.77 0 0 0 2.09-2.09 2.47 2.47 0 0 0-.25-2.31 2.76 2.76 0 0 0-1.54-1.41l-1.79 1.07 1.16 1.94-1.57.94-2.44-4.08zM74.32 210.46a4.32 4.32 0 0 1 2.27-.19 7.94 7.94 0 0 1 2.61.91 5.41 5.41 0 0 1 2.09 1.91 4.57 4.57 0 0 1 .66 2.62 7 7 0 0 1-.88 3l-.39.72a7.43 7.43 0 0 1-2 2.46 4.51 4.51 0 0 1-2.51.94 5.79 5.79 0 0 1-5.17-3.16 4.38 4.38 0 0 1 .16-3.31l2.13 1.15a2.41 2.41 0 0 0-.08 1.69 2.35 2.35 0 0 0 1.15 1.17 2.21 2.21 0 0 0 2.16.08 5 5 0 0 0 1.94-2.18l.37-.68a4.78 4.78 0 0 0 .73-2.87 2.47 2.47 0 0 0-1.4-1.86 2.77 2.77 0 0 0-2-.43l-1 1.83 2 1.08-.95 1.66-4.21-2.3zM124.62 228.61l4.78-.08-.08-4.94h2.49l.2 12.08-7.87.13v-2l5.38-.09-.05-3.12-4.78.08zM176.09 215.76l4.1-2.47-2.55-4.23 2.13-1.28 6.23 10.35-6.74 4.06-1-1.73 4.61-2.77-1.65-2.69-4.1 2.46zM213.47 180.6l2.39-4.14-2.86-1.63-2.8 4.86-1.73-1 4-7 10.47 6-4 7-1.75-1 2.79-4.85-2.5-1.44-2.38 4.14zM228.86 130.58v-4.78h-3.25v5.61h-2v-8.1l12.09.07v8.08h-2v-5.59h-2.88v4.78h-1.93zM208.39 74.08L218.81 68l1.88 3.21a5.66 5.66 0 0 1 .82 2.82 5 5 0 0 1-.77 2.73 6.3 6.3 0 0 1-2.24 2.13l-.48.28a6.33 6.33 0 0 1-2.94.92 5 5 0 0 1-2.74-.66 5.69 5.69 0 0 1-2.07-2.09zm9.95-2.94l-7 4.08.61 1a2.7 2.7 0 0 0 2 1.44 4.32 4.32 0 0 0 2.76-.7l.55-.32a4.38 4.38 0 0 0 2-2.07 2.7 2.7 0 0 0-.26-2.37zM182.43 42a4.28 4.28 0 0 1-2.79 1.93 5.06 5.06 0 0 1-3.52-.76 4.55 4.55 0 0 1-2.37-3.19 6.42 6.42 0 0 1 1-4.38l.37-.64a7.26 7.26 0 0 1 2.08-2.34 4.6 4.6 0 0 1 2.54-.87 5.48 5.48 0 0 1 5 3.39 4.59 4.59 0 0 1-.31 3.46l-2.15-1.26a2.52 2.52 0 0 0 .29-1.79 2.41 2.41 0 0 0-1.21-1.32 2.11 2.11 0 0 0-2.06-.17 5 5 0 0 0-1.94 2.07l-.46.79a5.36 5.36 0 0 0-.93 2.77 2.08 2.08 0 0 0 1.16 1.73 2.46 2.46 0 0 0 1.75.41 2.38 2.38 0 0 0 1.38-1.08zM132.19 25.26a4.27 4.27 0 0 1-1.44 3.07 5.06 5.06 0 0 1-3.42 1.12 4.55 4.55 0 0 1-3.66-1.56 6.42 6.42 0 0 1-1.33-4.3v-.73a7.24 7.24 0 0 1 .61-3.07 4.6 4.6 0 0 1 1.76-2 5.48 5.48 0 0 1 6 .41 4.6 4.6 0 0 1 1.48 3.15h-2.49a2.52 2.52 0 0 0-.65-1.7 2.41 2.41 0 0 0-1.71-.53 2.12 2.12 0 0 0-1.86.89 5 5 0 0 0-.63 2.77v.91a5.35 5.35 0 0 0 .59 2.86 2.08 2.08 0 0 0 1.87.9 2.46 2.46 0 0 0 1.69-.55 2.38 2.38 0 0 0 .65-1.63h2.49z" fill="#fff"/><path d="M204.4 147.53a80.79 80.79 0 0 0 .46-40.34c-.08-.32-.14-.65-.23-1a80.87 80.87 0 0 0-56.2-57.45l-.78-.22a80.94 80.94 0 0 0-41.08-.36l-1 .26a80.65 80.65 0 0 0-36.4 21.08c-.24.24-.46.48-.69.72a80.6 80.6 0 0 0-20.21 35.86c-.08.32-.15.65-.23 1a80.74 80.74 0 0 0 .59 41l.13.45A80.66 80.66 0 0 0 70 184.12l.72.69a80.59 80.59 0 0 0 35.38 19.79l1 .24a80.74 80.74 0 0 0 76.24-21l.7-.71a80.63 80.63 0 0 0 20.34-35.27l.09-.31z" fill="none"/><path d="M217 38.18l-32.31 32.38-.69-.72 32.3-32.37M158.77 248.74L147 204.54l1-.27 11.73 44.21" fill="#ff9800"/><path d="M148.44 48.77l-.78-.22zM148.44 48.77l.18.05 11.79-44.2-1-.26-11.75 44.19zM106.06 204.59l1 .24-1-.24zM107 204.83l-1-.24-11.71 44.19 1 .25 11.71-44.2zM70 184.12l.72.69zM70 184.12l-32.3 32.37.72.7 32.31-32.38zM184.69 70.56L217 38.18l-.7-.72L184 69.84zM204.87 107.19c-.08-.32-.14-.65-.23-1 .08.35.15.68.23 1z" fill="#e48822"/><path d="M204.87 107.19L249 95.33l-.25-1-44.16 11.85c.13.36.2.69.28 1.01zM48.67 148.08l.13.45-.13-.45zM48.8 148.53l-.13-.45-44.18 11.86c.09.32.17.65.26 1L48.94 149zM48.07 107.08c.08-.32.15-.65.23-1-.08.35-.15.68-.23 1z" fill="#e48822"/><path d="M48.07 107.08c.08-.32.15-.65.23-1L4.11 94.38l-.25 1 44.21 11.73zM204.4 147.53l-.09.31.09-.31zM204.31 147.84l-.19.66 44.22 11.73.26-1-44.2-11.7zM184 183.1l-.7.71zM184 183.1l-.7.71L215.77 216l.7-.71L184 183.1zM69.21 69.53c-.24.24-.46.48-.69.72.23-.25.48-.49.69-.72z" fill="#e48822"/><path d="M69.21 69.53L36.72 37.37l-.7.72 32.5 32.17c.23-.26.48-.5.69-.73zM106.58 48.19l-1 .26zM106.58 48.19L94.85 4l-1 .26 11.73 44.2zM147 204.54l11.73 44.2 1-.26L148 204.27z" fill="#e48822"/><path d="M239.78 169.76L183.3 141a58.71 58.71 0 1 0-5.47 13.78l60.75 18.31s2.23.68 2.79-1c.48-1.37-1.59-2.33-1.59-2.33z" fill="#b0bec5"/></svg>