<svg xmlns="http://www.w3.org/2000/svg" viewBox="0 0 1158.42 1024"><title>Progressive Web Apps</title><path fill="#383838" d="M46.18 0h1024v1024h-1024z"/><path fill="#54c0f4" d="M46.18 1024h1024V549h-211l-226 100-86-100-172 104-38-64-2-110-289 90v455z"/><path d="M1148.42 540.79a14.94 14.94 0 0 1-2.78-1.95c-1.11-.92-2-1.75-2.78-2.5a61.25 61.25 0 0 0-6.95-5.83q-4.17-3-13.06-3.61a36 36 0 0 1-3.89-3.33 21.94 21.94 0 0 1-2.78-3.33l-2.22-6.67-7.22.56a48.29 48.29 0 0 0-15.56 3.33c-.75-.36-3-.56-6.67-.56a170.56 170.56 0 0 1-8.89-28.06q-3.33-14.72-6.11-30.84-2.23-11.11-4.72-22.51T1059.5 413a243.5 243.5 0 0 0-2.22-25.29q-1.67-11.38-3.89-23.06-1.12-5-1.94-10t-1.95-11.12l-2.78-5q-6.12-6.11-17.23-9.73t-22.79-6.39q-6.67-2.21-12.78-3.89a37.47 37.47 0 0 1-8.89-3.33l-8.85-5.58-6.67 9.45a313.3 313.3 0 0 1-28.62 38.07 97.51 97.51 0 0 1-32.51 24.17l-10-1.67a20.55 20.55 0 0 0-6.39.83 36 36 0 0 0-4.72 1.95l-6.11-.56-3.98 5.56a129.87 129.87 0 0 0-8.44 11.17 167.09 167.09 0 0 0-6-27 95.63 95.63 0 0 0-12.78-26.12 118.54 118.54 0 0 0-18.78-20.85 209 209 0 0 0-25.84-18.89 170 170 0 0 0-13.62 22q-7 13.06-14.17 28.9t-14.17 33.34q-7 17.51-13.62 35.29-9.46 24.46-18.89 47.51t-19.2 42.74a302.44 302.44 0 0 1-20 35q-10.29 15.29-21.4 23.62l-26.67 20.56a32.64 32.64 0 0 1-5.28-11.95q-1.39-6.38-2.5-12.5a80.45 80.45 0 0 1-1.11-13.34q0-8.88.28-13.89t1.39-12.23q1.11-7.22 3.89-20T648.6 473q1.67-8.34 3.61-17.23t3.61-17.5q1.67-8.61 3.06-15.84t1.94-11.67a65.19 65.19 0 0 0-6.39-11.11l-8.06-11.11q-3.34-4.44-6.95-9.17t-7.5-10.84a48.81 48.81 0 0 1-17.5-9.45q-8.06-6.67-14.17-12.78-8.89 7.79-19.45 22t-21.67 30.84q-11.12 16.67-22 35t-20.84 34.46q-11.11 18.84-19.11 32.45t-15.56 25A232.77 232.77 0 0 1 465.18 548q-8.9 10.56-21.67 23.34-9.46 9.46-19.45 17.78A202 202 0 0 1 406.02 603q-9.73 6.67-17.51 8.89 2.77-20.55 5.84-37.79t5.83-29.42q3.33-14.44 6.67-25.56 3.88-13.88 10.56-33.07t13.62-39.73q6.94-20.55 13.34-40.85a358.79 358.79 0 0 0 9.73-37 161.37 161.37 0 0 1-21.12-18.06 190.39 190.39 0 0 1-18.34-22.51 32.55 32.55 0 0 1-7.22-3.61 28.12 28.12 0 0 1-7.22-6.95q-12.23 2.23-22.78 13.89a153 153 0 0 0-19.73 28.06 266.73 266.73 0 0 0-11.94 24.29q-2.13-5-4.52-9.84a387.63 387.63 0 0 0-20-35.84q-15.56-13.89-37.51-21.67t-49.74-11.11q-2.23 0-2.78 2.5c-.37 1.67-1.48 2.14-3.33 1.39a94.29 94.29 0 0 0-26.69-3.01 140.8 140.8 0 0 0-28.06 3.33 126.07 126.07 0 0 0-25.56 8.61 85.69 85.69 0 0 0-19.73 12.23 71.6 71.6 0 0 0-20.56 14.17 138 138 0 0 0-17.78 21.4 172.56 172.56 0 0 0-14.73 26.4q-6.39 14.17-11.39 28.62a39.91 39.91 0 0 1-3.33 16.39q-3.33 7.5-12.23 13.62-2.79 2.79-3.89.83c-.74-1.3-2.8-1.6-6.13-.84q-6.12 9.46-12.5 18.62A148.65 148.65 0 0 0 14.18 488a82.35 82.35 0 0 0-7 20 66.45 66.45 0 0 0-.56 22.79q-3.89-.55-4.72 2.22t-1.95 5.56a23.59 23.59 0 0 1 5.56 12.5A20.56 20.56 0 0 0 11.12 563a7.7 7.7 0 0 1-3.61.28c-1.3-.18-2.14.47-2.5 1.94q11.67 5 13.34 16.39a76.84 76.84 0 0 1-.83 25q-2.5 13.62-6.11 27.51t-2.5 23.9a7.52 7.52 0 0 1-5.56-2.22q0 8.33 4.45 12.23-7.79 5.56-6.39 12.5a37.84 37.84 0 0 0 6.11 13.89q4.72 7 9.45 14.17t3.06 13.89a23.94 23.94 0 0 1 10.28 3.06q4.17 2.5 8.61 5.28 9.44-2.79 21.4-5.56a82.9 82.9 0 0 1 23.06-2.22 122.24 122.24 0 0 0 15.84-30 202.59 202.59 0 0 0 8.87-33.04 235.13 235.13 0 0 0 3.61-33.9q.55-16.95 0-32 32.22-7.22 66.41-13.34A573.14 573.14 0 0 0 244.24 565a337.64 337.64 0 0 0 56-22.53q-4.24 20.52-7.59 38.37-4.17 22.23-5.84 31.68a198.38 198.38 0 0 0 9.45 24.45q5 10.56 11.67 23.9 2.77 4.45 5.56 10t5.56 11.67q11.11 11.67 19.45 17.23a172.69 172.69 0 0 0 21.12 11.67q3.33 1.67 6.95 3.33t8.06 3.89a149.35 149.35 0 0 0 47-8.34A199.71 199.71 0 0 0 462.99 690a335.18 335.18 0 0 0 37.19-27.79q17.78-15.28 35-31.4l6.67-6.67 11.67-10.56 7.78-7.22 5.56 10.56 9.45 17.23q2.21 3.9 4.17 7.5t3.61 7.5a503 503 0 0 0 27.23 46.4A87.35 87.35 0 0 0 648.04 727a25.72 25.72 0 0 1 17.78-6.11 65.27 65.27 0 0 1 13.36 1.62 208.71 208.71 0 0 0 49.18-40.85 87.7 87.7 0 0 1 13.28-12.5l8.34 8.34q2.23 2.79 3.33 10a59.63 59.63 0 0 1 1.67 7.5 27.76 27.76 0 0 0 2.78 8.06l3.33 4.45a47 47 0 0 1 9.72 6.39q4.17 3.62 10.84 10.28l7.22.56a39.67 39.67 0 0 0 6.95-.56q3-.56 10.28-2.22l8.34-1.11 1.67-7.22q2.21-2.21 7.78-4.45 3.88-1.67 8.06-3.89a18.32 18.32 0 0 0 6.95-6.67l2.22-7.22a57.76 57.76 0 0 1 2.5-16.67q2.5-8.34 5.28-17.23 2.21-5.55 4.17-11.11a77.52 77.52 0 0 0 3.06-11.67 18.59 18.59 0 0 1 2.78-2.22 10 10 0 0 0 2.78-2.78l5.56-5-2.22-6.11c-.37-.74-.28-1.85.28-3.33a9.33 9.33 0 0 1 1.94-3.33l7.22-1.11 2.22-7.22q1.11-3.88 2.5-8.06a65.28 65.28 0 0 1 3.61-8.61 27.78 27.78 0 0 0 4.38 12.74q-2.23 8.34 1.67 13.89t6.67 8.89l2.5 2.5a3.87 3.87 0 0 1 1.39 2.5l1.67 6.11 6.11.56a128.39 128.39 0 0 0 20 1.67 133.27 133.27 0 0 0 26.67-2.5q12.22-2.5 25-5.84 8.88-2.21 17.78-4.17t22.79.83q1.11 17.79-4.45 24.73t-22.23 11.39l-18.34 5 11.11 12.78c1.48 1.49 2.78 2.87 3.89 4.17a23.86 23.86 0 0 0 3.89 3.61q6.11 5.56 8.06 8.89t.28 7.78l-2.22 8.34 7.22 3.33a35.08 35.08 0 0 1 7.22 4.45 61.24 61.24 0 0 0 6.39 4.45q3.61 2.21 11.39 3.89a70.54 70.54 0 0 0 26.67-6.39 91.68 91.68 0 0 0 23.06-15 104.39 104.39 0 0 0 17.87-20.55 134.63 134.63 0 0 0 13.06-25.84 101 101 0 0 0 .28-24.73q-1.39-11.94-3.61-23.06a48.67 48.67 0 0 1-1.39-7.78 38.65 38.65 0 0 0-1.39-7.22 114.42 114.42 0 0 0 28.06-18.37q12.5-11.11 18.62-22.79l5.56-10.56zM259.52 446a171.66 171.66 0 0 1-17.23 6.39q-8.9 2.79-18.06 5.28a109.83 109.83 0 0 0-17.51 6.39 75.67 75.67 0 0 1-16.12 5.56q-7.79 1.67-15.56 2.78a155.81 155.81 0 0 0-15.56 3.06 76.5 76.5 0 0 0-15.56 5.83 8.45 8.45 0 0 0-4.45-5 8.42 8.42 0 0 1-4.45-5q2.21-5 4.17-8.89t3.61-7.78a77.23 77.23 0 0 0 3.08-8.62q1.38-4.71 3.61-10.84a66.31 66.31 0 0 1 31.4-16.12 125.52 125.52 0 0 1 36.12-2.5 129.45 129.45 0 0 1 33.62 6.95q15.55 5.56 23.34 12.78a46.05 46.05 0 0 1-14.45 9.73zm695.5 98.09q-16.67 1.67-36.12 2.78a52.59 52.59 0 0 1-7.5.56 53.86 53.86 0 0 0-7.5.56q7.22-12.22 15-23.34l.56-.56a268 268 0 0 1 21.12-32.79 384.85 384.85 0 0 1 26.67-32.23l2.78-5.56q6.11 21.67 11.39 43.07t9.72 42q-19.45 3.88-36.11 5.54z" fill="#fff"/></svg>
