<svg xmlns="http://www.w3.org/2000/svg" viewBox="0 0 138.96 135.17"><path d="M137 82.63L77.6 9.33A9 9 0 0 0 64.94 8L52 18.48l11.24 13.88 8.46-6.85a3 3 0 0 1 4.22.44l3.49 4.31a3 3 0 0 1-.41 4.22l-8.46 6.85 29.12 36A9 9 0 0 1 98.3 90l-33.84 27.4 11.73 14.49a9 9 0 0 0 12.66 1.33l46.78-37.88A9 9 0 0 0 137 82.63z" fill="#c00"/><path d="M85 76.63L62 48.24 53.63 55a3 3 0 0 1-4.22-.44l-3.49-4.31a3 3 0 0 1 .44-4.25l8.35-6.76L25.6 3.33A9 9 0 0 0 12.94 2L0 12.48l47.63 58.81A9 9 0 0 1 46.3 84l-33.84 27.4 11.73 14.49a9 9 0 0 0 12.66 1.33l46.78-37.93A9 9 0 0 0 85 76.63z" fill="#c00"/></svg>