<?xml version="1.0" encoding="UTF-8" standalone="no"?>
<svg width="402px" height="402px" viewBox="0 0 402 402" version="1.1" xmlns="http://www.w3.org/2000/svg" xmlns:xlink="http://www.w3.org/1999/xlink">
    <!-- Generator: Sketch 40.1 (33804) - http://www.bohemiancoding.com/sketch -->
    <title>plane</title>
    <desc>Created with Sketch.</desc>
    <defs>
        <linearGradient x1="80.1827918%" y1="11.1198164%" x2="19.9791688%" y2="88.7691267%" id="linearGradient-1">
            <stop stop-color="#C6B5F3" offset="0%"></stop>
            <stop stop-color="#B7BBF9" offset="100%"></stop>
        </linearGradient>
    </defs>
    <g id="Page-1" stroke="none" stroke-width="1" fill="none" fill-rule="evenodd">
        <g id="plane">
            <ellipse id="circle" fill="url(#linearGradient-1)" cx="201" cy="201" rx="201" ry="201"></ellipse>
            <path d="M273.8,115.507 C273.8,116.446 273.447,118.516 273.015,120.107 C272.584,121.698 271.111,127.86 269.744,133.8 C268.376,139.74 266.015,149.82 264.497,156.2 C262.98,162.58 260.879,171.58 259.829,176.2 C257.475,186.558 253.514,203.554 250.975,214.2 C247.534,228.623 245.717,236.491 244.14,243.8 C240.314,261.528 241.523,260.531 228.6,256.631 C224.64,255.436 215.341,252.706 207.937,250.563 C200.532,248.421 193.782,246.448 192.937,246.18 C191.971966,245.873573 183.30889,243.456753 183.244,243.8 C183.154303,244.27447 195.770446,248.747341 195.770446,248.747341 C195.770446,248.747341 189.071,260.245 183.244,268.035 C177.416,275.826 172.278,282.457 171.824,282.771 C170.258,283.856 169.151,281.316 162.167,260.6 C158.311,249.16 154.549,239.148 153.807,238.352 C152.608,237.064 142.627,233.353 128.6,228.98 C117.808,225.616 102.19,220.11 101.511,219.431 C100.807,218.727 103.857,216.572 115.52,209.535 C118.314,207.849 126.72,202.769 134.2,198.247 C141.68,193.724 156.62,184.702 167.4,178.198 C178.18,171.694 192.58,162.943 199.4,158.751 C206.22,154.559 222.6,144.59 235.8,136.598 C249,128.606 262.68,120.239 266.2,118.005 C273.609,113.302 273.8,113.239 273.8,115.507 M161.728,232.084 C161.22,233.446 172.216,266.589 173.178,266.596 C174.048,266.602 175.955,259.29 177.766,249 C180.119,235.63 180.622,233.939 183.201,230.714 C184.482,229.111 187.302,225.508 189.466,222.706 C191.63,219.905 195.131,215.405 197.246,212.706 C199.361,210.008 203.141,205.163 205.646,201.94 C208.151,198.716 211.28,194.709 212.6,193.034 C213.92,191.359 218.42,185.594 222.6,180.223 C226.78,174.853 233.007,166.98 236.438,162.729 C239.869,158.478 244.699,152.3 247.171,149 C249.643,145.7 252.033,140.356 252.4,140.209 C252.07,140.214 231.64,160.603 207,185.518 C182.36,210.433 161.988,231.387 161.728,232.084 Z" fill="#FFFFFF"></path>
        </g>
    </g>
</svg>