<svg xmlns="http://www.w3.org/2000/svg" viewBox="0 0 5120 5120" fill="#fff"><path d="M2595 4944c-365-29.3-692.3-137-898-296-123-93.5-156.8-143.8-203.6-299.3-29.2-97-41-438.5-22.2-619.7 20-189.5 42-326.3 55-339 19.8-20 131 49 162.5 101.6l28 46.8-18.7 174.2c-46.7 422-8 645.5 128.7 748.4 128 70.2 335.6 213.4 478.2 215 12.8 0 53.7 17.7 90 40 97 59.5 248 126.2 391.7 175.3 70.2 23.4 136.8 48 146.2 53.8 22 13-173.2 13-338-1z"/><path d="M3530.4 4873.8c-664.2-64.4-1105-248-1355.3-564.8-119-152-139-215.2-94.6-307.6 11.7-25.7 49-115.7 82-197.6 167-419.8 204.5-507.5 311-723.8 53.7-108.8 125-245.6 159-304l60.8-105.3 10.5 41c90 383.5 320.4 688.7 610.4 809 228 93.7 472.5 87.8 681.8-19.8 79.5-39.8 126.3-75 214-160.3 117-112.2 154.4-161.3 224.5-290 48-88.8 113.4-274.8 113.4-322.7 1.2-98.2 238.6 562.5 257.3 715.6 60.8 485.3 34 984.6-62 1180-56 114.5-140.3 162.5-368.3 211.6-188.3 39.7-626.8 59.6-844.3 38.6zM1969.3 3515c-51.4-21-138-67.8-193-104-148.4-97.2-176.5-110-385.8-165-174.2-46.7-907.4-230.3-984.6-246.7-84.3-18.7-220-234-285.4-451.4-45.6-155.6-50.3-175.5-64.3-275-24.6-180-25.7-194-13-219.7 6-14 15.3-34 17.7-44.4 4.6-14.2 25.7-22.4 69-28.2 34-3.5 106.4-15.2 161.3-24.6 362.5-60.8 568.3-86.5 681.8-86.5 59.7 0 204.7-10.5 324-24.6l216.3-24.4 193-93.6c106.3-51.4 215-104 242-118l50.3-23.4 51.4 28c28 15.2 52.6 34 55 39.8 2.3 7-50.3 48-117 91.2-66.6 44.4-117 84.2-111 90 5.8 4.7 79.5 31.6 162.5 58.5 84.2 27 184.8 59.7 223.3 72.6l72.5 23.4 91.3-48 90-48 53.8 31.7c146 84.2 145 83 135.6 129.8-3.5 24.5-14 117-21 207l-14 163.6-55 76.2c-117 163.7-278.3 456-372 672.3-12.7 32.8-29 69-35 82-19.8 43-55 128.5-88.8 212.7-18.7 46.8-38.6 85.4-45.6 85.4-6-1.2-53.8-17.6-105.3-38.6zM417.6 2270.8c100.6-30.4 187-59.6 190.6-64.3 4.7-8.2-14-111-31.6-170.7-2.3-8.2-37.4-30.5-77-49.2l-73.8-34-140.3 52.7c-77.2 29.3-145 58.5-151 63.2-5.7 5.8-5.7 50.3-1 99.4 5.8 70 14 95.8 37.4 122.7 16.3 19.8 36 35 46.7 35 9.3 0 99.4-24.5 200-55z"/><path d="M3564.3 3501c-3.5-2.4-27-8.2-52.6-10.6-117-15.2-277-106.4-407-232.7-152.4-164.5-219-365.6-288.8-542.6-25.8-70-43.3-280.5-32.8-422 31-332.6 226-729.3 507.5-888.7 119.3-59.6 169.6-77.2 269-90 24.5-3.5 48-9.4 50.2-11.7 9.3-8.2 2.3-215.2-9.4-276-21-113.4-70.2-256-99.4-288.8-2.4-2.4-20 4.7-39.8 14l-35 18.7 26.8 60.8c36.3 83 66.7 207 73.7 306.4l5.8 83-56.2 15.2c-198.8 55-270 90-390.5 191.7-134.4 113.4-246.7 269-299.3 415-16.4 43.4-32.7 83-38.6 89-5.7 5.8-173-87.7-373-207s-367-217.5-371.8-217.5c-4.6 0-69 29.2-141.4 64.3-72.5 35-193 93.6-266.7 129.8l-135.5 65.5-46.8-32.7c-72.5-50.2-176.5-168.3-218.6-249-205.7-396.4 117-861.8 915.7-1319 107.5-62 203.4-78.4 387-70.2 249 13 483 69 712 172C3247.5 285 3309.5 311 3348 326c280.6 111 469 444.3 494.6 873.5l7 131 42 14c124 39.7 294.8 168.4 392 294.6 184.6 243.3 273.5 568.3 243 894.6-7 81.7-17.4 164.8-24.5 183.5-5.7 20-19.7 66.6-31.4 105.2-30.4 100.6-114.6 267.8-174.3 343.8-65.4 84.2-162.5 177.7-222 214-70.3 42-214 99.4-284.3 113.4-62 12.8-216.3 17.5-225.7 7z"/><path d="M4828.4 2946.7c0-13-4.7-27-11.7-30.4-6-3.5-11.7-16.4-11.7-27-1.2-10.5-10.5-41-23.4-66.6-12.8-25.7-22.2-51.4-23.4-56 0-15.3-105.2-228-141.5-289-25.7-43.2-32.7-72.4-39.7-163.6-30.4-452.5-232.7-801-569.5-987l-79.5-43V1210c0-149.7-73.7-467.7-112.3-483-25.7-9.3-19.8-22.2 18.7-38.5 32.8-14 37.5-11.7 107.6 48 298.2 254.8 583.5 570.5 774 858.2 120.6 181.2 166.2 264.2 282 502.7l101.7 210.5-20 105.2c-11.6 58.5-24.5 111-28 117-4.6 7-19.8 49-35 93.5-34 99.3-153.2 335.5-173 342.6-9.5 2.3-15.3-6-15.3-20z"/></svg>
