<svg xmlns="http://www.w3.org/2000/svg" viewBox="0 0 1578 1578"><path d="M0 789v789h1578V0H0zm860.8-535.7c85.1 9.6 143.1 28.2 195.7 62.8 73.4 48.2 114.3 115.9 125.1 206.9 2.2 17.9 2.5 60.6.6 75.5-7.1 55.2-28.4 99.6-65.7 137.1-23.9 23.9-50.3 42.5-85.7 60-8.4 4.1-15.4 7.7-15.6 7.9s4.1 1.8 9.5 3.5c98.5 32.6 149 95.3 163.9 203.6 1.3 9.5 1.8 26 2.4 81.4.8 74.2 1.2 81.3 6.6 110.5 8.5 46.8 20.2 73.4 41.3 94l6.1 5.9v14.6h-221l-4.5-4.1c-10-9.2-20.4-26.8-25.8-43.4-6.5-19.7-10.7-45.8-14.8-91.5-.6-6.9-1.5-42.9-1.9-80-.8-71.5-.9-74.1-6.1-94.5-8.7-34.4-26.3-61.7-52.2-81.4-21.7-16.4-49.2-26.5-81.9-30-6.2-.7-49.2-1.1-119.8-1.1H607v426H394V250.9l226.3.4c200.5.3 227.8.5 240.5 2z"/><path d="M607.5 416.2c-.3.7-.4 70.6-.3 155.3l.3 154 96.5.3c100.4.3 118.6-.2 140.9-3.8q93.3-15.3 117.5-89.4c9.1-27.7 10.8-64.8 4.5-97.2-5.4-28.4-18-53.2-36.9-72.8-24.7-25.7-55.5-39.5-102-45.7-5.7-.8-43.4-1.3-114.3-1.6-87-.4-105.8-.2-106.2.9z"/></svg>