<?xml version="1.0" ?><!DOCTYPE svg  PUBLIC '-//W3C//DTD SVG 1.1//EN'  'http://www.w3.org/Graphics/SVG/1.1/DTD/svg11.dtd'><svg enable-background="new 0 0 90 90" height="90px" id="Layer_1" version="1.1" viewBox="0 0 90 90" width="90px" xml:space="preserve" xmlns="http://www.w3.org/2000/svg" xmlns:xlink="http://www.w3.org/1999/xlink"><circle cx="45" cy="45" fill="#F1C40E" r="45"/><g><path d="M42,26h-2c-2.209,0-4,1.791-4,4v12c0,2.209,1.791,4,4,4h12c2.209,0,4-1.791,4-4V30c0-2.209-1.791-4-4-4h-2   H42z" fill="#59B0D3"/><path d="M52,47H40c-2.757,0-5-2.243-5-5V30c0-2.757,2.243-5,5-5h12c2.757,0,5,2.243,5,5v12   C57,44.757,54.757,47,52,47z M40,27c-1.654,0-3,1.346-3,3v12c0,1.654,1.346,3,3,3h12c1.654,0,3-1.346,3-3V30c0-1.654-1.346-3-3-3   H40z" fill="#232E38"/></g><g><path d="M48,16h-4c-1.105,0-2,0.895-2,2v14c0,1.105,0.895,2,2,2h4c1.105,0,2-0.895,2-2V18   C50,16.895,49.105,16,48,16z" fill="#59B0D3"/><path d="M48,35h-4c-1.654,0-3-1.346-3-3V18c0-1.654,1.346-3,3-3h4c1.654,0,3,1.346,3,3v14   C51,33.654,49.654,35,48,35z M44,17c-0.552,0-1,0.449-1,1v14c0,0.551,0.448,1,1,1h4c0.552,0,1-0.449,1-1V18c0-0.551-0.448-1-1-1H44   z" fill="#232E38"/></g><g><rect fill="#ABCFD3" height="28" width="16" x="38" y="46"/><path d="M54,75H38c-0.553,0-1-0.448-1-1V46c0-0.552,0.447-1,1-1h16c0.553,0,1,0.448,1,1v28   C55,74.552,54.553,75,54,75z M39,73h14V47H39V73z" fill="#232E38"/></g><path d="M46,75c-0.553,0-1-0.448-1-1V46c0-0.552,0.447-1,1-1s1,0.448,1,1v28C47,74.552,46.553,75,46,75z" fill="#232E38"/><path d="M47,21h-2c-0.553,0-1-0.448-1-1s0.447-1,1-1h2c0.553,0,1,0.448,1,1S47.553,21,47,21z" fill="#232E38"/><path d="M54,51h-8c-0.553,0-1-0.448-1-1s0.447-1,1-1h8c0.553,0,1,0.448,1,1S54.553,51,54,51z" fill="#232E38"/><path d="M46,51h-8c-0.553,0-1-0.448-1-1s0.447-1,1-1h8c0.553,0,1,0.448,1,1S46.553,51,46,51z" fill="#232E38"/><path d="M54,55h-8c-0.553,0-1-0.448-1-1s0.447-1,1-1h8c0.553,0,1,0.448,1,1S54.553,55,54,55z" fill="#232E38"/><path d="M46,55h-8c-0.553,0-1-0.448-1-1s0.447-1,1-1h8c0.553,0,1,0.448,1,1S46.553,55,46,55z" fill="#232E38"/><path d="M54,59h-8c-0.553,0-1-0.448-1-1s0.447-1,1-1h8c0.553,0,1,0.448,1,1S54.553,59,54,59z" fill="#232E38"/><path d="M46,59h-8c-0.553,0-1-0.448-1-1s0.447-1,1-1h8c0.553,0,1,0.448,1,1S46.553,59,46,59z" fill="#232E38"/><path d="M54,63h-8c-0.553,0-1-0.448-1-1s0.447-1,1-1h8c0.553,0,1,0.448,1,1S54.553,63,54,63z" fill="#232E38"/><path d="M46,63h-8c-0.553,0-1-0.448-1-1s0.447-1,1-1h8c0.553,0,1,0.448,1,1S46.553,63,46,63z" fill="#232E38"/><path d="M46,67h-8c-0.553,0-1-0.448-1-1s0.447-1,1-1h8c0.553,0,1,0.448,1,1S46.553,67,46,67z" fill="#232E38"/><path d="M46,71h-8c-0.553,0-1-0.448-1-1s0.447-1,1-1h8c0.553,0,1,0.448,1,1S46.553,71,46,71z" fill="#232E38"/><path d="M54,67h-8c-0.553,0-1-0.448-1-1s0.447-1,1-1h8c0.553,0,1,0.448,1,1S54.553,67,54,67z" fill="#232E38"/><path d="M54,71h-8c-0.553,0-1-0.448-1-1s0.447-1,1-1h8c0.553,0,1,0.448,1,1S54.553,71,54,71z" fill="#232E38"/><path d="M46,39c-0.553,0-1-0.448-1-1v-8c0-0.552,0.447-1,1-1s1,0.448,1,1v8C47,38.552,46.553,39,46,39z" fill="#232E38"/></svg>