<svg xmlns="http://www.w3.org/2000/svg" viewBox="0 0 75.61 72.48"><title>logo-light</title><polygon points="12.6 18.6 12.6 22.73 36.14 22.73 37.64 18.6 12.6 18.6" fill="#ea684a"/><polygon points="75.61 22.73 75.61 18.6 50.81 18.6 49.31 22.73 75.61 22.73" fill="#e9a353"/><polygon points="63.01 33.11 63.01 28.99 47.03 28.99 45.53 33.11 63.01 33.11" fill="#e9a353"/><polygon points="0 28.99 0 33.11 32.36 33.11 33.86 28.99 0 28.99" fill="#ea684a"/><polygon points="11.46 39.37 11.46 43.49 28.58 43.49 30.08 39.37 11.46 39.37" fill="#ea684a"/><polygon points="75.61 43.49 75.61 39.37 43.25 39.37 41.75 43.49 75.61 43.49" fill="#e9a353"/><polygon points="63.01 53.88 63.01 49.75 39.47 49.75 37.97 53.88 63.01 53.88" fill="#e9a353"/><polygon points="0 49.75 0 53.88 24.8 53.88 26.3 49.75 0 49.75" fill="#ea684a"/><path d="M68.54,14.15c-3.75-1.36-8,1-9.6,5.28L54.23,32.36l-1.5,4.12-2.28,6.26-1.5,4.12-2.28,6.26-1.5,4.12-2.28,6.26-1.5,4.12L37.19,79.16c-0.76,2.1-2.74,3.39-4.32,2.82a2.91,2.91,0,0,1-1.72-2.28,3.09,3.09,0,1,0-3.65-4.06c-1.56,4.28.21,8.86,4,10.22s8-1,9.6-5.28l4.71-12.93,1.5-4.12,2.28-6.26,1.5-4.12,2.28-6.26,1.5-4.12,2.28-6.26,1.5-4.12,4.19-11.52c0.76-2.1,2.74-3.39,4.32-2.82a2.91,2.91,0,0,1,1.72,2.28,3.09,3.09,0,1,0,3.65,4.06C74.05,20.09,72.28,15.51,68.54,14.15Z" transform="translate(-12.2 -13.76)" fill="#43444e"/></svg>
