<svg xmlns="http://www.w3.org/2000/svg" viewBox="0 0 75.61 72.48"><path fill="#ea684a" d="M12.6 18.6v4.13h23.54l1.5-4.13H12.6z"/><path fill="#e9a353" d="M75.61 22.73V18.6h-24.8l-1.5 4.13h26.3zM63.01 33.11v-4.12H47.03l-1.5 4.12h17.48z"/><path fill="#ea684a" d="M0 28.99v4.12h32.36l1.5-4.12H0zM11.46 39.37v4.12h17.12l1.5-4.12H11.46z"/><path fill="#e9a353" d="M75.61 43.49v-4.12H43.25l-1.5 4.12h33.86zM63.01 53.88v-4.13H39.47l-1.5 4.13h25.04z"/><path fill="#ea684a" d="M0 49.75v4.13h24.8l1.5-4.13H0z"/><path d="M56.34.39c-3.75-1.36-8 1-9.6 5.28L42.03 18.6l-1.5 4.12-2.28 6.26-1.5 4.12-2.28 6.26-1.5 4.12-2.28 6.26-1.5 4.12-4.2 11.54c-.76 2.1-2.74 3.39-4.32 2.82a2.91 2.91 0 0 1-1.72-2.28 3.09 3.09 0 1 0-3.65-4.06c-1.56 4.28.21 8.86 4 10.22s8-1 9.6-5.28l4.71-12.93 1.5-4.12 2.28-6.26 1.5-4.12 2.28-6.26 1.5-4.12 2.28-6.26 1.5-4.12 4.19-11.52c.76-2.1 2.74-3.39 4.32-2.82a2.91 2.91 0 0 1 1.72 2.28 3.09 3.09 0 1 0 3.65 4.06c1.52-4.3-.25-8.88-3.99-10.24z" fill="#43444e"/></svg>