<svg xmlns="http://www.w3.org/2000/svg" viewBox="0 0 167.9 148.4"><path fill="#FFF" d="M77.2 15.4c-2.8 0-5-2.3-5-5 0-2.8 2.3-5 5-5 2.8 0 5 2.2 5 5 0 2.7-2.2 5-5 5zm13.3 0c2.8 0 5-2.3 5-5 0-2.8-2.3-5-5-5-2.8 0-5 2.2-5 5 0 2.7 2.3 5 5 5zM110.4 117c6.9-1.2 13.9-8.4 13.9-17.3V34.8c0-9.1-7.7-17.5-18.1-17.5H61.6c-10.5 0-18.2 8.4-18.1 17.5v64.8c0 8.9 6.9 16.2 13.9 17.3l-20.8 31.4h12.1l14.9-22h40.9l15 22h12L110.4 117zM72.1 24c0-1.6 1.4-3 3-3h17.6c1.6 0 3 1.4 3 3v5.1c0 1.6-1.3 3-3 3H75.1c-1.7 0-3-1.4-3-3V24zm-11 83.5c-4.4 0-7.9-3.6-7.9-8s3.6-8 7.9-7.9c4.4 0 8 3.5 8 7.9s-3.6 8-8 8zm1.1-42.1c-5 0-9.1-3.5-9.1-9.1V44.7c0-4.9 3.2-9.1 9.1-9.1h43.4c5.9 0 9.1 4.2 9.1 9.1v11.6c0 5.6-4.1 9.1-9.1 9.1H62.2zm36.3 34.1c0-4.4 3.5-8 7.9-7.9 4.4 0 8 3.5 8 7.9s-3.6 8-8 8-8-3.6-7.9-8zM28.3 3.9c-2.3-3.8-7.2-5.1-11-2.8-2.5 1.5-4 4.3-3.9 7.2C11 6.2 7.6 5.6 4.6 7 .6 8.9-1.2 13.6.7 17.7c4.1 8.8 16.9 8 22.8 12.4.4-7.4 9.3-16.6 5.2-25.4-.1-.3-.2-.6-.4-.8z"/></svg>
