<svg xmlns="http://www.w3.org/2000/svg" viewBox="0 0 29.494 24"><path fill="#FFF" d="M29.494 2.844c-1.087.48-2.25.806-3.475.956 1.25-.75 2.21-1.938 2.66-3.35-1.17.694-2.46 1.2-3.846 1.47C23.73.737 22.154 0 20.414 0c-3.34 0-6.05 2.713-6.05 6.056 0 .475.05.938.16 1.38-5.03-.248-9.493-2.66-12.474-6.33-.52.894-.82 1.938-.82 3.044 0 2.1 1.076 3.956 2.7 5.044-1-.025-1.936-.3-2.75-.756v.075c0 2.938 2.09 5.38 4.857 5.938-.506.14-1.044.218-1.594.218-.387 0-.77-.038-1.138-.113.77 2.407 3.006 4.157 5.656 4.207-2.064 1.625-4.68 2.594-7.514 2.594-.487 0-.97-.03-1.444-.086C2.668 23 5.85 24 9.26 24c11.144 0 17.23-9.23 17.23-17.237 0-.262-.005-.525-.018-.78 1.182-.858 2.207-1.92 3.02-3.14z"/></svg>
