<svg xmlns="http://www.w3.org/2000/svg" viewBox="0 0 242.25 208.55" fill="#FFF"><path d="M93.51 164.89L65.8 141l-21.14 23.89L16 140.16v-39.07h-5.63c-5 0-7.57 3.19-8.77 7H1a31.68 31.68 0 0 1-1-7.57c0-5.22 1.4-18.77 16-18.77v-34.3c0-6.58-7.78-9.17-7.78-17.95C8.18 18.15 18.94 7 38.68 0l.8.6c-7.18 4.19-11 8.18-11 16.75 0 13.16 12.76 9.77 12.76 30.51v8L64.6 31.3l24.53 24.13 23.12-24.13 22.33 21.93V127zM64.4 65.4L49.25 50.65l-8 8.17v70.58l18.14 15.35 5-5.58V65.4zm45.06-2.59l-12.56-12-7.18 7.38v71l19.54 17.14.2-.2V62.81zM218.76 29.55l-27.51 28.8v-20.8h-3v22.82l-4 4.83V46.87l-18.69-17.31-20.22 21.54 1.47 1.41 4.61-4 8.83 7.45v22.59h-2.3c-10.27 0-16.51 8.07-16.51 16.53 0 4.63.4 7.47 1 8.47h.56c2.82-5 6-8 11.88-8h5.33v39.51c-15 4.43-21.28 15.91-22.7 31.41l.67.2c7.25-7.25 14-10.87 22-12.48v54.16l-.14.2L183.19 187l7.86 7.25.21-.2V154.6c7 1.81 8.75 3 14.39 10h.16l36.45-26.67V50.3zm-30.51 159.88l-4-4V68.82l4-4.63v125.24zm28-45.91l-.62.2c-6.24-6.84-13.38-9.86-24.38-10.87V62L204 48.69l12.3 10.87v84z"/></svg>