<svg xmlns="http://www.w3.org/2000/svg" viewBox="0 0 365.29 468.28"><path d="M358.5 108.55h-129c-11.36 6.79-28.38 11.34-47.43 11.34s-36.07-4.55-47.43-11.34h-126c-5.45 0-8.48 3-8.48 6.79l-.11 27.15 182.6 11.34 182.64-11.34v-27.16a6.79 6.79 0 0 0-6.79-6.78z" fill="#997d55"/><path d="M106 424.52a55.74 55.74 0 0 1-59.93-50.85L24 221.93 21.08 68.62c.21-31.34 20.39-57.43 50.85-59.93 30.47-2.5 54 19.84 59.93 50.85l22.07 151.74 2.89 153.31A55.74 55.74 0 0 1 106 424.52z" fill="#ddd58c"/><path d="M289.82 153.77A58.29 58.29 0 0 0 215.67 98a58.25 58.25 0 0 0-82.34-2.56Q132 96.63 130.77 98a58.29 58.29 0 0 0-74.19 55.88 58.3 58.3 0 0 0 27.5 109.72h.18a94.3 94.3 0 0 0 177.83 0h.35a58.3 58.3 0 0 0 27.38-109.83z" fill="#74a34b"/><path d="M299.14 113.91v-76a7.68 7.68 0 0 0 0-14.63v-9.5A13.82 13.82 0 0 0 285.36 0h-25.79a13.82 13.82 0 0 0-13.75 13.78v9.5a7.68 7.68 0 0 0 0 14.63v76a56.52 56.52 0 0 0-47 55.52v207.46a56.48 56.48 0 0 0 56.32 56.32h34.68a56.48 56.48 0 0 0 56.32-56.32V169.42a56.52 56.52 0 0 0-47-55.51z" fill="#84433a"/><path d="M365.29 142.48a6.79 6.79 0 0 0-6.79-6.79H230.08C218.72 142.48 201.7 147 182.65 147s-36.07-4.55-47.43-11.34H6.82A6.79 6.79 0 0 0 0 142.48l13.58 177.21L0 439.28c0 15.62 12.78 29 28.41 29h308.47c15.62 0 28.41-13.37 28.41-29L351.71 320z" fill="#ddcdab"/><path d="M358.5 135.7H230.08c-11.36 6.79-28.38 11.3-47.43 11.3s-36.07-4.55-47.43-11.34H6.82A6.79 6.79 0 0 0 0 142.49L13.58 319h338.13l13.58-176.48a6.79 6.79 0 0 0-6.79-6.82z" fill="#d1bfa1"/><circle cx="182.66" cy="310.54" r="26.2" transform="rotate(-45 182.651 310.543)" fill="#fff"/><path d="M107.13 386.06a106.8 106.8 0 1 1 151.2-.17l19.49 19.54a134.43 134.43 0 1 0-190.28.17z" fill="#fff"/><path d="M144.74 348.45a53.61 53.61 0 1 1 76-.18l19 19a80.42 80.42 0 1 0-113.89.17z" fill="#fff"/><path d="M87.59 215.48A134.08 134.08 0 0 0 48.51 319h27.7a106.78 106.78 0 1 1 212.88 0h27.73A134.4 134.4 0 0 0 87.59 215.48z" fill="#e5e5e5"/><path d="M125.82 253.67A80.23 80.23 0 0 0 102.74 319h27.06a53.56 53.56 0 1 1 105.77 0h27.06a80.39 80.39 0 0 0-136.81-65.33z" fill="#e5e5e5"/><path d="M164.12 292a26.18 26.18 0 0 0-6.26 27h49.58a26.19 26.19 0 0 0-43.32-27z" fill="#e5e5e5"/><path d="M6.82 142.48h128.39c11.36 6.79 28.38 11.34 47.43 11.34s36.07-4.55 47.43-11.34H358.5a6.77 6.77 0 0 1 6.47 4.85l.31-4.85a6.79 6.79 0 0 0-6.79-6.79H230.08C218.72 142.48 201.7 147 182.65 147s-36.07-4.55-47.43-11.34H6.82A6.79 6.79 0 0 0 0 142.48l.31 4.86a6.77 6.77 0 0 1 6.51-4.86z" fill="#fff" opacity=".25" style="isolation:isolate"/><path d="M336.88 461.5H28.41c-14.27 0-26.13-11.17-28.09-25L0 439.28c0 15.62 12.78 29 28.41 29h308.47c15.62 0 28.41-13.37 28.41-29l-.29-2.78c-2 13.84-13.85 25-28.12 25z" fill="#997d55" opacity=".5"/><path d="M358.5 122.16h-38.17a69.32 69.32 0 0 1 8.49 6.79h-98.74a77 77 0 0 1-21 8.25 56.53 56.53 0 0 1 36.74-23.29v-16.4s-4-.9-6.79-1.23v17.63c-17.24 2.92-31.87 10.36-40 25.19a115.4 115.4 0 0 1-16.33 1.19c-19.05 0-36.07-4.55-47.43-11.34H62.15c6.89-14.31 24.29-33.2 52.72-33.2A58.31 58.31 0 0 1 130.72 98a48.81 48.81 0 0 1 5.87-5.47l-.9-6.65c-5 2.87-7.83 4.54-11.75 8.71a58.31 58.31 0 0 0-15.85-2.2c-30.35 0-45.72 21.44-55.54 36.59H22.23l-.06-6.79H6.89a6.79 6.79 0 0 1-6.79-6.84L0 142a6.75 6.75 0 0 1 6.78-6.32h128.43c11.36 6.79 28.38 11.34 47.43 11.34s36.07-4.55 47.43-11.34H358.5a6.79 6.79 0 0 1 6.79 6.79v-27.1a6.79 6.79 0 0 1-6.79 6.79zM0 142.18V142a.65.65 0 0 1 0 .18z" opacity=".15"/></svg>