<svg xmlns="http://www.w3.org/2000/svg" viewBox="0 0 338.63 311.64"><defs><linearGradient id="a" x1="46.62" y1="150.29" x2="282.73" y2="150.29" gradientTransform="matrix(1 0 0 -1 0 314)" gradientUnits="userSpaceOnUse"><stop offset="0" stop-color="#211e1f"/><stop offset=".01" stop-color="#221f20"/><stop offset=".2" stop-color="#3a3939"/><stop offset=".37" stop-color="#494849"/><stop offset=".51" stop-color="#4e4e4e"/><stop offset=".64" stop-color="#494848"/><stop offset=".81" stop-color="#3a3839"/><stop offset="1" stop-color="#211e1f"/></linearGradient></defs><title>babe</title><path d="M314.6 137.82c-11.8-3.05-24.44 4-32.56 16.6-19.41-38.49-63.41-65.36-114.58-65.36-52.89 0-98.11 28.69-116.45 69.26-7.74-8-17.62-11.92-27-9.5C8 152.99-.4 174.13 5.28 196.08s23.29 36.38 39.33 32.23a22.23 22.23 0 0 0 2.12-.68c14.54 46.41 63.08 80.51 120.74 80.51 62.26 0 113.89-39.76 123.56-91.85a22.26 22.26 0 0 0 3 1c16 4.15 33.65-10.28 39.33-32.23s-2.72-43.07-18.76-47.24z" fill="#ffc989" stroke="#000" stroke-linejoin="round" stroke-width="7"/><path d="M44.13 218.92s-30.17.17-31-38.33c-.43-19.66 12.77-22.5 16.55-22.5 10.41 0 10.31 13.75 9.48 26.08s-.03 22.6 4.97 34.75zm249.38-12s29.17 2.84 32-38.33c1.12-16.33-12.77-21.73-16.55-21.5-13.49.81-12.31 13.75-11.48 26.08s-.31 20.25-3.97 33.75z" fill="#ffaf60"/><path d="M292.16 181.12c-2-27.2-13.62-48.13-23.54-61.33v-.36c0-.37-2.78-37.91-11.7-104.28a4.5 4.5 0 0 0-3.12-3.7C204.59-4.01 155.31-1.01 122.63 4.14c-35.36 5.6-58.83 14.7-59.81 15.09a4.5 4.5 0 0 0-2.85 4c0 .35-1.69 35.9-1.67 106.4a4.49 4.49 0 0 0 .18 1.24 123.35 123.35 0 0 0-14.68 57.88c5.42 4.1 14 10 14 10s-11.34-28.1 17.53-69.84c47.95-20.14 94.3-21.11 125.65-18.11a278.46 278.46 0 0 1 49.23 9.19c38.58 41.26 27.71 72.1 27.71 72.1s8.75-6.5 14.24-10.97z"/><path d="M81.11 131.71h.2c17.12-3.16 33.81-.87 48.56.94 19.31 2.35 27.3 14.48 19.91 35.65-6.1 17.46-9.13 22.29-20.64 27.54-15.8 7.17-38.79 6.91-51.3-1.4-6.41-4.29-9.48-11.23-11.15-17.27-5-18.39-7.61-40.21 14.52-45.48m166.63-4.14h-.2c22.43 4.23 21.06 26 17 44.71-1.32 6.13-4.09 13.1-10.28 17.72-12.11 9-35.1 10.46-51.34 4.09-11.81-4.67-15.1-9.33-22.12-26.51-8.51-20.83-1.12-33.3 18.1-36.65 14.7-2.59 31.39-5.47 48.73-3.36"/><path d="M263.21 209.67s-5 29.32-21.5 29.5c-13.75.15-23.65-20.5-44.52-24.74.68-.27 1.35-.56 2-.89 6.39-3.27 7.3-8.25 7.28-10.94-.08-8.52-8.18-15.69-11.19-18.06-6.37-8-9.88-16.1-13.93-25.47-1.27-2.93-2.58-6-4-9.07-2.34-5.34-9.63-7.5-12.31-7.5h-.61a15.42 15.42 0 0 0-5.64 1.86c-3.15 1.65-5.22 3.73-6.15 6.2-1.28 3.19-2.43 6.28-3.55 9.28-3.51 9.44-6.57 17.64-12.37 25.83-4.46 3.1-14.06 10.94-12.46 20 .8 4.58 3 7.75 6.55 9.41a12 12 0 0 0 1.53.58c-13.32 4-28 27.2-42.11 27-14.82-.25-19.75-27.5-19.75-27.5s-5.29 52 21.25 53.75c29.75 2 34.5-32 75.59-31.87 49.91.15 36.91 32 75.66 27.38 27.86-3.32 20.23-54.75 20.23-54.75zm-121.57-18.91c8.91-12.11 12.07-24.18 17.5-37.68.67-1.92 5.07-3.58 5.69-3.58h.17c1.21 0 5.18 1.53 5.92 3.35 6.11 13.19 9.9 25.1 19.42 36.74 0 0 9.05 6.69 9.11 13.08 0 4.58-6.41 5.74-12 7.17-3.67.94-6.38 4.22-9.34 7.2-3.29 4.51-6.75 5.38-10.14 5.38-5.42 0-17.18-12.33-24.52-12.92s-11.25 1.08-12.33-5.08 10.52-13.66 10.52-13.66z"/><path d="M280.46 125a362.81 362.81 0 0 0-37.9-2.38 238 238 0 0 0-24 1c-20.64 1.84-27.12 4.52-45.51 11.09a26.4 26.4 0 0 1-8.59 2c-3.07.08-5.3-.65-8.48-1.59-18.7-5.61-25.27-7.95-46-8.72a236.57 236.57 0 0 0-23.92.21 346.06 346.06 0 0 0-37.58 4.33c-2.85.57-2.44 17.77 1.29 18.16 18.48 1.86.41 52.22 45.36 55.53 23.74 1.14 39.56-3.48 46.45-12.8 8.91-12.11 12.07-24.2 17.5-37.7.68-2 5.23-3.66 5.72-3.59 1-.15 5.29 1.44 6.07 3.34 6.11 13.19 9.9 25.1 19.42 36.74 7.36 9 23.4 12.75 47.05 10.38 44.75-5.63 24.19-55 42.61-57.81 3.74-.59 3.51-17.79.51-18.19zm-132.8 43.2c-5.79 16.58-8.67 21.16-19.6 26.15-15 6.81-36.83 6.56-48.71-1.33-6.09-4.07-9-10.66-10.59-16.4-4.72-17.46-7.14-38.18 13.88-43.18 16.26-3 32.1-.83 46.11.89 18.34 2.22 25.93 13.74 18.91 33.84zm114.69 3.56c-1.25 5.8-3.87 12.4-9.73 16.77-11.46 8.49-33.22 9.9-48.58 3.87-11.18-4.42-14.29-8.83-20.93-25.09-8.05-19.71-1.06-31.51 17.13-34.68 13.91-2.45 29.59-5.18 46-3.18 21.26 4 20 24.6 16.12 42.28z" transform="translate(0 -.01)" fill="url(#a)"/><path d="M288.25 107.54s-4.37 12.45-14.25 14.19c10.17 2.77 14.63 13.56 14.63 13.56s4-11.75 13.56-13.56c-6.35-.81-10.19-6.06-13.94-14.19zm-17.66 19.1s-2.59 7.35-8.44 8.35c6 1.64 8.64 8 8.64 8s2.36-6.94 8-8c-3.72-.46-6.01-3.56-8.2-8.35zm23 12.93s-2.29 6.52-7.47 7.42c5.32 1.45 7.65 7.09 7.65 7.09s2.09-6.15 7.09-7.09c-3.32-.42-5.34-3.17-7.28-7.42z" fill="#ff0"/></svg>