<?xml version="1.0" encoding="utf-8"?>
<!DOCTYPE svg PUBLIC "-//W3C//DTD SVG 1.1//EN" "http://www.w3.org/Graphics/SVG/1.1/DTD/svg11.dtd">
<svg xmlns="http://www.w3.org/2000/svg" xmlns:xlink="http://www.w3.org/1999/xlink" version="1.1" baseProfile="full" width="200" height="200" viewBox="0 0 200.00 200.00" enable-background="new 0 0 200.00 200.00" xml:space="preserve">
	<g>
		<g>
			<g>
				<ellipse fill="#FFFFFF" fill-opacity="0.301961" stroke-width="3" stroke-linejoin="round" stroke="#FFFFFF" stroke-opacity="0.403922" cx="97.9999" cy="101.77" rx="59.6856" ry="59.6856"/>
				<path fill="#FFFFFF" fill-opacity="0.301961" stroke-width="3" stroke-linejoin="round" stroke="#FFFFFF" stroke-opacity="0.403922" d="M 66.0086,64.4932C 69.3896,65.5144 70.4748,71.8236 68.4324,78.5857C 66.3901,85.3476 61.9936,90.0014 58.6127,88.9802C 55.2317,87.9591 54.1465,81.6497 56.1889,74.8878C 58.2313,68.1257 62.6275,63.472 66.0086,64.4932 Z "/>
				<path fill="#FFFFFF" fill-opacity="0.301961" stroke-width="3" stroke-linejoin="round" stroke="#FFFFFF" stroke-opacity="0.403922" d="M 142.241,116.431C 146.332,120.513 143.031,130.453 134.868,138.634C 126.705,146.814 116.772,150.137 112.682,146.056C 108.591,141.975 111.893,132.035 120.055,123.854C 128.218,115.673 138.151,112.35 142.241,116.431 Z "/>
			</g>
			<g>
				<ellipse fill="#FFFFFF" fill-opacity="0.301961" stroke-width="3" stroke-linejoin="round" stroke="#FFFFFF" stroke-opacity="0.403922" cx="158.953" cy="147.016" rx="11.8871" ry="11.8871"/>
				<path fill="#FFFFFF" fill-opacity="0.301961" stroke-width="3" stroke-linejoin="round" stroke="#FFFFFF" stroke-opacity="0.403922" d="M 155.473,139.876C 157.428,139.876 159.013,141.461 159.013,143.416C 159.013,145.371 157.428,146.956 155.473,146.956C 153.518,146.956 151.933,145.371 151.933,143.416C 151.933,141.461 153.518,139.876 155.473,139.876 Z "/>
			</g>
			<g>
				<ellipse fill="#FFFFFF" fill-opacity="0.301961" stroke-width="3" stroke-linejoin="round" stroke="#FFFFFF" stroke-opacity="0.403922" cx="141.021" cy="64.3592" rx="25.8146" ry="25.8146"/>
				<path fill="#FFFFFF" fill-opacity="0.301961" stroke-width="3" stroke-linejoin="round" stroke="#FFFFFF" stroke-opacity="0.403922" d="M 155.751,58.9534C 153.911,60.2149 150.374,58.254 147.851,54.5734C 145.328,50.893 144.775,46.8869 146.615,45.6254C 148.455,44.364 151.992,46.3249 154.515,50.0054C 157.038,53.6859 157.591,57.6919 155.751,58.9534 Z "/>
			</g>
		</g>
		<path fill="#FFFFFF" fill-opacity="1" stroke-linejoin="round" stroke="#FFFFFF" stroke-opacity="1" d="M 77.505,160.112C 75.0026,147.173 70.3507,138.378 66.3742,138.378C 62.3978,138.378 57.4471,147.173 54.7593,160.112L 33.9038,160.112C 31.2842,160.112 29.1601,157.988 29.1601,155.369L 29.1601,116.229C 29.1601,113.609 31.2842,111.485 33.9038,111.485L 98.2174,111.485C 100.837,111.485 102.961,113.609 102.961,116.229L 102.961,155.369C 102.961,157.988 100.837,160.112 98.2174,160.112L 77.505,160.112 Z M 82.5045,126.361C 77.7889,126.361 73.966,130.184 73.966,134.899C 73.966,139.615 77.7889,143.438 82.5045,143.438C 87.2201,143.438 91.0429,139.615 91.0429,134.899C 91.0429,130.184 87.2201,126.361 82.5045,126.361 Z M 49.6157,126.361C 44.9001,126.361 41.0772,130.184 41.0772,134.899C 41.0772,139.615 44.9001,143.438 49.6157,143.438C 54.3313,143.438 58.1541,139.615 58.1541,134.899C 58.1541,130.184 54.3313,126.361 49.6157,126.361 Z "/>
	</g>
</svg>
