<svg xmlns="http://www.w3.org/2000/svg" xmlns:xlink="http://www.w3.org/1999/xlink" viewBox="0 0 354 280"><defs><linearGradient id="a" x1="-149.5" y1="465.04" x2="-149.5" y2="364.9" gradientTransform="translate(202.5 -309.47)" gradientUnits="userSpaceOnUse"><stop offset="0" stop-opacity=".15"/><stop offset=".3" stop-opacity=".06"/><stop offset="1" stop-opacity=".03"/></linearGradient><linearGradient id="c" x1="-10.83" y1="497.45" x2="-79.61" y2="567.49" xlink:href="#a"/><linearGradient id="b" x1="-12.19" y1="517.57" x2="-2.17" y2="418.59" xlink:href="#a"/><linearGradient id="l" x1="-112.5" y1="465.04" x2="-112.5" y2="364.9" xlink:href="#a"/><linearGradient id="m" x1="26.17" y1="497.45" x2="-42.61" y2="567.49" xlink:href="#a"/><linearGradient id="n" x1="24.81" y1="517.57" x2="34.83" y2="418.59" xlink:href="#a"/><linearGradient id="o" x1="-75.5" y1="465.04" x2="-75.5" y2="364.9" xlink:href="#a"/><linearGradient id="q" x1="63.17" y1="497.45" x2="-5.61" y2="567.49" xlink:href="#a"/><linearGradient id="p" x1="61.81" y1="517.57" x2="71.83" y2="418.59" xlink:href="#a"/><circle id="d" cx="140" cy="140" r="71.62"/><circle id="e" cx="140" cy="140" r="51.5"/><path id="f" d="M265.66 77.89A140.38 140.38 0 0 0 23.79 61.61l56.4 97.72a62.65 62.65 0 0 1 58.9-81.43"/><path id="g" d="M129.06 279.59a140.31 140.31 0 0 0 136.6-201.7H139.08A62.64 62.64 0 0 1 188 179.37z"/><path id="h" d="M23.79 61.61a140.32 140.32 0 0 0 105.27 218L188 179.37a62.67 62.67 0 0 1-107.78-20"/><path id="i" d="M23.79 61.61l56.4 97.72a62.44 62.44 0 0 1 2-43.1l-55.82-58.3z" fill="url(#a)"/><path id="j" d="M265.66 77.89H139.08A62.67 62.67 0 0 1 188 101.7l79.55-19.88z" fill="url(#b)"/><path id="k" d="M126.62 279.38L151.51 201A62.22 62.22 0 0 0 188 179.37l-58.9 100.22z" fill="url(#c)"/></defs><use xlink:href="#d" fill="#fff"/><use xlink:href="#e" fill="#f6c231"/><use xlink:href="#f" fill="#f19b13"/><use xlink:href="#g" fill="#f7cc50"/><use xlink:href="#h" fill="#f3b70a"/><use xlink:href="#i" fill="url(#a)"/><use xlink:href="#j" fill="url(#b)"/><use xlink:href="#k" fill="url(#c)"/><g transform="translate(37)"><use xlink:href="#d" fill="#fff"/><use xlink:href="#e" fill="#4b8cf5"/><use xlink:href="#f" fill="#dd5044"/><use xlink:href="#g" fill="#ffce43"/><use xlink:href="#h" fill="#18a15f"/><use xlink:href="#i" fill="url(#l)"/><use xlink:href="#j" fill="url(#m)"/><use xlink:href="#k" fill="url(#n)"/></g><g transform="translate(74)"><use xlink:href="#d" fill="#fff"/><use xlink:href="#e" fill="#4b8bf5"/><use xlink:href="#f" fill="#4171d9"/><use xlink:href="#g" fill="#a3c3fa"/><use xlink:href="#h" fill="#649bf6"/><use xlink:href="#i" fill="url(#o)"/><use xlink:href="#j" fill="url(#p)"/><use xlink:href="#k" fill="url(#q)"/></g></svg>