<svg xmlns="http://www.w3.org/2000/svg" viewBox="0 0 572.06 509.37"><path d="M285.71 0c157.81 0 285.71 114 285.71 254.71 0 71.59-33.26 136.2-86.64 182.46l87.28 72.2H285.72C127.93 509.37 0 395.37 0 254.71S127.93 0 285.72 0z" fill="#fefefe"/><path d="M400.44 271.52L285.69 389.28s-116-118.93-116.41-119.39l-3.8-4.31a68.44 68.44 0 0 1-16.11-44c0-38.59 31.84-69.84 71.2-69.84a71.24 71.24 0 0 1 65.12 41.61 71.24 71.24 0 0 1 65.11-41.6c39.36 0 71.23 31.25 71.23 69.84A68.32 68.32 0 0 1 406 265.46s-4.66 5.18-5.56 6.06z" fill="#e959af"/></svg>