<svg xmlns="http://www.w3.org/2000/svg" viewBox="0 0 2748 2600"><path fill="#fff" d="M20 1226v-168c1.2-7.9 3-15.7 3.6-23.6 3.8-57.7 13.8-114.4 29.5-170C89.1 737 152 624.1 236.3 522.6 270.1 482 307.9 445.4 345 408c86.6-87.3 184.8-158.8 293.3-216.4 111.9-59.5 230-101.9 353.5-129.4 89.6-19.9 180.4-31.9 272.2-34.3 53.6-1.4 107.3-1.4 161-1.4 58 0 115.9 3.4 173.6 10.1 70.9 8.2 140.9 21.2 209.9 39.5 147.7 39.3 285.8 99.9 412.8 185.4 107.3 72.2 199.2 161.6 283.2 259.1 84.5 98.1 146 209.6 182.7 334.2 16.9 57.3 28.7 115.7 31.3 175.6.1 2.6 1.1 5.1 1.6 7.6v208c-.6 3.2-1.5 6.4-1.7 9.7-.4 6.3-.2 12.7-.8 19-5.2 50.5-14.5 100.2-28.6 148.9-36.8 127.5-100.3 240.5-185.3 341.9-35.2 42-74.5 79.9-113.2 118.6-40.9 40.8-84.8 78.2-131.4 112.3-127.8 93.5-268.6 159.9-420.4 203.8-77.6 22.4-156.5 38.5-236.8 47.3-40.4 4.5-81 8.2-121.6 9.1-70.3 1.6-140.6.8-210.9.7-14 0-28-.7-41.9-2.1-7-.7-11.7 1.2-16.7 6-133.3 128.6-290.8 213.3-469.8 259-92.6 23.6-186.9 36.5-282 43.5-74.2 5.4-148.5 6.7-222.8 6.1-5.4 0-9.3-1.5-13.1-5.4-13.2-13.6-26.7-27-40.3-40.3-3.3-3.2-5-6.5-4.9-11.3.2-50.7.2-101.3 0-152 0-5.2 1.9-8.7 5.4-12.1 13.3-13.1 26.3-26.5 39.7-39.4 3.8-3.6 8.2-6.8 12.9-9.2 33.3-17 65.5-35.8 95.6-58.1 19.2-14.3 39.7-27.9 55.7-45.3 41.3-44.8 72.4-96.3 89.8-155.3 4.1-14 7-28.3 10.4-42.4-4.2-3.2-7.4-5.5-10.5-8-23.1-18.6-46.6-36.7-69.2-55.9-42.5-36.1-80.8-76.5-119.8-116.2-42.8-43.6-81.2-91-115-142-86.9-130.4-139-272.6-149.5-429.3-.5-7.3-2.2-14.4-3.4-21.6zm1299 928.8V128.2c-86.5 3.1-171.5 12.7-254.6 30.2-.9 1.9-1.1 2.2-1.2 2.5-.1.3-.1.7-.2 1-.1.7-.1 1.3-.2 2v891c0 .3 0 .7-.1 1 0 .3-.1.7-.2 1l-.3.9c-.1.3-.3.6-.5.8-.2.2-.5.4-1.9 1.6H126.4c-1.2 16.3-2.8 31.5-3.4 46.7-2.2 56.4.9 112.6 10 168.4 13.9 85.7 40.7 167.4 79 245.4 3.9 8 8.3 10.8 17.4 10.8 108.3-.4 216.7-.2 325-.2h494c4.5 0 9.1.3 14.7.5v709.4c1.7-.1 2.5.1 3-.2 3-2.1 6-4.3 8.9-6.5 33.2-25.8 64.9-53.3 94.6-83.1 5.1-5.1 10.1-6.9 16.9-5.6 4.6.9 9.2 1.4 13.9 1.8 27.9 2.4 55.7 5.1 83.6 7.1 11.3.8 22.9.1 35 .1zm1146.2-1283c.3-.9.7-1.9 1-2.8h41.4c6.1-13.7 8.3-27.8 15.4-42.3 5.2 15.4 9.6 28.6 13.9 41.5 12.5 2 30.3 1.6 36.9-.8-5.1-28-58.7-143.5-73.2-157.6-4.2 2.8-8.5 5.7-12.8 8.6.1-6.5 1.6-11.9 3.6-17 1.9-4.8 1.2-8.8-1.7-13.1-11.5-17.1-22.6-34.5-34.3-51.5-8-11.7-16.8-22.9-25.9-35.4-.4 3.2-.6 4.8-1 7.5-12.2-8.7-23.5-16.8-35.3-25.3-11.7 8.4-23.1 16.6-34.5 24.8-.6-.5-1.2-.9-1.8-1.4 4.2-13.5 8.5-26.9 12.7-40.3-11.1-9.3-23.1-16.2-32.9-26.3 12.7-1.9 25.2-.5 38.1-2-12.5-18.2-75.6-78.9-87.1-83.5 2.6 15 9.3 28.2 12.8 44.7-13.4-9.5-24.9-17.7-36.8-26.1-6 4.3-11.6 8.4-17.3 12.5-5.7 4.1-11.5 8-17.2 12-.5-.5-1.1-1-1.6-1.5 4.2-13.2 8.4-26.4 12.7-40.2-5.9-4.3-11.7-8.3-17.1-12.6-5.5-4.3-12.1-7.3-17.6-14.8h42.6c4.7-5.8 2.2-8.9-1.7-11.8-26.9-19.6-53.8-39.3-80.8-58.9-.8-.6-2-.8-4.3-1.7 3.4 11.1 6.4 20.8 9.3 30.5-.5.3-1.1.7-1.6 1-11.6-8.2-23.1-16.4-34.8-24.6-11.9 8.6-23.2 16.7-34.5 24.8-.8-4.1 0-7.2 1-10.2 2.8-8.6 5.4-17.2 8.4-25.6 1.6-4.5.7-7.4-3.3-10.1-8.3-5.6-16.3-11.6-24.3-17.6-1.6-1.2-2.9-2.9-5.3-5.4 8.4-.4 15.1-.8 21.8-1.1-2.4-3.4-5.1-5.3-7.9-6.8-29.2-15.3-58.5-30.4-87.6-46-6.5-3.5-11.4-3.3-17 1.6-4.7 4.1-10.3 7.3-15.5 10.9-.4-.5-.8-.9-1.3-1.4 2.2-7.6 4.5-15.1 6.7-22.5-32.8-20.1-203-78.9-225.4-77.8 3 9.3 6 18.4 8.8 27.6 1.2 4 3.9 4.9 7.6 4.8 9-.1 18-.1 27 0 3.2 0 6.3.4 9.5.5l.6 1.8c-11.1 8.2-22.2 16.5-33.9 25.1 4.3 13.8 8.6 27.3 12.8 40.8-.5.4-1 .7-1.6 1.1-11.5-8.2-23.1-16.4-35-24.8-6.1 4.4-11.7 8.6-17.4 12.6-5.7 4-11 8.8-19.5 12.9 5-15.6 9.2-28.8 13.6-42.6-6-4.4-11.7-8.3-17.2-12.6-5.5-4.3-11.9-7.6-16.5-12.9.3-.7.5-1.4.8-2.1h41.8c3.4-10.4 6.6-19.8 9.6-29.3.6-1.9.8-3.8 1.1-5.7-38.2-18.4-282.2-52.2-318.3-44.2-1.9 12.8-1.3 1081.2.6 1088.3 10.1 2 1184.6 1.6 1193.3-.6 10.5-116.6-3.2-230.5-40.7-343.2-11 8-20.9 15.2-30.7 22.3 3.3 14.4 9.4 27.1 12.1 40.8l-1.8.9c-11.3-8.1-22.6-16.1-33.9-24.2-12.4 7.8-23 17.3-35.7 23.7 2.5-10.8 5.7-20.9 8.9-30.9 3.2-10.1 3.2-10.1-5.2-16.2-8.6-6-17.1-12.2-25.6-18.3zM904 1757.1c-111.1 55.5-220.6 110.3-330.8 165.4 2.2 1.9 3.3 3.2 4.7 3.9 6 3 8.5 7.6 8.7 14.4.2 7.6 1.6 15.2 2.3 22.9 4.4 46 .5 91.1-13.9 135.2-19 58-51.1 108.2-91.7 153.2-55.3 61.4-121.2 108.9-194.5 146.6-3.5 1.8-7 3.7-10.6 5.6 0 21.7-.1 42.9 0 64.2 3.1.2 4.7.5 6.3.4 35-1.6 69.9-2.9 104.9-4.8 73.9-4 147.3-12.6 220.1-26.4 85.4-16.1 168.3-40.3 248.2-74.8 15.6-6.7 30.8-14.1 46.3-21.2v-584.6zM349.9 556.9c185.1 92.6 369 184.5 553.9 277V200.2c-215 72.2-402 185.6-553.9 356.7zM1424 1533h1086.8c2 0 4-.2 6 0 5.7.6 9-1.8 11.6-7 22.6-45.4 41.6-92.2 56.2-140.8.7-2.3.6-4.9.9-7.3-2-.5-2.9-1-3.9-1-383.5-.1-767.1-.1-1150.6-.1-1.6 0-3.3.4-4.9.6-.3 0-.6.3-.8.5-.3.2-.5.4-1.3 1.2V1533zm.9 314.4h379.2c152 0 303.9 0 455.9.1 6.2 0 11.3-.9 16.4-5.3 50.7-43.6 97.4-90.9 139.5-142.9 1.5-1.9 2.7-4.1 4.2-6.6-17-2.1-987.8-1.2-995.2.7-2 8.1-2.3 142.8 0 154zm-.9 308.3c5 0 8.6.2 12.2 0 34.5-2.6 69.1-4.6 103.5-7.9 60-5.7 119.3-16.4 178-30.1 102.5-23.9 201.2-58.6 295.9-104.6 3.3-1.6 6.6-3.5 11.7-6.3-36.1-2.4-592.7-1.3-601.4 1.2.1 48.6.1 97.5.1 147.7zm-922.6-286.1c118.7-59.3 237-118.5 355.3-177.7-2-1.6-3.5-1.8-5.1-1.8-111.3 0-222.6 0-333.9.2-4.8 0-9.9 1.5-14.2 3.6-39.1 19.3-78.1 38.9-117.1 58.4-2.6 1.3-5.2 2.8-7.8 4.3 12.2 18.1 95.5 94.9 122.8 113zM158 900.7h346.4c.2-.5.4-.9.6-1.4-95.8-47.9-191.7-95.8-288.4-144.2-24.1 47-43.2 94.6-58.6 145.6z"/><path fill="#bb3f47" d="M1319 2154.8c-12.1 0-23.7.7-35.2-.1-27.9-2-55.8-4.6-83.6-7.1-4.6-.4-9.3-.9-13.9-1.8-6.8-1.3-11.8.6-16.9 5.6-29.7 29.8-61.4 57.3-94.6 83.1-2.9 2.2-5.9 4.4-8.9 6.5-.4.3-1.2.1-3 .2v-709.4c-5.6-.2-10.1-.5-14.7-.5h-494c-108.3 0-216.7-.1-325 .2-9.1 0-13.5-2.8-17.4-10.8-38.3-78-65-159.6-79-245.4-9.1-55.7-12.2-111.9-10-168.4.6-15.2 2.2-30.4 3.4-46.7h933.4c1.4-1.2 1.7-1.3 1.9-1.6.2-.2.4-.5.5-.8.1-.3.3-.6.3-.9.1-.3.1-.7.2-1 0-.3.1-.7.1-1v-1-2-2-885-1c0-.7.1-1.3.2-2 0-.3.1-.7.2-1 .1-.3.3-.6 1.2-2.5 83.1-17.5 168.1-27.1 254.6-30.2.2 676 .2 1350.9.2 2026.6z"/><path fill="#1a305c" d="M2465.2 871.8l25.5 18.6c8.4 6.1 8.4 6.1 5.2 16.2s-6.4 20.2-8.9 30.9c12.7-6.4 23.2-15.9 35.7-23.7 11.3 8.1 22.6 16.1 33.9 24.2l1.8-.9c-2.7-13.6-8.8-26.4-12.1-40.8 9.8-7.1 19.7-14.3 30.7-22.3 37.4 112.7 51.2 226.6 40.7 343.2-8.8 2.2-1183.2 2.6-1193.3.6-1.9-7-2.5-1075.4-.6-1088.3 36.1-8 280.2 25.8 318.3 44.2-.4 1.8-.6 3.8-1.1 5.7-3 9.5-6.2 18.9-9.6 29.3h-41.8c-.3.7-.5 1.4-.8 2.1 4.6 5.3 11 8.6 16.5 12.9 5.5 4.3 11.2 8.2 17.2 12.6-4.4 13.8-8.6 27-13.6 42.6 8.5-4.1 13.8-8.9 19.5-12.9 5.7-4 11.3-8.1 17.4-12.6 11.9 8.4 23.4 16.6 35 24.8.5-.4 1-.7 1.6-1.1-4.2-13.5-8.5-27-12.8-40.8 11.7-8.7 22.8-16.9 33.9-25.1l-.6-1.8c-3.2-.2-6.3-.5-9.5-.5-9-.1-18-.1-27 0-3.7 0-6.4-.9-7.6-4.8-2.8-9.2-5.8-18.3-8.8-27.6 22.5-1.1 192.6 57.7 225.4 77.8-2.2 7.4-4.4 15-6.7 22.5.4.5.8.9 1.3 1.4 5.2-3.6 10.8-6.8 15.5-10.9 5.6-4.9 10.5-5 17-1.6 29.1 15.5 58.4 30.6 87.6 46 2.8 1.5 5.4 3.4 7.9 6.8-6.7.3-13.4.7-21.8 1.1 2.4 2.5 3.7 4.2 5.3 5.4 8 6 16 12 24.3 17.6 4 2.7 4.9 5.6 3.3 10.1-3 8.5-5.7 17.1-8.4 25.6-1 3-1.8 6.1-1 10.2 11.3-8.1 22.6-16.2 34.5-24.8 11.7 8.3 23.3 16.5 34.8 24.6.5-.3 1.1-.7 1.6-1-3-9.7-5.9-19.4-9.3-30.5 2.3.9 3.4 1.1 4.3 1.7 26.9 19.6 53.8 39.3 80.8 58.9 4 2.9 6.4 5.9 1.7 11.8h-42.6c5.5 7.5 12.2 10.5 17.6 14.8 5.5 4.3 11.2 8.2 17.1 12.6-4.4 13.8-8.5 27-12.7 40.2.5.5 1.1 1 1.6 1.5 5.7-4 11.5-8 17.2-12 5.7-4 11.3-8.1 17.3-12.5 11.9 8.5 23.4 16.6 36.8 26.1-3.6-16.5-10.3-29.7-12.8-44.7 11.5 4.6 74.6 65.3 87.1 83.5-13 1.5-25.4.1-38.1 2 9.8 10 21.8 16.9 32.9 26.3-4.2 13.4-8.4 26.8-12.7 40.3.6.5 1.2.9 1.8 1.4 11.4-8.2 22.8-16.4 34.5-24.8 11.8 8.5 23.1 16.6 35.3 25.3.3-2.7.5-4.3 1-7.5 9.1 12.4 17.9 23.6 25.9 35.4 11.7 17 22.7 34.4 34.3 51.5 2.9 4.3 3.6 8.3 1.7 13.1-2 5.2-3.5 10.5-3.6 17 4.3-2.9 8.5-5.8 12.8-8.6 14.5 14.1 68.1 129.6 73.2 157.6-6.6 2.4-24.4 2.8-36.9.8-4.3-12.8-8.7-26-13.9-41.5-7 14.5-9.3 28.6-15.4 42.3h-41.4c-.2.6-.6 1.5-.9 2.5zm-460.5-398.4c12.1 8.6 23.3 16.6 34.6 24.7l1.8-1.2c-4.3-13.4-8.6-26.9-12.9-40.5 11.7-8.6 22.8-16.9 33.9-25.1l-.6-2.1c-14.1-.2-28.2-.4-42.4-.7-4.7-14-9.1-27.2-14-42-1.7 3.7-2.9 5.7-3.6 7.8-2.7 7.9-5 15.8-7.8 23.7-3.6 10.2-.6 10.9-15.2 10.8-8.3 0-16.6-.1-25 .1-2 0-4 .8-7.6 1.5 12.7 9.3 23.9 17.4 35.2 25.7-4.4 14.2-8.5 27.5-12.7 40.9.6.3 1.2.7 1.8 1 11.3-8 22.5-16.1 34.5-24.6zm-128.6-195.6h-1.8c-4.5 13.3-9 26.7-13.7 40.8-7.4 0-14.3-.2-21.2.1-6.9.3-14.1-1.5-22.2 2 12.1 9 23.2 17.2 34.3 25.4-3.3 14.3-9.6 27.1-12.4 43.1 13-9.3 24.3-17.4 36.1-25.8 11.7 8.3 23.3 16.5 34.8 24.7.5-.4 1-.7 1.6-1.1-4.2-13.5-8.4-26.9-12.7-40.9 6-4.3 11.7-8.3 17.2-12.5 5.6-4.3 11.9-7.7 16.7-12.8-.2-.8-.5-1.5-.7-2.3h-42.2c-5-14.4-9.4-27.5-13.8-40.7zm-425.5-1.3c.6.5 1.2.9 1.9 1.4 11.5-8.2 23-16.5 34.5-24.7 12.1 8.7 23.3 16.7 34.4 24.8.6-.5 1.2-.9 1.8-1.4-4.3-13.5-8.5-26.9-12.8-40.6 11.8-8.6 23-16.8 34.2-25-.2-.7-.3-1.4-.5-2.1-14.4-.3-28.7-.5-42.8-.8-2.6-7.9-4.8-14.5-7-21.1-2.2-6.4-4.4-12.8-6.5-19.2-.6 0-1.2.1-1.8.1-4.5 13.4-9.1 26.8-13.8 41h-42.1c-.3.7-.5 1.4-.8 2.1 11.3 8.3 22.6 16.6 34.1 25-4.5 14.1-8.6 27.3-12.8 40.5zm295.9 112.1h-1.8c-4.5 13.3-9 26.5-13.6 40.3h-21.6l-20.5.3c-.2.7-.4 1.3-.6 2l33.9 25.2c-4.4 14-8.6 27.2-12.8 40.4.6.4 1.1.9 1.7 1.3 11.5-8.1 22.9-16.2 34.7-24.6 11.9 8.4 23.3 16.5 34.7 24.7.5-.4 1.1-.9 1.6-1.3-4.3-13.4-8.6-26.9-12.9-40.4 11.9-8.8 22.9-17 34-25.2-3.8-1.9-7-2.2-10.2-2.3-9-.1-18-.2-26.9 0-4.3.1-6.7-1.7-7.9-5.8-2.6-8.6-5.4-17.1-8.2-25.6-1.1-3.2-2.4-6.1-3.6-9zm-258.7-.7h-1.9c-4.5 13.4-9 26.8-13.5 40.1-14.7 2.3-28.9-.6-44.8 2.1 13.1 9.5 24.3 17.7 35.7 26.1-4.4 14-8.6 27.4-12.8 40.8.6.3 1.2.7 1.8 1 11.5-8.2 23.1-16.4 34.6-24.6 12 8.6 23.2 16.6 34.5 24.6.6-.4 1.2-.9 1.8-1.3-4.3-13.5-8.5-26.9-12.8-40.5 11.7-8.6 22.8-16.7 33.9-24.9l-.9-2.1c-14.1-.3-28.2-.5-42.1-.8-4.8-14.3-9.1-27.4-13.5-40.5zm92.2-1.4c.5.5 1.1 1 1.6 1.6 11.5-8.2 23.1-16.4 34.8-24.8 11.9 8.5 23.1 16.6 34.4 24.7l1.8-1.2c-4.2-13.4-8.5-26.9-12.9-40.7 6-4.4 11.8-8.4 17.2-12.6 5.5-4.3 12-7.4 17.8-14.9h-44c-4.7-14-9-27.1-13.4-40.2l-2.1-.3c-4.5 13.3-9.1 26.5-13.9 40.5-7.4 0-14.4-.3-21.3.1-6.9.3-14.2-1.6-22.3 1.9 9.8 7.2 18.7 13.6 27.5 20 7.5 5.5 7.4 5.5 4.5 14.7-3.1 10.5-6.4 20.8-9.7 31.2zm906 771.1c.5.4 1 .7 1.6 1.1 11.7-8.4 23.4-16.7 35-25 6.6 4.8 12.3 8.9 17.9 12.9 5.5 3.9 11 7.7 16.5 11.5.5-.5 1.1-1 1.6-1.5-4.2-13.2-8.3-26.3-12.6-40 5.9-4.4 11.7-8.3 17-12.6 5.4-4.4 12.4-7.1 17.3-14.9h-43c-5.5-13.8-8.6-27.6-13.9-40.4-.7 0-1.4.1-2.1.1-4.5 13.4-8.9 26.8-13.3 40-14.8 1.4-28.6-.6-43.9 1.5 3.3 2.8 5.2 4.5 7.2 6 7.2 5.3 14.4 10.8 21.8 15.8 4.8 3.1 5.8 6.5 3.7 11.7-1.9 4.6-3.2 9.4-4.7 14.2-2 6.5-4 13.1-6.1 19.6zm-351.9-574.2c12 8.6 23.3 16.7 34.5 24.9l1.8-1.2c-4.2-13.4-8.5-26.9-12.7-40.4 11.2-9.5 23.4-16.5 33.8-25.7-.3-.7-.6-1.3-.8-2h-41.5c-6.3-13.5-8.3-27.7-15.6-42.2-5.1 15.3-9.5 28.4-14.2 42.7h-42.5c9.3 9 18.8 16.2 28.6 23 4 2.7 5.1 5.6 3.4 10.1-2 5.3-3.6 10.7-5.3 16.1-2 6.2-3.9 12.4-5.8 18.7.6.4 1.1.8 1.7 1.2 11.2-8.4 22.5-16.5 34.6-25.2zm-128.3 245.2h-2.2c-4.5 13.4-9 26.8-13.5 40.3-14.7.7-28.5-.3-42.2.6-.2.7-.4 1.4-.5 2.1 11.1 8.2 22.3 16.3 33.8 24.7-4.4 14-8.7 27.5-13 41l1.5 1.2c11.5-8.2 23-16.4 35-24.9 11.7 8.3 23.1 16.4 34.6 24.6.6-.4 1.1-.9 1.7-1.3-4.2-13.5-8.4-26.9-12.6-40.3 11.3-9.2 23.2-16.3 33.5-25.3-.3-.7-.5-1.5-.8-2.2h-41.7c-4.8-14.1-9.2-27.3-13.6-40.5zm-115.7 150.9c-4.7-13.9-9.4-27.6-14-41.2-.6.1-1.2.1-1.8.2-4.5 13.4-9 26.8-13.6 40.3-14.6 1.7-28.7-.9-44.3 1.8 12.8 9.5 24 17.7 35.3 26.1-4.4 14-8.6 27.4-12.8 40.9.6.4 1.1.8 1.7 1.2 11.5-8.3 22.9-16.6 34.6-25 11.9 8.6 23.4 16.8 34.9 25l1.5-1.2c-4.2-13.4-8.5-26.9-12.8-40.6 11-9.4 23.3-16.4 32.9-27.4-13.5-.1-27.1-.1-41.6-.1zm207.7 67.8c.5.4 1.1.7 1.6 1.1 11.5-8.2 23.1-16.4 34.8-24.7 6.1 4.4 11.7 8.6 17.5 12.5 5.7 4 10.9 8.7 19.4 12.8-5-15.7-9.1-28.9-13.4-42.4 11.6-8.6 22.6-16.8 33.7-24.9-.2-.7-.4-1.3-.6-2H2149c-4.8-14.2-9.2-27.5-13.7-40.8-.8 0-1.5-.1-2.3-.1-4.5 13.4-8.9 26.7-13.6 40.9h-41.8c-.2.7-.5 1.4-.7 2.1 11.3 8.3 22.6 16.6 33.8 24.9-4.6 14.3-8.8 27.4-12.9 40.6zm-576.3 111.3c.6-.4 1.2-.7 1.7-1.1-4.2-13.4-8.4-26.8-12.9-40.9 11.5-8.4 22.8-16.7 34.1-25l-.9-2.1h-42c-4.7-14.1-9.3-27.5-13.8-41-.6 0-1.2-.1-1.9-.1-4.6 13.6-9.3 27.3-13.8 40.6-14.8 1.2-28.6-.5-44.6 1.3 13.1 9.7 24.2 17.9 35.7 26.4-4.4 13.9-8.6 27.3-12.8 40.8.5.4 1.1.9 1.6 1.3 11.6-8.4 23.3-16.8 34.8-25.1 12.3 8.7 23.6 16.8 34.8 24.9zm426.8-69.1c-.3.8-.7 1.6-1 2.4 11.3 8.3 22.7 16.6 33.9 24.8-4.6 14.5-8.8 27.6-13 40.8.5.5 1.1.9 1.6 1.4 11.6-8.4 23.3-16.8 34.8-25.1 12.2 8.3 22.9 17 34.4 24.4.6-.5 1.2-1 1.9-1.5-4.2-13.2-8.4-26.3-12.7-39.9 5.9-4.4 11.7-8.3 17.1-12.7 5.4-4.4 12.4-7 17-15h-42.8c-5.7-13.8-8.5-27.6-16-40.2-4.5 13.4-9 26.9-13.6 40.6h-41.6zm-179 27.1c11.7-8.6 22.8-16.7 33.9-24.9-.3-.7-.5-1.4-.8-2.1h-41.8c-4.8-14.1-9.3-27.5-13.8-40.8-.7 0-1.4.1-2.1.1-4.5 13.3-9 26.7-13.6 40.5h-21.5l-20.4.3c-.2.7-.4 1.3-.6 2 11.3 8.4 22.5 16.8 33.6 25.1-4.5 14.2-8.6 27.3-12.8 40.4.6.4 1.2.7 1.9 1.1 11.5-8.2 23.1-16.4 34.7-24.6 11.9 8.6 23.2 16.7 34.4 24.8.6-.4 1.2-.8 1.7-1.3-4.1-13.1-8.3-26.3-12.8-40.6zm258.9-440.2c11.4-8.4 22.5-16.6 33.6-24.7l-.6-2.4c-14-.2-28-.3-41.9-.5-4.8-14.3-9.2-27.4-13.5-40.5-4.6 7.7-7.1 15.5-9.8 23.3-7.3 20.8-1.2 17-24.3 17.4-7.8.1-15.6 0-23.5 0-.2.8-.5 1.5-.7 2.3 11.3 8.4 22.5 16.8 33.7 25.2-4.4 14.1-8.6 27.3-12.7 40.5.5.4 1.1.8 1.6 1.2 11.5-8.2 23.1-16.4 34.8-24.7 11.7 8.4 23 16.5 34.3 24.6.6-.4 1.2-.7 1.8-1.1-4.2-13.1-8.3-26.2-12.8-40.6zm-517.9 220.1c6.1-4.5 11.9-8.3 17.3-12.7 5.4-4.4 12.3-7.1 16.8-14.1-3.7-.2-6.4-.4-9-.4-7.7-.1-15.3 0-23 0-12.4-.1-10.8.9-14.5-10.3-2.2-6.6-4.3-13.3-6.5-19.9-1.2-3.5-2.6-7-4.7-12.7-2.1 5.8-3.5 9.1-4.6 12.5-2.7 8.2-5.6 16.4-8 24.7-1.2 4.3-3.5 5.9-7.9 5.8-9.3-.2-18.6-.1-28 0-2.8 0-5.6.4-8.4.6-.2.6-.4 1.2-.6 1.7 11.4 8.3 22.7 16.7 33.9 24.9-4.5 14.3-8.7 27.7-12.8 41 .6.3 1.2.6 1.8 1 11.5-8.2 23.1-16.5 34.6-24.7 11.9 8.5 23.2 16.5 34.4 24.6l1.8-1.2c-3.9-13.4-8-26.5-12.6-40.8zm269.9 41.7c.7-.4 1.3-.9 2-1.3-4.3-13.5-8.5-26.9-12.8-40.3 11.6-9.2 23.4-16.5 33.8-25.4-.3-.7-.5-1.4-.8-2.1h-41.6c-5.9-13.8-8.4-27.9-15.3-42.8-5.3 15.8-9.7 29.3-14.1 42.4-14.9 1.1-28.7-.5-42.6 3 11.1 8.2 22.2 16.5 33.3 24.7-3.3 14.3-9.5 27.1-12.5 43.2 13.4-9.6 24.7-17.7 36.3-26 11.6 8.5 23 16.5 34.3 24.6zm411.1-176.5c-.3-.9-.5-1.8-.8-2.7h-41.3c-6.2-13.6-8.3-27.7-15.5-42.3-5.2 15.5-9.5 28.7-14.1 42.5-7.5 0-14.5-.2-21.4.1-6.9.3-14.2-1.5-22 1.9 12.1 8.9 23.3 17.1 34.5 25.3-4.5 14.3-8.7 27.5-12.8 40.7.5.4 1.1.8 1.6 1.2 11.5-8.2 23-16.3 34.7-24.7 12 8 22.9 16.9 34.6 24.5.5-.5 1.1-1 1.6-1.5-4.2-13.2-8.3-26.4-12.7-40.2 11.4-8.4 22.5-16.6 33.6-24.8zM1839 827.1c.6.4 1.2.7 1.9 1.1 11.3-8.1 22.6-16.2 34.4-24.6 11.6 8.3 23.1 16.5 34.6 24.8.6-.4 1.1-.9 1.7-1.3-4.2-13.5-8.4-26.9-12.7-40.6 11.7-8.6 22.8-16.7 33.9-24.9-.3-.8-.5-1.6-.8-2.4-8.5 0-17 .1-25.5 0-20.3-.3-15.2 2.9-21.7-15.5-3-8.4-5.5-16.9-9-27.5-2 4.8-3.1 7.1-3.9 9.5-2.8 8.5-5.5 17.1-8.3 25.6-2.6 7.8-2.7 7.9-11.3 7.9-7.7.1-15.3 0-23 0-3.5 0-6.9.3-10.4.5l-.6 2.1c11.1 8.2 22.2 16.3 33.5 24.6-4.5 13.9-8.6 27.3-12.8 40.7zm368.5 262.2c-.3.8-.7 1.6-1 2.4 11.3 8.4 22.5 16.8 33.4 24.9-3.5 14.5-9.5 27.1-12.5 43 13.3-9.5 24.6-17.6 36.3-25.9 6.2 4.4 12 8.7 18 12.8 5.7 4 11 8.7 19.1 12.8-5-15.7-9.2-29.2-13.4-42.7 11.6-9.2 23.3-16.5 33.7-25.3l-.9-2.1h-41.8c-4.8-14.1-9.3-27.5-13.7-40.8-.7.1-1.4.2-2 .2-4.5 13.4-9 26.8-13.6 40.6-14.5.1-28.1.1-41.6.1zm-591.2-505.9c12 8.6 23.3 16.7 34.6 24.7.6-.4 1.2-.8 1.8-1.1-4.2-13.4-8.5-26.9-12.7-40.3 11-9.6 23.4-16.5 33.7-25.8-.3-.6-.5-1.3-.8-1.9H1631c-4.7-14-9.2-27.2-14.5-42.6-2 4.8-3.2 7.1-4 9.5-2.7 8.2-5.3 16.4-8 24.6-2.8 8.3-2.8 8.4-11.9 8.5-9 .1-18 0-26.9.1-2.1 0-4.1.6-7.7 1.2 3.3 2.7 5.2 4.4 7.3 5.9 6.7 4.9 13.5 9.8 20.2 14.7 7.4 5.4 7.4 5.5 4.5 14.7-2.4 7.6-5 15.2-7.4 22.8-.9 3-1.7 6-2.6 8.9.6.4 1.2.7 1.8 1.1 11.2-8.2 22.5-16.4 34.5-25zm681.9 355c.6-.6 1.2-1.2 1.7-1.8-3.7-11.3-7.2-22.7-11.1-34-1.5-4.4-.7-7.4 3.4-10.1 8.3-5.6 16.3-11.6 24.3-17.6 1.6-1.2 2.8-2.9 5.4-5.7h-43.1c-6.1-13.4-8.4-27.9-15.5-42.8-5.2 15.5-9.6 28.7-14 41.9-14.4 2.2-28.6-.8-44.5 2.1 13 9.6 24.2 17.8 35.4 26-4.4 14.1-8.6 27.3-12.7 40.4l1.8 1.2c11.5-8.1 23-16.3 34.6-24.5 11.7 8.7 23 16.8 34.3 24.9zm38.2 40.9c-.2.8-.5 1.6-.7 2.5 11.4 8.3 22.8 16.7 33.9 24.8-4.6 14.4-8.8 27.6-12.9 40.8.6.4 1.1.9 1.7 1.3 11.4-8.3 22.9-16.5 34.7-25.1 6.2 4.4 12 8.8 18 12.8 5.8 3.9 10.8 9.1 18.8 12.1-4.7-15-9-28.5-13.3-42.1 6.4-4.7 12-8.7 17.6-12.9 5.4-4 10.8-8.1 16.3-12.2-.2-.8-.5-1.5-.7-2.3h-42.2c-4.8-14.4-9.1-27.5-14.2-42.7-1.9 4.3-3 6.6-3.8 9-2.8 8.5-5.5 17.1-8.3 25.6-2.7 8.1-2.7 8.1-11.1 8.2-11.3.2-22.5.2-33.8.2zm-743.7 27.2c-4.4 14.1-8.5 27.4-12.6 40.8.6.3 1.2.7 1.8 1 11.5-8.2 23.1-16.4 34.5-24.5 12 8.6 23.2 16.6 34.3 24.6.6-.5 1.1-1 1.7-1.4-4.2-13.5-8.4-26.9-12.6-40.4 6.4-4.7 12.1-8.8 17.7-13 5.4-4 10.7-8.1 16-12.2-.3-.7-.6-1.4-.9-2.2h-41.7c-4.8-14.1-9.2-27.3-13.7-40.5-.8.1-1.5.1-2.3.2-4.4 13.4-8.9 26.8-13.3 40-14.9 1.1-28.7-.5-42.7 2.9 11.1 8 22 16.1 33.8 24.7zM1709.5 717c.6.4 1.2.8 1.7 1.1 11.5-8.2 23-16.3 34.5-24.4 12.6 7.7 22.9 17.3 35.7 23.6-2.9-12-6.5-23.4-10.3-34.7-1.5-4.5-.8-7.4 3.2-10.1 8.3-5.6 16.2-11.6 24.3-17.6 1.6-1.2 2.8-2.9 5.8-6.1h-43.6c-6.1-13.7-8.4-27.8-15.5-42.3-5.2 15.6-9.6 28.8-14.2 42.5-7.5 0-14.5-.3-21.4.1-6.9.3-14.1-1.7-21.8 2 12.1 8.9 23.3 17.1 34.3 25.2-4.4 14.4-8.6 27.6-12.7 40.7zM1819 539.1c-.2.9-.4 1.8-.7 2.7 11.2 8.2 22.4 16.4 33.5 24.5-2.4 7.6-4.5 14.3-6.6 20.9-2.1 6.5-4.1 13.1-6.2 19.6.6.4 1.2.9 1.8 1.3 11.4-8.2 22.9-16.5 34.5-24.8 6.3 4.5 11.8 8.8 17.6 12.6 5.8 3.8 10.7 9.4 19.1 12-4.7-14.8-8.9-28.3-13.1-41.7 6.6-4.8 12.3-8.9 17.9-13 5.4-4 10.7-8.1 16-12.1-3.5-1.8-6.1-2-8.8-2.1-8-.1-16 0-24 0-10.2 0-10.2-.1-13.3-9.3-2.7-8.2-5.3-16.5-8.1-24.7-.8-2.3-2-4.4-3.8-8.4-5.1 15.2-9.5 28.3-14.2 42.5H1819zm597.5 247.4c11.5-8.5 22.8-16.8 34.1-25.1-.3-.8-.6-1.5-.9-2.3-8.6 0-17.1.1-25.7 0-19.9-.3-15.1 3-21.6-15.6-2.9-8.4-5.6-16.8-8.9-27.1-1.9 4.2-3 6.2-3.7 8.4-2.7 7.9-5.2 15.8-7.8 23.7-3.8 11.4-2.1 10.7-14.2 10.7-8.7 0-17.3-.1-26 .1-2 0-3.9.8-7.3 1.6 12.6 9.2 23.8 17.4 34.8 25.5-3.5 14.5-9.5 27.3-10.4 41.8 11.3-8.1 22.5-16.2 34-24.5 12 8.1 23 16.9 34.7 24.6.6-.5 1.1-1 1.7-1.5-4.2-13.3-8.4-26.5-12.8-40.3zm-836.6 40.6c.6.4 1.1.9 1.7 1.3 11.5-8.2 23-16.3 34.9-24.8 6 4.3 11.6 8.4 17.2 12.5 5.7 4.1 11.5 8 17.2 12 .5-.5 1.1-1 1.6-1.5-4.2-13.2-8.3-26.4-12.7-40.1 5.9-4.3 11.7-8.2 17.1-12.6 5.4-4.4 12.4-7 17.2-15h-43.2c-4.7-14-9-27.1-13.4-40.2-.7-.1-1.4-.1-2.1-.2-4.5 13.3-9.1 26.6-13.6 40.1-14.4 1.5-28.5-.7-44.7 1.6 10.2 7.5 18.3 13.3 26.3 19.2 10.9 8 9.9 5.5 5.9 18.5-3 9.8-6.3 19.5-9.4 29.2zm627.3-177.8c-.2.9-.4 1.7-.6 2.6 11.2 8.2 22.4 16.4 33.5 24.4-4.5 14.3-8.6 27.4-12.8 40.6l1.8 1.2c11.5-8.2 23-16.3 34.7-24.6 6.3 4.6 11.9 8.7 17.6 12.7 5.7 4 10.9 8.8 19.3 12.7-4.4-13.7-8-25-11.8-36.3-1.5-4.4-.8-7.4 3.3-10.1 8.3-5.6 16.3-11.6 24.3-17.6 1.6-1.2 2.8-2.9 5.7-6.1h-43.6c-6.1-13.7-8.3-27.8-15.4-42.3-5.2 15.5-9.6 28.7-14.3 42.8h-41.7zm-719.9-43c-1.8 4.3-3 6.6-3.8 9.1-3.1 9.1-6.3 18.2-9 27.5-1.4 4.7-3.9 6.3-8.6 6.2-10-.2-20-.1-30 0-2 0-4 .8-7.5 1.5 12.5 9.3 23.7 17.5 34.8 25.8-3.5 14.3-9.5 27.1-12.7 43.2 13.4-9.6 24.7-17.7 36.4-26 11.9 8.1 22.8 16.9 34.5 24.6.5-.5 1.1-.9 1.6-1.4-4.2-13.5-8.4-26.9-12.6-40.4 6.4-4.7 12.2-8.6 17.6-12.9 5.2-4.2 11.7-6.9 16.7-14.5h-43.4c-4.6-14.3-9-27.5-14-42.7zM904 1757.1v584.8c-15.4 7.1-30.7 14.4-46.3 21.2-79.8 34.5-162.8 58.6-248.2 74.8-72.8 13.8-146.2 22.4-220.1 26.4-34.9 1.9-69.9 3.2-104.9 4.8-1.6.1-3.3-.2-6.3-.4-.1-21.3-.1-42.5 0-64.2 3.6-1.9 7.1-3.8 10.6-5.6 73.3-37.7 139.2-85.2 194.5-146.6 40.6-45 72.7-95.2 91.7-153.2 14.4-44.1 18.3-89.2 13.9-135.2-.7-7.6-2.1-15.2-2.3-22.9-.2-6.7-2.7-11.4-8.7-14.4-1.4-.7-2.5-2.1-4.7-3.9 110.3-55.3 219.7-110.1 330.8-165.6zM349.9 556.9c151.8-171.1 338.9-284.5 553.9-356.7v633.7c-184.9-92.5-368.7-184.4-553.9-277z"/><path fill="#bb3f47" d="M1424 1533v-153.8c.8-.8 1.1-1 1.3-1.2.3-.2.5-.5.8-.5 1.6-.3 3.3-.6 4.9-.6 383.5 0 767.1 0 1150.6.1 1 0 1.9.5 3.9 1-.3 2.4-.2 5-.9 7.3-14.6 48.6-33.6 95.4-56.2 140.8-2.6 5.3-5.9 7.6-11.6 7-2-.2-4 0-6 0H1439.2c-4.7-.1-9.3-.1-15.2-.1zM1424.9 1847.4c-2.3-11.2-2-145.9-.1-154 7.4-2 978.2-2.8 995.2-.7-1.6 2.4-2.7 4.7-4.2 6.6-42 52-88.8 99.3-139.5 142.9-5.1 4.4-10.2 5.3-16.4 5.3-152-.1-303.9-.1-455.9-.1H1424.9zM1424 2155.7V2008c8.7-2.5 565.3-3.6 601.4-1.2-5.2 2.8-8.4 4.7-11.7 6.3-94.7 46-193.4 80.7-295.9 104.6-58.7 13.7-118 24.4-178 30.1-34.5 3.3-69 5.4-103.5 7.9-3.7.2-7.3 0-12.3 0zM501.4 1869.6c-27.4-18.1-110.7-94.8-122.7-113 2.6-1.4 5.2-3 7.8-4.3 39-19.5 78-39.1 117.1-58.4 4.3-2.1 9.4-3.6 14.2-3.6 111.3-.2 222.6-.2 333.9-.2 1.5 0 3.1.2 5.1 1.8-118.4 59.2-236.7 118.3-355.4 177.7zM158 900.7c15.4-51 34.5-98.6 58.6-145.6 96.7 48.4 192.6 96.3 288.4 144.2-.2.5-.4.9-.6 1.4H158z"/><path fill="#fff" d="M2004.7 473.4c-11.9 8.5-23.2 16.6-34.5 24.7-.6-.3-1.2-.7-1.8-1 4.2-13.4 8.3-26.7 12.7-40.9-11.3-8.3-22.5-16.5-35.2-25.7 3.7-.8 5.6-1.5 7.6-1.5 8.3-.1 16.6-.1 25-.1 14.6 0 11.6-.6 15.2-10.8 2.8-7.8 5.1-15.8 7.8-23.7.7-2.1 1.9-4.1 3.6-7.8 5 14.8 9.3 27.9 14 42 14.2.2 28.3.4 42.4.7l.6 2.1c-11.1 8.2-22.3 16.5-33.9 25.1 4.3 13.6 8.6 27.1 12.9 40.5l-1.8 1.2c-11.3-8.2-22.6-16.2-34.6-24.8zM1876.1 277.8c4.4 13.1 8.8 26.2 13.6 40.6h42.2c.2.8.5 1.5.7 2.3-4.8 5.1-11.1 8.6-16.7 12.8-5.5 4.2-11.2 8.2-17.2 12.5 4.4 14 8.5 27.5 12.7 40.9-.5.4-1 .7-1.6 1.1-11.5-8.2-23.1-16.4-34.8-24.7-11.8 8.4-23 16.5-36.1 25.8 2.7-15.9 9.1-28.7 12.4-43.1-11.1-8.2-22.2-16.4-34.3-25.4 8.1-3.5 15.3-1.7 22.2-2 6.9-.3 13.9-.1 21.2-.1 4.7-14.1 9.2-27.5 13.7-40.8.8.2 1.4.2 2 .1zM1450.6 276.5c4.2-13.2 8.3-26.4 12.8-40.4-11.5-8.4-22.8-16.7-34.1-25 .3-.7.5-1.4.8-2.1h42.1c4.8-14.2 9.3-27.6 13.8-41 .6 0 1.2-.1 1.8-.1 2.2 6.4 4.4 12.8 6.5 19.2 2.2 6.6 4.4 13.3 7 21.1 14.1.3 28.4.5 42.8.8.2.7.3 1.4.5 2.1-11.2 8.2-22.4 16.4-34.2 25 4.3 13.7 8.6 27.1 12.8 40.6-.6.5-1.2.9-1.8 1.4-11.2-8-22.4-16.1-34.4-24.8-11.5 8.2-23 16.5-34.5 24.7-.7-.5-1.3-1-1.9-1.5zM1746.5 388.6c1.2 2.9 2.5 5.8 3.5 8.8 2.8 8.5 5.7 17 8.2 25.6 1.2 4.2 3.6 5.9 7.9 5.8 9-.1 18-.1 26.9 0 3.2 0 6.4.3 10.2 2.3-11.1 8.2-22.1 16.4-34 25.2 4.3 13.5 8.6 27 12.9 40.4-.5.4-1.1.9-1.6 1.3-11.4-8.1-22.9-16.2-34.7-24.7-11.7 8.3-23.2 16.4-34.7 24.6-.6-.4-1.1-.9-1.7-1.3 4.2-13.2 8.3-26.3 12.8-40.4-11.4-8.4-22.6-16.8-33.9-25.2.2-.7.4-1.3.6-2 6.8-.1 13.7-.3 20.5-.3 6.9-.1 13.9 0 21.6 0 4.7-13.8 9.1-27 13.6-40.3.7.2 1.3.2 1.9.2zM1487.8 387.9c4.4 13.1 8.7 26.2 13.5 40.5 13.9.3 28 .5 42.1.8l.9 2.1c-11.1 8.1-22.2 16.3-33.9 24.9 4.3 13.6 8.6 27.1 12.8 40.5-.6.4-1.2.9-1.8 1.3-11.2-8-22.4-16-34.5-24.6-11.5 8.2-23.1 16.4-34.6 24.6-.6-.3-1.2-.7-1.8-1 4.2-13.4 8.4-26.7 12.8-40.8-11.4-8.4-22.6-16.6-35.7-26.1 16-2.8 30.1.1 44.8-2.1 4.4-13.2 9-26.6 13.5-40.1h1.9zM1580 386.5c3.3-10.4 6.7-20.8 10-31.1 2.9-9.2 2.9-9.2-4.5-14.7-8.8-6.4-17.6-12.9-27.5-20 8.1-3.5 15.3-1.6 22.3-1.9 6.9-.3 13.9-.1 21.3-.1 4.8-13.9 9.3-27.2 13.9-40.5l2.1.3c4.4 13.1 8.7 26.2 13.4 40.2h44c-5.8 7.5-12.4 10.6-17.8 14.9-5.5 4.3-11.2 8.2-17.2 12.6 4.4 13.9 8.6 27.3 12.9 40.7l-1.8 1.2c-11.3-8.1-22.5-16.2-34.4-24.7-11.7 8.3-23.2 16.5-34.8 24.8-.8-.6-1.4-1.1-1.9-1.7zM2486 1157.6c2-6.5 4-13.1 6.1-19.6 1.5-4.8 2.8-9.6 4.7-14.2 2.1-5.2 1.1-8.6-3.7-11.7-7.5-4.9-14.6-10.4-21.8-15.8-2-1.5-3.9-3.2-7.2-6 15.3-2.1 29.1-.1 43.9-1.5 4.4-13.1 8.8-26.6 13.3-40 .7 0 1.4-.1 2.1-.1 5.4 12.8 8.4 26.6 13.9 40.4h43c-4.9 7.8-11.9 10.5-17.3 14.9s-11.1 8.3-17 12.6c4.3 13.6 8.5 26.8 12.6 40-.5.5-1.1 1-1.6 1.5-5.5-3.8-11-7.6-16.5-11.5-5.7-4-11.3-8.1-17.9-12.9-11.6 8.3-23.3 16.6-35 25-.5-.3-1-.7-1.6-1.1zM2134.1 583.4c-12.1 8.7-23.4 16.9-34.6 25-.6-.4-1.1-.8-1.7-1.2 1.9-6.2 3.9-12.5 5.8-18.7 1.7-5.4 3.3-10.9 5.3-16.1 1.7-4.5.6-7.3-3.4-10.1-9.8-6.8-19.3-14-28.6-23h42.5c4.8-14.3 9.1-27.4 14.2-42.7 7.3 14.5 9.4 28.7 15.6 42.2h41.5c.3.7.6 1.3.8 2-10.4 9.2-22.7 16.2-33.8 25.7 4.3 13.5 8.5 26.9 12.7 40.4l-1.8 1.2c-11.2-8-22.5-16.1-34.5-24.7zM2005.8 828.6l13.5 40.5h41.7c.3.7.5 1.5.8 2.2-10.3 9-22.2 16-33.5 25.3 4.2 13.3 8.4 26.8 12.6 40.3-.6.4-1.1.9-1.7 1.3-11.5-8.1-22.9-16.3-34.6-24.6-11.9 8.5-23.5 16.7-35 24.9l-1.5-1.2c4.3-13.5 8.5-26.9 13-41-11.5-8.4-22.7-16.6-33.8-24.7.2-.7.4-1.4.5-2.1 13.7-.9 27.5.1 42.2-.6 4.5-13.4 9-26.9 13.5-40.3.8.1 1.5.1 2.3 0zM1890.1 979.5h41.7c-9.6 11-22 18-32.9 27.4 4.3 13.7 8.5 27.1 12.8 40.6l-1.5 1.2c-11.5-8.2-23-16.4-34.9-25-11.7 8.4-23.2 16.7-34.6 25-.6-.4-1.1-.8-1.7-1.2 4.2-13.4 8.4-26.9 12.8-40.9-11.3-8.4-22.5-16.6-35.3-26.1 15.6-2.7 29.7-.1 44.3-1.8 4.5-13.4 9-26.8 13.6-40.3.6-.1 1.2-.1 1.8-.2 4.5 13.7 9.2 27.4 13.9 41.3zM2097.8 1047.3c4.2-13.2 8.3-26.4 12.8-40.7-11.2-8.2-22.5-16.6-33.8-24.9.2-.7.5-1.4.7-2.1h41.8c4.7-14.2 9.2-27.5 13.6-40.9.8 0 1.5.1 2.3.1 4.5 13.3 8.9 26.6 13.7 40.8h41.8c.2.7.4 1.3.6 2-11.1 8.2-22.1 16.4-33.7 24.9 4.3 13.5 8.4 26.8 13.4 42.4-8.4-4.1-13.7-8.9-19.4-12.8-5.7-4-11.3-8.1-17.5-12.5-11.8 8.3-23.3 16.5-34.8 24.7-.4-.2-1-.6-1.5-1zM1521.5 1158.6c-11.2-8.1-22.5-16.2-34.6-25-11.6 8.3-23.2 16.7-34.8 25.1-.5-.4-1.1-.9-1.6-1.3 4.2-13.4 8.5-26.9 12.8-40.8-11.5-8.5-22.6-16.7-35.7-26.4 16-1.9 29.8-.2 44.6-1.3 4.5-13.3 9.1-27 13.8-40.6.6 0 1.2.1 1.9.1 4.5 13.4 9 26.9 13.8 41h42l.9 2.1c-11.3 8.3-22.6 16.6-34.1 25 4.4 14 8.6 27.5 12.9 40.9-.7.5-1.3.9-1.9 1.2zM1948.3 1089.5h41.6c4.6-13.7 9.1-27.1 13.6-40.6 7.5 12.6 10.3 26.3 16 40.2h42.8c-4.6 8-11.7 10.6-17 15-5.4 4.4-11.1 8.3-17.1 12.7 4.3 13.6 8.5 26.7 12.7 39.9-.6.5-1.2 1-1.9 1.5-11.5-7.4-22.1-16.1-34.4-24.4-11.5 8.3-23.2 16.7-34.8 25.1-.5-.5-1.1-.9-1.6-1.4 4.2-13.2 8.4-26.4 13-40.8-11.2-8.2-22.5-16.5-33.9-24.8.3-.9.7-1.7 1-2.4zM1769.3 1116.6c4.5 14.3 8.6 27.5 12.8 40.7-.6.4-1.2.8-1.7 1.3-11.2-8.1-22.5-16.2-34.4-24.8-11.6 8.2-23.1 16.4-34.7 24.6-.6-.4-1.2-.7-1.9-1.1 4.2-13.1 8.3-26.3 12.8-40.4-11.1-8.3-22.4-16.7-33.6-25.1.2-.7.4-1.3.6-2 6.8-.1 13.6-.3 20.4-.3 7-.1 13.9 0 21.5 0 4.6-13.8 9.1-27.1 13.6-40.5.7 0 1.4-.1 2.1-.1 4.5 13.3 9 26.7 13.8 40.8h41.8c.3.7.5 1.4.8 2.1-11.1 8.1-22.2 16.2-33.9 24.8zM2028.2 676.4c4.5 14.4 8.6 27.5 12.7 40.6-.6.4-1.2.7-1.8 1.1-11.3-8.1-22.6-16.2-34.3-24.6-11.7 8.3-23.3 16.5-34.8 24.7-.5-.4-1.1-.8-1.6-1.2 4.1-13.2 8.3-26.4 12.7-40.5-11.2-8.4-22.5-16.8-33.7-25.2.2-.8.5-1.5.7-2.3 7.8 0 15.6.1 23.5 0 23.1-.4 17 3.4 24.3-17.4 2.7-7.7 5.2-15.6 9.8-23.3 4.4 13.1 8.8 26.2 13.5 40.5 13.9.2 27.9.3 41.9.5l.6 2.4c-11 8.1-22.1 16.3-33.5 24.7zM1510.3 896.5c4.5 14.3 8.7 27.5 12.9 40.6l-1.8 1.2c-11.3-8-22.5-16.1-34.4-24.6-11.6 8.3-23.1 16.5-34.6 24.7-.6-.3-1.2-.6-1.8-1 4.2-13.3 8.3-26.6 12.8-41-11.2-8.2-22.5-16.5-33.9-24.9.2-.6.4-1.2.6-1.7 2.8-.2 5.6-.6 8.4-.6 9.3-.1 18.6-.2 28 0 4.3.1 6.6-1.5 7.9-5.8 2.4-8.3 5.2-16.5 8-24.7 1.1-3.4 2.5-6.7 4.6-12.5 2.1 5.7 3.5 9.2 4.7 12.7 2.2 6.6 4.3 13.3 6.5 19.9 3.7 11.2 2.1 10.2 14.5 10.3h23c2.6 0 5.2.2 9 .4-4.5 7-11.4 9.7-16.8 14.1-5.6 4.5-11.4 8.4-17.6 12.9zM1780.2 938.2c-11.3-8.1-22.6-16.2-34.4-24.6-11.6 8.3-22.9 16.4-36.3 26 3-16.1 9.2-28.9 12.5-43.2-11.1-8.2-22.2-16.4-33.3-24.7 13.9-3.5 27.7-1.8 42.6-3 4.4-13.2 8.8-26.6 14.1-42.4 6.9 14.9 9.5 29 15.3 42.8h41.6c.3.7.5 1.4.8 2.1-10.4 8.9-22.1 16.1-33.8 25.4 4.2 13.4 8.5 26.8 12.8 40.3-.6.5-1.3.9-1.9 1.3zM2191.3 761.7c-11.1 8.2-22.2 16.4-33.6 24.8 4.4 13.8 8.5 27 12.7 40.2-.5.5-1.1 1-1.6 1.5-11.7-7.6-22.6-16.5-34.6-24.5-11.7 8.4-23.2 16.5-34.7 24.7-.5-.4-1.1-.8-1.6-1.2 4.2-13.2 8.3-26.4 12.8-40.7-11.2-8.2-22.4-16.4-34.5-25.3 7.8-3.5 15.1-1.6 22-1.9 6.9-.3 13.9-.1 21.4-.1 4.6-13.8 9-26.9 14.1-42.5 7.2 14.6 9.3 28.7 15.5 42.3h41.3c.2.9.5 1.8.8 2.7zM1839 827.1c4.2-13.4 8.3-26.8 12.7-40.7-11.3-8.3-22.4-16.5-33.5-24.6l.6-2.1c3.5-.2 6.9-.5 10.4-.5 7.7-.1 15.3 0 23 0 8.6-.1 8.7-.1 11.3-7.9 2.8-8.5 5.5-17.1 8.3-25.6.8-2.4 1.9-4.7 3.9-9.5 3.5 10.7 6.1 19.2 9 27.5 6.5 18.4 1.5 15.2 21.7 15.5 8.5.1 17 0 25.5 0 .3.8.5 1.6.8 2.4-11.1 8.1-22.2 16.3-33.9 24.9 4.3 13.7 8.5 27.2 12.7 40.6-.6.4-1.1.9-1.7 1.3-11.5-8.2-22.9-16.4-34.6-24.8-11.8 8.5-23.1 16.5-34.4 24.6-.6-.4-1.2-.7-1.8-1.1zM2207.5 1089.3h41.4c4.6-13.8 9.1-27.2 13.6-40.6.7-.1 1.4-.2 2-.2 4.5 13.3 9 26.7 13.7 40.8h41.8l.9 2.1c-10.4 8.8-22.1 16.1-33.7 25.3 4.2 13.4 8.5 26.9 13.4 42.7-8-4.1-13.3-8.8-19.1-12.8-6-4.2-11.9-8.4-18-12.8-11.7 8.4-23 16.4-36.3 25.9 3-15.9 9-28.5 12.5-43-10.9-8.1-22.1-16.5-33.4-24.9.5-.9.8-1.7 1.2-2.5zM1616.3 583.4c-12 8.6-23.2 16.8-34.5 24.9-.6-.4-1.2-.7-1.8-1.1.9-3 1.6-6 2.6-8.9 2.4-7.6 4.9-15.2 7.4-22.8 3-9.2 3-9.2-4.5-14.7-6.7-4.9-13.5-9.7-20.2-14.7-2.1-1.5-4-3.2-7.3-5.9 3.6-.6 5.6-1.2 7.7-1.2 9-.1 18 0 26.9-.1 9.1-.1 9.1-.1 11.9-8.5 2.7-8.2 5.3-16.4 8-24.6.8-2.4 2-4.7 4-9.5 5.2 15.5 9.7 28.7 14.5 42.6h41.9c.3.6.5 1.3.8 1.9-10.3 9.3-22.7 16.2-33.7 25.8 4.2 13.4 8.5 26.8 12.7 40.3-.6.4-1.2.8-1.8 1.1-11.3-7.9-22.6-16-34.6-24.6zM2298.2 938.4c-11.3-8.1-22.5-16.2-34.4-24.8-11.6 8.2-23.1 16.4-34.6 24.5l-1.8-1.2c4.1-13.2 8.3-26.3 12.7-40.4-11.2-8.2-22.3-16.4-35.4-26 15.8-2.9 30 .1 44.5-2.1 4.4-13.2 8.8-26.4 14-41.9 7.1 14.9 9.4 29.3 15.5 42.8h43.1c-2.6 2.8-3.8 4.5-5.4 5.7-8 6-16 12-24.3 17.6-4.1 2.7-4.9 5.7-3.4 10.1 3.8 11.3 7.4 22.6 11.1 34-.5.5-1.1 1.1-1.6 1.7zM2336.4 979.3c11.3 0 22.5.1 33.8 0 8.3-.1 8.4-.1 11.1-8.2 2.8-8.5 5.5-17.1 8.3-25.6.8-2.4 2-4.6 3.8-9 5 15.2 9.4 28.3 14.2 42.7h42.2c.2.8.5 1.5.7 2.3-5.4 4.1-10.8 8.2-16.3 12.2-5.6 4.1-11.3 8.2-17.6 12.9 4.3 13.6 8.5 27 13.3 42.1-8-3-13.1-8.1-18.8-12.1-6-4.1-11.9-8.4-18-12.8-11.8 8.5-23.3 16.8-34.7 25.1-.6-.4-1.1-.9-1.7-1.3 4.2-13.2 8.4-26.3 12.9-40.8-11.1-8.1-22.5-16.5-33.9-24.8.2-1.1.5-1.9.7-2.7zM1592.7 1006.5c-11.8-8.7-22.7-16.7-33.6-24.8 14-3.3 27.8-1.8 42.7-2.9 4.4-13.2 8.8-26.6 13.3-40 .8-.1 1.5-.1 2.3-.2 4.5 13.2 8.9 26.4 13.7 40.5h41.7c.3.7.6 1.4.9 2.2-5.3 4.1-10.6 8.2-16 12.2-5.6 4.2-11.3 8.3-17.7 13 4.2 13.4 8.4 26.9 12.6 40.4-.6.5-1.1 1-1.7 1.4-11.2-8-22.3-16-34.3-24.6-11.4 8.1-23 16.3-34.5 24.5-.6-.3-1.2-.7-1.8-1 3.9-13.2 8-26.5 12.4-40.7zM1709.5 717c4.1-13.2 8.3-26.3 12.8-40.7-11.1-8.1-22.2-16.3-34.3-25.2 7.7-3.7 14.9-1.7 21.8-2 6.9-.3 13.9-.1 21.4-.1 4.6-13.8 9-27 14.2-42.5 7.1 14.5 9.4 28.6 15.5 42.3h43.6c-3 3.2-4.2 4.9-5.8 6.1-8 6-16 12-24.3 17.6-4.1 2.8-4.8 5.7-3.2 10.1 3.9 11.3 7.4 22.6 10.3 34.7-12.8-6.3-23.1-15.9-35.7-23.6-11.4 8.1-23 16.3-34.5 24.4-.7-.3-1.3-.7-1.8-1.1zM1819 539.1h41.6c4.7-14.2 9.1-27.4 14.2-42.5 1.8 4 3 6.1 3.8 8.4 2.8 8.2 5.4 16.4 8.1 24.7 3 9.3 3.1 9.3 13.3 9.3h24c2.6 0 5.2.3 8.8 2.1-5.3 4-10.6 8.1-16 12.1-5.6 4.2-11.3 8.2-17.9 13 4.2 13.4 8.4 26.9 13.1 41.7-8.4-2.6-13.2-8.2-19.1-12-5.8-3.8-11.4-8.1-17.6-12.6-11.6 8.4-23.1 16.6-34.5 24.8-.6-.4-1.2-.9-1.8-1.3 2.1-6.5 4.1-13.1 6.2-19.6 2.1-6.6 4.2-13.3 6.6-20.9-11.1-8.1-22.3-16.3-33.5-24.5.2-.9.4-1.8.7-2.7zM2416.5 786.5c4.4 13.8 8.6 27 12.8 40.2-.6.5-1.1 1-1.7 1.5-11.7-7.7-22.6-16.5-34.7-24.6-11.5 8.3-22.8 16.4-34 24.5.9-14.5 6.9-27.3 10.4-41.8-11-8-22.2-16.3-34.8-25.5 3.4-.8 5.3-1.6 7.3-1.6 8.7-.1 17.3 0 26-.1 12.1 0 10.4.7 14.2-10.7 2.6-7.9 5.1-15.8 7.8-23.7.7-2.1 1.8-4.2 3.7-8.4 3.4 10.3 6 18.8 8.9 27.1 6.5 18.6 1.7 15.3 21.6 15.6 8.6.1 17.1 0 25.7 0 .3.8.6 1.5.9 2.3-11.3 8.4-22.6 16.7-34.1 25.2zM1579.9 827.1c3.1-9.7 6.4-19.3 9.4-29.1 4-13 5-10.5-5.9-18.5-8-5.9-16.1-11.8-26.3-19.2 16.2-2.3 30.2-.1 44.7-1.6 4.6-13.5 9.1-26.8 13.6-40.1.7.1 1.4.1 2.1.2 4.4 13.1 8.7 26.2 13.4 40.2h43.2c-4.8 7.9-11.8 10.5-17.2 15-5.4 4.4-11.1 8.3-17.1 12.6 4.3 13.7 8.5 26.9 12.7 40.1-.5.5-1.1 1-1.6 1.5-5.7-4-11.5-8-17.2-12-5.7-4-11.3-8.1-17.2-12.5-11.9 8.5-23.4 16.6-34.9 24.8-.6-.6-1.2-1-1.7-1.4zM2207.2 649.3h41.7c4.7-14.1 9.1-27.3 14.3-42.8 7.1 14.5 9.3 28.6 15.4 42.3h43.6c-3 3.2-4.2 4.9-5.7 6.1-8 6-16 12-24.3 17.6-4.1 2.8-4.8 5.7-3.3 10.1 3.8 11.3 7.4 22.6 11.8 36.3-8.4-3.9-13.6-8.7-19.3-12.7-5.7-4-11.3-8.1-17.6-12.7-11.7 8.3-23.2 16.4-34.7 24.6l-1.8-1.2c4.1-13.2 8.3-26.3 12.8-40.6-11.1-8.1-22.3-16.3-33.5-24.4.2-.9.4-1.7.6-2.6zM1487.3 606.3c5 15.2 9.4 28.4 14.1 42.6h43.4c-5 7.6-11.5 10.3-16.7 14.5-5.4 4.4-11.2 8.3-17.6 12.9 4.2 13.5 8.4 27 12.6 40.4-.5.5-1.1.9-1.6 1.4-11.7-7.7-22.7-16.5-34.5-24.6-11.7 8.4-23 16.4-36.4 26 3.2-16.1 9.2-28.9 12.7-43.2-11.1-8.2-22.3-16.5-34.8-25.8 3.5-.7 5.5-1.5 7.5-1.5 10-.1 20-.2 30 0 4.7.1 7.2-1.5 8.6-6.2 2.7-9.3 5.9-18.4 9-27.5.7-2.3 1.8-4.6 3.7-9z"/></svg>
