<svg xmlns="http://www.w3.org/2000/svg" xmlns:xlink="http://www.w3.org/1999/xlink" viewBox="0 0 100.25 82.95"><defs><radialGradient id="a" cx="40" cy="42.95" r="42.54" gradientTransform="matrix(.94 0 0 .94 2.43 2.53)" gradientUnits="userSpaceOnUse"><stop offset=".61"/><stop offset=".93" stop-opacity="0"/></radialGradient><radialGradient id="b" cx="49.29" cy="40" r="41.47" gradientTransform="matrix(.96 0 0 .97 1.79 1.38)" xlink:href="#a"/><radialGradient id="c" cx="60.25" cy="40.64" r="44.78" gradientTransform="matrix(.89 0 0 .89 6.47 4.3)" xlink:href="#a"/></defs><path d="M2.41 29.24a40 40 0 1 1 23.94 51.27A39.93 39.93 0 0 1 2.41 29.24z" fill="url(#a)" opacity=".8"/><ellipse cx="40" cy="42.95" rx="34.11" ry="34.19" transform="rotate(-70 40.002 42.95)" fill="#ff3a39"/><path d="M11.7 26.29a40 40 0 1 1 23.94 51.28A39.93 39.93 0 0 1 11.7 26.29z" fill="url(#b)" opacity=".8"/><ellipse cx="49.29" cy="40" rx="34.11" ry="34.19" transform="rotate(-70 49.29 40.005)" fill="#ff3a39"/><path d="M22.66 26.93A40 40 0 1 1 46.6 78.2a39.93 39.93 0 0 1-23.94-51.27z" fill="url(#c)" opacity=".8"/><ellipse cx="60.25" cy="40.64" rx="34.11" ry="34.19" transform="rotate(-70 60.255 40.637)" fill="#ff3a39"/><path d="M68.42 48.15A5.13 5.13 0 0 0 66 44.79a14.25 14.25 0 0 0-5.85-1.53q-5.47-.38-8.38-2.35A9.21 9.21 0 0 1 48 35.08a9.46 9.46 0 0 1 .8-7 10 10 0 0 1 5.6-4.45l-1.21-5.25 3.57-.82L58 22.84a9.48 9.48 0 0 1 7 1.93q2.89 2.31 4 7.23l-4.41 1a8.58 8.58 0 0 0-2.85-5 5.42 5.42 0 0 0-4.8-1 6.15 6.15 0 0 0-4 2.48 5.65 5.65 0 0 0-.55 4.52 5.15 5.15 0 0 0 2.5 3.54A15.09 15.09 0 0 0 60.75 39a22.72 22.72 0 0 1 6.31 1.3 9.44 9.44 0 0 1 3.79 2.63 9.85 9.85 0 0 1 2 4.21 9.13 9.13 0 0 1-.93 7.08 11.08 11.08 0 0 1-6.15 4.5l1.06 4.58-3.55.82-1.06-4.58A10.6 10.6 0 0 1 54.5 58a11 11 0 0 1-4.27-7l4.4-1a7.24 7.24 0 0 0 3 4.72 6.78 6.78 0 0 0 5.38.65 7.64 7.64 0 0 0 4.59-2.65 5.24 5.24 0 0 0 .82-4.57z" fill="#fff"/></svg>