<svg xmlns="http://www.w3.org/2000/svg" viewBox="0 0 38.9 34.9"><path d="M31.94.5H7C.62.45.5 5.67.5 5.67v23.7s.1 4.35 5.48 5h26.93c5.39-.67 5.48-5 5.48-5V5.67S38.28.45 31.94.5z" fill="#fff" stroke="#fff"/><path d="M17 .5l-4.6 6.73s4.52-3.34 7.72-2.84c0 0 1.95.22 5.67 2.7l5 3.12a37.91 37.91 0 0 0-15.46 1S2.84 14.84.5 27.55V5.67S.62.45 7 .5h10zM38.4 5.67S38.28.45 31.94.5h-9.78l16.26 9.85z" fill="#f6921e"/><path d="M23.39 28.81a4.06 4.06 0 1 1 4.06-4.06 4.06 4.06 0 0 1-4.06 4.06m-9.62-12.4c-10.37 7.47-7.45 18-7.45 18h26.59c5.39-.67 5.48-5 5.48-5v-15s-14.26-5.43-24.62 2" fill="#224099"/></svg>