<svg xmlns="http://www.w3.org/2000/svg" viewBox="0 0 1024 1024"><path d="M0 0h1024v1024H0V0z" fill="#383838"/><path d="M0 1024h1024V549l-695.85 76.33L289 479 0 569v455z" fill="#54c0f4"/><path d="M1024 461.75c-.22-1.25-.45-2.49-.67-3.75q-2.23-11.11-4.72-22.51t-5.29-22.49a243.5 243.5 0 0 0-2.22-25.29q-1.67-11.38-3.89-23.06-1.12-5-1.94-10t-1.95-11.12l-2.78-5q-6.12-6.11-17.23-9.73t-22.79-6.39q-6.67-2.21-12.78-3.89a37.47 37.47 0 0 1-8.89-3.33l-8.85-5.58-6.67 9.45a313.3 313.3 0 0 1-28.62 38.07 97.51 97.51 0 0 1-32.51 24.17l-10-1.67a20.55 20.55 0 0 0-6.39.83 36 36 0 0 0-4.72 2l-6.11-.56-4 5.56a129.88 129.88 0 0 0-8.44 11.17 167.09 167.09 0 0 0-6-27 95.63 95.63 0 0 0-12.78-26.12 118.54 118.54 0 0 0-18.76-20.9 209 209 0 0 0-25.84-18.89 170 170 0 0 0-13.62 22q-7 13.06-14.17 28.9T717.2 390q-7 17.51-13.62 35.29-9.46 24.46-18.89 47.51t-19.2 42.74a302.44 302.44 0 0 1-20 35q-10.29 15.29-21.4 23.62l-26.67 20.56a32.64 32.64 0 0 1-5.28-12q-1.39-6.38-2.5-12.5a80.45 80.45 0 0 1-1.11-13.34q0-8.88.28-13.89t1.39-12.23q1.11-7.22 3.89-20t8.33-37.76q1.67-8.34 3.61-17.23t3.61-17.5q1.67-8.61 3.06-15.84t1.94-11.67a65.19 65.19 0 0 0-6.39-11.11l-8.06-11.11q-3.34-4.44-7-9.17t-7.5-10.84a48.81 48.81 0 0 1-17.5-9.45q-8.06-6.67-14.17-12.78-8.89 7.79-19.45 22t-21.67 30.84q-11.12 16.67-22 35t-20.79 34.46Q459 487.44 451 501t-15.56 25A232.77 232.77 0 0 1 419 548q-8.9 10.56-21.67 23.34-9.46 9.46-19.45 17.78a202 202 0 0 1-18 13.88q-9.73 6.67-17.51 8.89 2.77-20.55 5.84-37.79t5.79-29.42q3.33-14.44 6.67-25.56 3.88-13.88 10.56-33.07t13.62-39.73q6.94-20.55 13.34-40.85a358.8 358.8 0 0 0 9.73-37 161.38 161.38 0 0 1-21.12-18.06 190.39 190.39 0 0 1-18.34-22.51 32.55 32.55 0 0 1-7.22-3.61 28.12 28.12 0 0 1-7.22-7q-12.23 2.23-22.78 13.89a153 153 0 0 0-19.73 28.06 266.73 266.73 0 0 0-11.94 24.29q-2.13-5-4.52-9.84a387.61 387.61 0 0 0-20-35.84q-15.56-13.85-37.51-21.62t-49.74-11.11q-2.23 0-2.78 2.5c-.37 1.67-1.48 2.14-3.33 1.39A94.29 94.29 0 0 0 155 306a140.8 140.8 0 0 0-28.06 3.33 126.07 126.07 0 0 0-25.56 8.61 85.69 85.69 0 0 0-19.73 12.23 71.6 71.6 0 0 0-20.56 14.17 138 138 0 0 0-17.78 21.4 172.55 172.55 0 0 0-14.73 26.4q-6.39 14.17-11.39 28.62a39.91 39.91 0 0 1-3.33 16.39q-3.33 7.5-12.23 13.62A7.62 7.62 0 0 1 0 452.06v276.72q6.57-1.76 14.14-3.52A82.9 82.9 0 0 1 37.2 723 122.24 122.24 0 0 0 53 693a202.59 202.59 0 0 0 8.87-33 235.13 235.13 0 0 0 3.61-33.9q.55-17 0-32 32.22-7.22 66.41-13.34A573.14 573.14 0 0 0 198.06 565a337.64 337.64 0 0 0 56-22.53q-4.24 20.52-7.59 38.37-4.17 22.23-5.84 31.68a198.38 198.38 0 0 0 9.45 24.48q5 10.56 11.67 23.9 2.77 4.45 5.56 10t5.56 11.67q11.11 11.67 19.45 17.23a172.69 172.69 0 0 0 21.12 11.67q3.33 1.67 7 3.33t8.06 3.89a149.35 149.35 0 0 0 47-8.34A199.71 199.71 0 0 0 416.81 690 335.18 335.18 0 0 0 454 662.21q17.78-15.28 35-31.4l6.67-6.67 11.67-10.56 7.78-7.22 5.56 10.56 9.45 17.23q2.21 3.9 4.17 7.5t3.61 7.5a503 503 0 0 0 27.23 46.4A87.35 87.35 0 0 0 601.86 727a25.72 25.72 0 0 1 17.78-6.11 65.27 65.27 0 0 1 13.36 1.62 208.71 208.71 0 0 0 49.18-40.85 87.7 87.7 0 0 1 13.28-12.5l8.34 8.34q2.23 2.79 3.33 10a59.62 59.62 0 0 1 1.67 7.5 27.76 27.76 0 0 0 2.78 8.06l3.33 4.45a47 47 0 0 1 9.72 6.39q4.17 3.62 10.84 10.28l7.22.56a39.67 39.67 0 0 0 7-.56q3-.56 10.28-2.22l8.34-1.11 1.67-7.22q2.21-2.21 7.78-4.45 3.88-1.67 8.06-3.89a18.32 18.32 0 0 0 7-6.67l2.22-7.22a57.76 57.76 0 0 1 2.5-16.67q2.5-8.34 5.28-17.23 2.21-5.55 4.17-11.11a77.52 77.52 0 0 0 3.01-11.67 18.59 18.59 0 0 1 2.78-2.22 10 10 0 0 0 2.78-2.78l5.56-5-2.22-6.11c-.37-.74-.28-1.85.28-3.33a9.33 9.33 0 0 1 1.94-3.33l7.22-1.11 2.22-7.22q1.11-3.88 2.5-8.06a65.28 65.28 0 0 1 3.61-8.61 27.78 27.78 0 0 0 4.33 12.74q-2.23 8.34 1.67 13.89t6.67 8.89l2.5 2.5a3.87 3.87 0 0 1 1.39 2.5l1.67 6.11 6.11.56a128.39 128.39 0 0 0 20 1.67 133.27 133.27 0 0 0 26.67-2.5q12.22-2.5 25-5.84 8.88-2.21 17.78-4.17t22.79.83q1.11 17.79-4.45 24.73t-22.23 11.39l-18.34 5L939.34 678c1.48 1.49 2.78 2.87 3.89 4.17a23.86 23.86 0 0 0 3.89 3.61q6.11 5.56 8.06 8.89t.28 7.78l-2.22 8.34 7.22 3.33a35.08 35.08 0 0 1 7.22 4.45 61.24 61.24 0 0 0 6.39 4.45q3.61 2.21 11.39 3.89a70.54 70.54 0 0 0 26.67-6.39 91.68 91.68 0 0 0 11.87-6.49V461.75zM213.34 446a171.67 171.67 0 0 1-17.23 6.39q-8.9 2.79-18.06 5.28a109.83 109.83 0 0 0-17.51 6.39 75.67 75.67 0 0 1-16.12 5.56q-7.79 1.67-15.56 2.78a155.8 155.8 0 0 0-15.56 3.06 76.5 76.5 0 0 0-15.56 5.83 8.45 8.45 0 0 0-4.45-5 8.42 8.42 0 0 1-4.45-5q2.21-5 4.17-8.89t3.61-7.78A77.23 77.23 0 0 0 99.7 446q1.38-4.71 3.61-10.84a66.31 66.31 0 0 1 31.4-16.16 125.52 125.52 0 0 1 36.12-2.5 129.45 129.45 0 0 1 33.62 7q15.55 5.5 23.34 12.77a46.05 46.05 0 0 1-14.45 9.73zm695.51 98.12q-16.67 1.67-36.12 2.78a52.59 52.59 0 0 1-7.5.56 53.86 53.86 0 0 0-7.5.56q7.22-12.22 15-23.34l.56-.56a268 268 0 0 1 21.11-32.82 384.84 384.84 0 0 1 26.67-32.23l2.78-5.56q6.11 21.67 11.39 43.07t9.72 42q-19.45 3.88-36.11 5.54z" fill="#fff"/></svg>
