<svg xmlns="http://www.w3.org/2000/svg" viewBox="0 0 293.99 293.99"><circle cx="146.99" cy="146.99" r="146.99" fill="#f7bad3"/><circle cx="146.99" cy="140.24" r="140.24" fill="#fadce8"/><path d="M271 140.29c-9.33-20.23-10-34.9-12-53.56-3.4-32.19-30.74-48.73-60.62-61.34C183 18.89 164.75 11.62 147 11.62c-15.38 0-30.61 7.1-41.28 15.77-16 13-29.33 21.33-48 26.67C42.79 58.33 43 79.45 37 94.06c-6 14.94-14.62 14.67-10 46.18 3.2 21.62 3 42.43 12.67 60.48 4.19 7.83 11.33 19.78 18.67 24.67 16 10.67 28.67-38 48 23.33 6 18.95 19.38 20.13 40.61 20.13 20.51 0 30.5-13 50.22-12.86 33.16.21 43.28-40.05 54.5-71.61 4.83-13.46 25.71-30.38 19.33-44.09zm-147.11 96.59c-11.11-17.41-18.18-35.61 19.44-17.9l-.46-.21-.27-.13.27.13 1.66.78.17.08-.17-.08-1.2-.57c16.67 7.85 7.99 60.88-19.44 17.9z" fill="#ee5391"/></svg>