<?xml version="1.0" encoding="utf-8"?>
<!-- Generator: Adobe Illustrator 13.0.0, SVG Export Plug-In . SVG Version: 6.00 Build 14948)  -->
<!DOCTYPE svg PUBLIC "-//W3C//DTD SVG 1.1//EN" "http://www.w3.org/Graphics/SVG/1.1/DTD/svg11.dtd" [
	<!ENTITY ns_flows "http://ns.adobe.com/Flows/1.0/">
	<!ENTITY ns_extend "http://ns.adobe.com/Extensibility/1.0/">
	<!ENTITY ns_ai "http://ns.adobe.com/AdobeIllustrator/10.0/">
	<!ENTITY ns_graphs "http://ns.adobe.com/Graphs/1.0/">
	<!ENTITY ns_vars "http://ns.adobe.com/Variables/1.0/">
	<!ENTITY ns_imrep "http://ns.adobe.com/ImageReplacement/1.0/">
	<!ENTITY ns_sfw "http://ns.adobe.com/SaveForWeb/1.0/">
	<!ENTITY ns_custom "http://ns.adobe.com/GenericCustomNamespace/1.0/">
	<!ENTITY ns_adobe_xpath "http://ns.adobe.com/XPath/1.0/">
]>
<svg version="1.1"
	 xmlns:x="&ns_extend;" xmlns:i="&ns_ai;" xmlns:graph="&ns_graphs;" i:viewOrigin="0 255" i:rulerOrigin="0 0" i:pageBounds="0 300 255 0"
	 xmlns="http://www.w3.org/2000/svg" xmlns:xlink="http://www.w3.org/1999/xlink" xmlns:a="http://ns.adobe.com/AdobeSVGViewerExtensions/3.0/"
	 x="0px" y="0px" width="300px" height="255px" viewBox="0 0 300 255" enable-background="new 0 0 300 255" xml:space="preserve">
<g id="Layer_1" i:knockout="Off" i:layer="yes" i:dimmedPercent="50" i:rgbTrio="#4F008000FFFF">
	<g i:knockout="Off">
		<g i:knockout="Off">
			<g i:knockout="Off">
				<path fill="#0066B2" d="M257.137,126.283c0,64.623-53.235,117.808-117.92,117.808c-64.685,0-117.921-53.185-117.921-117.808
					c0-64.62,53.236-117.805,117.921-117.805C203.9,8.478,257.137,61.664,257.137,126.283"/>
				<path fill="#FFFFFF" d="M165.816,188.285c50.239,20.67,41.672-31.59,14.776-71.745c-15.215-22.723-35.063-41.648-47.582-50.783
					c-41.672-30.411-67.088-11.812-37.83,47.83c9.477,19.32,21.65,32.357,31.162,44.649c7.258,9.381,21.403,14.081,16.421,18.533
					c-5.616,5.024-19.211-17.123-19.211-17.123c-10.047-12.106-19.616-25.032-29.479-42.757
					c-22.537-40.504-19.285-81.84,21.501-63.828c34.614,15.286,67.677,58.164,80.974,88.612
					c6.164,14.114,22.759,69.64-30.435,47.204"/>
				<path fill="#EC1C24" d="M9.148,161.208c22.167-14.763,43.177-24.296,78.939-36.105c50.247-16.594,88.072-27.754,134.472-51.079
					c22.595-11.358,55.989-33.35,69.451-54.622c-3.854,7.88-15.565,23.626-20.983,30.411
					c-62.953,78.832-197.059,74.365-260.996,112.217"/>
				<path fill="#FFFFFF" d="M41.3,103.588c20.188,0.158,18.296-0.04,18.532,0.197c0.356,0,16.195,27.28,16.195,27.515
					c0,0.12-0.119-9.691-0.119-21.965c0-1.417-3.899-5.55-3.781-5.55c5.792,0,13.358,0.118,13.358,0.118
					c-2.835,3.307-3.402,3.034-3.427,5.08c-0.082,6.573-0.155,18.718,0,32.36c0.021,2.042,1.535,2.836,4.018,6.375h-18.56
					c-6.03-10.038-17.076-28.868-17.024-28.816c0.086,0.088-0.238,11.811,0.117,21.261c0.119,3.12,1.538,4.133,4.139,6.966
					c0,0,2.995-0.08-14.542,0.118c5.32-2.835,4.614-6.378,4.611-6.495c-0.192-13.051-0.039-24.211-0.039-31.416
					c0-1.181-0.08-1.062-3.744-5.55"/>
				<path fill="#FFFFFF" d="M104.694,123.742c1.7-5.912,3.156-11.198,3.843-14.643c0.121-0.592-1.299-2.716-3.544-4.843l-0.16-0.326
					c10.832,0.033,22.146,0.091,22.146,0.091c2.956,7.204,9.694,27.399,14.777,39.801c1.345,3.279,3.664,3.896,3.664,3.896
					c-9.222-0.118-26.334-0.042-26.242-0.118c4.609-4.13,4.018-4.13,2.008-10.157h-14.422c-2.957,6.853,0.92,10.068,1.417,10.04
					c-3.283,0.17-14.422,0-14.422,0c6.029-4.251,5.675-5.552,5.675-5.552C101.092,136.039,103.013,129.587,104.694,123.742
					l5.913,0.002c-1.271,4.072-2.543,8.147-2.543,8.147h11.469l-6.384-16.298c0,0-1.272,4.075-2.542,8.149L104.694,123.742"/>
				<path fill="#FFFFFF" d="M203.759,124.333c1.701-5.911,3.156-11.197,3.846-14.643c0.117-0.591-1.297-2.718-3.544-4.843
					l-0.159-0.329c10.833,0.034,22.145,0.093,22.145,0.093c2.956,7.204,9.692,27.396,14.776,39.8
					c1.348,3.281,3.668,3.897,3.668,3.897c-9.221-0.115-26.334-0.039-26.244-0.119c4.61-4.134,4.018-4.134,2.008-10.155h-14.423
					c-2.954,6.853,0.922,10.063,1.418,10.037c-3.28,0.169-14.422,0-14.422,0c6.029-4.25,5.675-5.549,5.675-5.549
					C200.158,136.63,202.079,130.176,203.759,124.333l5.914,0.002c-1.27,4.07-2.541,8.147-2.541,8.147h11.465l-6.381-16.297
					c0,0-1.271,4.072-2.544,8.148L203.759,124.333"/>
				<path fill="#FFFFFF" d="M185.145,114.651c-0.237-8.387,0-11.103,0-11.103c-3.662,2.953-1.816,2.578-10.994,1.062
					c-26.482-4.37-28.491,20.312-14.067,25.865c12.083,4.649,16.356,5.561,14.54,9.919c-0.59,1.418-11.585,6.614-22.935-3.895
					l0.235,14.643c1.418-1.461,5.322-4.135,5.322-4.135c0.119,0,12.298,5.368,23.288-0.235c16.906-8.624,8.469-22.573-9.575-28.109
					c-15.014-4.605-0.829-15.353,14.069-3.896"/>
				<path fill="#EC1C24" d="M292.25,19.824c-17.971,53.313-89.964,94.476-150.565,133.784
					c-36.563,23.713-72.859,51.011-97.848,74.238c-6.589,6.126,1.346-2.287-1.18,0.296c34.872-40.154,74.986-64.067,97.15-79.126
					c37.493-25.468,58.813-31.885,123.484-91.463"/>
				<path fill="#FFFFFF" d="M165.816,188.285c50.239,20.67,41.672-31.59,14.776-71.745c-15.215-22.723-33.988-40.745-47.582-50.783
					c-15.88-11.724-17.436-12.695-17.436-12.695c35.464,16.828,67.677,58.164,80.974,88.612
					c6.164,14.114,22.759,69.64-30.435,47.204"/>
				<path fill="#FFFFFF" d="M140.843,19.181c0,0.524-0.435,0.958-0.963,0.958s-0.958-0.434-0.958-0.958
					c0-0.527,0.431-0.96,0.958-0.96C140.408,18.221,140.843,18.655,140.843,19.181"/>
				<path fill="#FFFFFF" d="M147.491,33.721c0,0.648-0.534,1.183-1.183,1.183c-0.647,0-1.182-0.535-1.182-1.183
					c0-0.647,0.534-1.18,1.182-1.18C146.957,32.542,147.491,33.074,147.491,33.721"/>
				<path fill="#FFFFFF" d="M164.782,57.489c0,0.647-0.537,1.181-1.185,1.181c-0.646,0-1.181-0.534-1.181-1.181
					c0-0.648,0.534-1.181,1.181-1.181C164.245,56.309,164.782,56.841,164.782,57.489"/>
				<path fill="#FFFFFF" d="M137.001,41.914c0,0.528-0.435,0.961-0.962,0.961s-0.96-0.434-0.96-0.961
					c0-0.526,0.434-0.958,0.96-0.958C136.566,40.956,137.001,41.388,137.001,41.914"/>
				<path fill="#FFFFFF" d="M147.342,47.377c0,0.526-0.433,0.959-0.958,0.959c-0.527,0-0.961-0.433-0.961-0.959
					c0-0.526,0.434-0.96,0.961-0.96C146.91,46.417,147.342,46.851,147.342,47.377"/>
				<path fill="#FFFFFF" d="M133.896,32.098c0,0.647-0.533,1.18-1.183,1.18c-0.647,0-1.183-0.533-1.183-1.18
					c0-0.647,0.535-1.18,1.183-1.18C133.363,30.918,133.896,31.451,133.896,32.098"/>
				<path fill="#FFFFFF" d="M118.233,41.62c0,0.525-0.434,0.959-0.961,0.959c-0.528,0-0.961-0.434-0.961-0.959
					c0-0.526,0.434-0.959,0.961-0.959C117.798,40.661,118.233,41.095,118.233,41.62"/>
				<path fill="#FFFFFF" d="M121.04,43.539c0,0.525-0.434,0.958-0.959,0.958c-0.528,0-0.962-0.432-0.962-0.958
					c0-0.528,0.434-0.959,0.962-0.959C120.607,42.58,121.04,43.013,121.04,43.539"/>
				<path fill="#FFFFFF" d="M123.849,45.458c0,0.527-0.434,0.959-0.961,0.959c-0.528,0-0.96-0.432-0.96-0.959
					c0-0.528,0.433-0.961,0.96-0.961C123.414,44.497,123.849,44.932,123.849,45.458"/>
				<path fill="#FFFFFF" d="M119.563,49.148c0,0.528-0.434,0.959-0.959,0.959c-0.528,0-0.96-0.432-0.96-0.959
					s0.434-0.959,0.96-0.959C119.128,48.189,119.563,48.622,119.563,49.148"/>
				<path fill="#FFFFFF" d="M97.25,64.796c0,0.525-0.434,0.959-0.96,0.959c-0.526,0-0.959-0.435-0.959-0.959
					c0-0.526,0.434-0.959,0.959-0.959C96.816,63.837,97.25,64.271,97.25,64.796"/>
				<path fill="#FFFFFF" d="M101.389,69.816c0,0.525-0.434,0.958-0.962,0.958c-0.528,0-0.96-0.434-0.96-0.958
					c0-0.525,0.434-0.96,0.96-0.96C100.954,68.856,101.389,69.291,101.389,69.816"/>
				<path fill="#FFFFFF" d="M98.135,150.863c0,0.525-0.432,0.961-0.958,0.961s-0.958-0.436-0.958-0.961
					c0-0.526,0.432-0.959,0.958-0.959S98.135,150.337,98.135,150.863"/>
				<path fill="#FFFFFF" d="M98.728,173.227c0,0.649-0.535,1.182-1.183,1.182c-0.649,0-1.182-0.532-1.182-1.182
					c0-0.647,0.533-1.181,1.182-1.181C98.193,172.046,98.728,172.579,98.728,173.227"/>
				<path fill="#FFFFFF" d="M86.018,184.669c0,0.525-0.434,0.959-0.959,0.959c-0.528,0-0.961-0.434-0.961-0.959
					s0.434-0.959,0.961-0.959C85.584,183.709,86.018,184.144,86.018,184.669"/>
				<path fill="#FFFFFF" d="M70.797,189.321c0,0.645-0.533,1.18-1.18,1.18c-0.649,0-1.184-0.535-1.184-1.18
					c0-0.649,0.535-1.182,1.184-1.182C70.265,188.14,70.797,188.672,70.797,189.321"/>
				<path fill="#FFFFFF" d="M67.696,178.984c0,0.647-0.536,1.18-1.183,1.18c-0.648,0-1.182-0.532-1.182-1.18
					c0-0.645,0.534-1.183,1.182-1.183C67.16,177.802,67.696,178.34,67.696,178.984"/>
				<path fill="#FFFFFF" d="M65.923,185.555c0,0.527-0.434,0.96-0.962,0.96c-0.525,0-0.959-0.433-0.959-0.96
					c0-0.525,0.434-0.958,0.959-0.958C65.487,184.597,65.923,185.029,65.923,185.555"/>
				<path fill="#FFFFFF" d="M54.545,180.093c0,0.526-0.434,0.959-0.961,0.959c-0.529,0-0.96-0.433-0.96-0.959
					s0.432-0.958,0.96-0.958C54.111,179.135,54.545,179.565,54.545,180.093"/>
				<path fill="#FFFFFF" d="M94.294,198.546c0,0.524-0.434,0.958-0.961,0.958c-0.526,0-0.959-0.434-0.959-0.958
					c0-0.526,0.434-0.96,0.959-0.96C93.861,197.585,94.294,198.02,94.294,198.546"/>
				<path fill="#FFFFFF" d="M106.264,189.763c0,0.649-0.534,1.179-1.182,1.179c-0.649,0-1.182-0.529-1.182-1.179
					c0-0.646,0.533-1.183,1.182-1.183C105.73,188.58,106.264,189.115,106.264,189.763"/>
				<path fill="#FFFFFF" d="M107.593,201.054c0,0.528-0.434,0.963-0.961,0.963c-0.526,0-0.959-0.435-0.959-0.963
					c0-0.524,0.434-0.959,0.959-0.959C107.159,200.095,107.593,200.529,107.593,201.054"/>
				<path fill="#FFFFFF" d="M156.803,190.28c0,0.523-0.435,0.957-0.959,0.957c-0.529,0-0.961-0.433-0.961-0.957
					c0-0.531,0.432-0.959,0.961-0.959C156.367,189.321,156.803,189.749,156.803,190.28"/>
				<path fill="#FFFFFF" d="M133.896,198.399c0,0.523-0.435,0.957-0.96,0.957c-0.527,0-0.962-0.433-0.962-0.957
					c0-0.526,0.435-0.962,0.962-0.962C133.462,197.437,133.896,197.872,133.896,198.399"/>
				<path fill="#FFFFFF" d="M195.518,210.063c0,0.525-0.433,0.958-0.96,0.958c-0.525,0-0.96-0.433-0.96-0.958
					c0-0.524,0.435-0.96,0.96-0.96C195.085,209.102,195.518,209.538,195.518,210.063"/>
				<path fill="#FFFFFF" d="M200.543,164.667c0,0.646-0.534,1.18-1.182,1.18c-0.649,0-1.185-0.533-1.185-1.18
					c0-0.648,0.535-1.185,1.185-1.185C200.009,163.482,200.543,164.018,200.543,164.667"/>
				<path fill="#FFFFFF" d="M191.081,171.088c0,0.529-0.431,0.958-0.955,0.958c-0.528,0-0.961-0.429-0.961-0.958
					c0-0.526,0.432-0.961,0.961-0.961C190.649,170.126,191.081,170.562,191.081,171.088"/>
				<path fill="#FFFFFF" d="M200.396,172.933c0,0.649-0.537,1.185-1.184,1.185c-0.647,0-1.186-0.535-1.186-1.185
					c0-0.647,0.538-1.18,1.186-1.18C199.859,171.752,200.396,172.284,200.396,172.933"/>
				<path fill="#FFFFFF" d="M191.081,184.371c0,0.53-0.431,0.961-0.955,0.961c-0.528,0-0.961-0.431-0.961-0.961
					c0-0.522,0.432-0.958,0.961-0.958C190.649,183.413,191.081,183.849,191.081,184.371"/>
				<path fill="#FFFFFF" d="M215.17,158.245c0,0.525-0.432,0.959-0.958,0.959c-0.527,0-0.962-0.434-0.962-0.959
					c0-0.529,0.435-0.959,0.962-0.959C214.738,157.286,215.17,157.716,215.17,158.245"/>
				<path fill="#FFFFFF" d="M217.534,164.075c0,0.647-0.532,1.183-1.18,1.183c-0.649,0-1.185-0.535-1.185-1.183
					c0-0.646,0.535-1.18,1.185-1.18C217.002,162.896,217.534,163.428,217.534,164.075"/>
				<path fill="#FFFFFF" d="M234.088,171.015c0,0.649-0.537,1.179-1.185,1.179s-1.18-0.529-1.18-1.179
					c0-0.646,0.532-1.181,1.18-1.181S234.088,170.367,234.088,171.015"/>
				<path fill="#FFFFFF" d="M217.24,183.341c0,0.526-0.436,0.958-0.962,0.958c-0.525,0-0.96-0.432-0.96-0.958
					c0-0.527,0.435-0.959,0.96-0.959C216.805,182.382,217.24,182.813,217.24,183.341"/>
				<path fill="#FFFFFF" d="M227.879,173.302c0,0.526-0.435,0.959-0.959,0.959c-0.527,0-0.96-0.433-0.96-0.959
					s0.433-0.959,0.96-0.959C227.444,172.342,227.879,172.774,227.879,173.302"/>
				<path fill="#FFFFFF" d="M225.959,188.801c0,0.529-0.436,0.962-0.961,0.962c-0.526,0-0.962-0.433-0.962-0.962
					c0-0.523,0.436-0.959,0.962-0.959C225.523,187.842,225.959,188.277,225.959,188.801"/>
				<path fill="#FFFFFF" d="M230.431,163.042c0,0.81-0.669,1.476-1.48,1.476c-0.813,0-1.477-0.666-1.477-1.476
					c0-0.809,0.664-1.476,1.477-1.476S230.431,162.233,230.431,163.042"/>
				<polyline fill="#FFFFFF" points="228.951,158.537 228.508,162.599 224.481,163.042 228.546,163.482 228.99,167.692 
					229.431,163.482 233.423,162.97 229.394,162.599 228.951,158.537 				"/>
				<path fill="#FFFFFF" d="M220.086,188.729c0,0.809-0.669,1.475-1.48,1.475c-0.809,0-1.477-0.666-1.477-1.475
					c0-0.812,0.668-1.479,1.477-1.479C219.417,187.25,220.086,187.917,220.086,188.729"/>
				<polyline fill="#FFFFFF" points="218.605,184.226 218.166,188.285 214.139,188.729 218.198,189.173 218.642,193.378 
					219.088,189.173 223.079,188.654 219.05,188.285 218.605,184.226 				"/>
				<path fill="#FFFFFF" d="M109.849,66.79c0,0.81-0.669,1.476-1.481,1.476c-0.81,0-1.478-0.667-1.478-1.476
					c0-0.809,0.668-1.476,1.478-1.476C109.18,65.313,109.849,65.98,109.849,66.79"/>
				<polyline fill="#FFFFFF" points="108.368,62.288 107.926,66.347 103.9,66.79 107.961,67.232 108.405,71.44 108.849,67.232 
					112.839,66.716 108.812,66.347 108.368,62.288 				"/>
				<path fill="#FFFFFF" d="M164.818,31.066c0,0.808-0.669,1.476-1.479,1.476c-0.807,0-1.478-0.668-1.478-1.476
					c0-0.81,0.671-1.478,1.478-1.478C164.15,29.587,164.818,30.256,164.818,31.066"/>
				<polyline fill="#FFFFFF" points="163.339,26.563 162.897,30.622 158.872,31.066 162.933,31.507 163.379,35.715 163.821,31.507 
					167.812,30.99 163.785,30.622 163.339,26.563 				"/>
				<path fill="#FFFFFF" d="M98.024,212.35c0,0.811-0.665,1.477-1.476,1.477c-0.812,0-1.477-0.666-1.477-1.477
					s0.665-1.478,1.477-1.478C97.359,210.872,98.024,211.539,98.024,212.35"/>
				<polyline fill="#FFFFFF" points="96.548,207.848 96.104,211.907 92.078,212.35 96.141,212.791 96.585,217 97.027,212.791 
					101.019,212.276 96.99,211.907 96.548,207.848 				"/>
				<path fill="#EC1C24" d="M24.14,151.908c-6.454,3.158-12.235,6.278-17.14,9.324l2.983,1.082c4.29-2.639,9.441-5.396,14.866-7.824
					"/>
				<path fill="#EC1C24" d="M58.212,211.564c-5.898,5.148-11.996,10.645-18.113,16.406l-0.271,4.069
					c5.601-5.769,12.478-11.999,20.419-18.609"/>
			</g>
		</g>
	</g>
</g>
</svg>
