<svg xmlns="http://www.w3.org/2000/svg" viewBox="0 0 159.7 160.7"><path fill="#02aeeb" d="M159.4 80.8v29.5c0 22.5-19.5 46.5-41.7 49.6-10.8 1.5-21.9.5-32.9.3-3.4-.1-5.2-3.1-5.3-6.3-.3-8-.4-16 0-24 .2-4.8 3.5-7.4 8.2-7.8 2.6-.2 5.3-.1 8-.4 8.3-1 13.1-5.9 14.2-14.2 0-.2.1-.3.1-.5.9-13.8.8-21.4-17.6-20.2-4.8.3-9.7.2-14.5 0-7.4-.2-11-3.3-11.1-10.6-.2-21.8-.2-43.6 0-65.5C66.8 4.5 69.9.6 75.6.5c14.6-.1 29.5-2.3 43.8 1.8 21.6 6.1 35.2 20.5 39.5 42.5 1.7 8.7.5 17.9.6 26.9-.1 3.1-.1 6.1-.1 9.1"/><path fill="#343434" d="M50.2 81v65.9c0 11-5.5 14.8-15.8 10.4-20.7-8.9-32.6-24.7-33.8-47.1-1-19.4-.6-39.1 0-58.8.8-21.5 16.2-40.9 36.6-47.7 7.6-2.5 13 1.4 13 9.9.1 22.5 0 45 0 67.4"/></svg>
