<svg xmlns="http://www.w3.org/2000/svg" viewBox="0 0 48 48"><defs><linearGradient x1="11.775" y1="11.69" x2="53.195" y2="53.281" gradientUnits="userSpaceOnUse" id="b"><stop offset="0" stop-opacity=".17"/><stop offset="1" stop-opacity="0"/></linearGradient><filter id="a"><feColorMatrix values="0 0 0 0 0 0 0 0 0 0 0 0 0 0 0 0 0 0 .8 0"/><feOffset dy="1"/><feGaussianBlur stdDeviation="1"/><feComposite in="SourceGraphic"/></filter></defs><path d="M3 24C3 12.402 12.402 3 24 3s21 9.402 21 21-9.402 21-21 21S3 35.598 3 24z" fill="#fff" filter="url(#a)"/><path d="M29.037 13.566l15.378 15.378c.295-1.225.484-2.493.554-3.791l-8.744-8.745-5.618-4.712zm-17.262 2.836l1.571 1.87 1.275 1.276a10.963 10.963 0 0 0-1.623 5.76c0 3.04 1.23 5.793 3.222 7.784L27.787 44.66c7.842-1.428 14.164-7.21 16.37-14.752L31.78 17.53a10.976 10.976 0 0 0-7.786-3.224c-1.201 0-2.357.192-3.438.547l-3.163-3.163z" fill="url(#b)"/><path d="M36.225 16.408l-5.618-4.712-1.57 1.87 5.617 4.713zM18.963 13.56l-1.57-1.87-5.618 4.712 1.571 1.87zm5.648 5.636h-1.833v7.335l5.8 3.49.923-1.51-4.89-2.897zm-.617-4.89c-6.082 0-10.996 4.926-10.996 11.002 0 6.076 4.914 11.002 10.996 11.002 6.082 0 11.008-4.926 11.008-11.002 0-6.076-4.926-11.002-11.008-11.002zM24 33.866a8.559 8.559 0 0 1-8.557-8.558A8.559 8.559 0 0 1 24 16.751a8.559 8.559 0 0 1 8.557 8.557A8.555 8.555 0 0 1 24 33.865z" fill="#4a148c"/></svg>
