<svg xmlns="http://www.w3.org/2000/svg" viewBox="0 0 175.57 129.25"><path d="M171.57 17.73A13.77 13.77 0 0 0 157.84 4H17.73A13.77 13.77 0 0 0 4 17.73v93.79a13.77 13.77 0 0 0 13.73 13.73h134.78c14.41-.16 18.73-3.71 19.06-13.71V17.73z" fill="none" stroke="#f7f5ed" stroke-miterlimit="10" stroke-width="8"/><path d="M157.84 4a13.77 13.77 0 0 1 13.73 13.73v4L152.5 35.34 87.56 80.07 22.62 34.88v90.37h-4.89A13.77 13.77 0 0 1 4 111.52V17.73A13.77 13.77 0 0 1 17.73 4l69.83 51.78z" fill="#e75a4d"/><path d="M22.62 34.88v90.37H152.5V35.34L87.56 80.07z" fill="#e7e4d7"/><path d="M22.62 125.25l64.94-45.18-.3-.21-64.64 44.4v1z" fill="#b8b7ae"/><path d="M152.5 35.34v89.91l-65-45.18z" fill="#b7b6ad"/><path d="M171.57 21.71v89.83c-.33 10-4.65 13.55-19.06 13.71V35.33l19.08-13.63z" fill="#b2392f"/><path d="M17.73 4l69.83 51.77L157.84 4H17.73z" fill="#f7f5ed"/></svg>