<svg xmlns="http://www.w3.org/2000/svg" viewBox="0 0 24 24"><path d="M23 12.45c0 2.54-1.8 5.75-5 6.97v-2.17c3.15-1.83 3.97-6.25 1.55-6.25H18V9h1.9c2.16 0 3.1 1.53 3.1 3.45zm-5 9.98V24H2v-1.57c.66 0 1-.54 1-1.2V8.4c-1.18-.56-2-1.75-2-3.14C1 3 3.08 1.4 5.24 1.76 6.3.82 7.74.54 9.04.96 9.83.32 10.63 0 11.6 0c1.5 0 2.97.76 3.73 1.83 1.85.1 3.32 1.64 3.32 3.52 0 1.34-.56 2.5-1.67 3.1v12.78c0 .66.34 1.2 1 1.2zM7 11c0-.55-.45-1-1-1s-1 .45-1 1v8c0 .55.45 1 1 1s1-.45 1-1v-8zm4 0c0-.55-.45-1-1-1s-1 .45-1 1v8c0 .55.45 1 1 1s1-.45 1-1v-8zm4 0c0-.55-.45-1-1-1s-1 .45-1 1v8c0 .55.45 1 1 1s1-.45 1-1v-8zm2.1-5.65c0-1.07-.87-1.94-1.95-1.94-.24 0-.47.05-.7.13-.35-1.13-1.4-1.95-2.67-1.95-1.02 0-1.92.54-2.4 1.35-.42-.36-.96-.58-1.55-.58-.9 0-1.7.5-2.07 1.27-.3-.2-.68-.33-1.07-.33-2.8 0-2.77 3.88 0 3.88.63 0 1.2-.32 1.56-.8.4.37.96.6 1.57.6.7 0 1.33-.3 1.76-.8.5.63 1.3 1.04 2.18 1.04.7 0 1.34-.26 1.83-.68.37.46.93.75 1.55.75 1.08 0 1.95-.88 1.95-1.95z"/></svg>
