<svg xmlns="http://www.w3.org/2000/svg" viewBox="0 0 455 91"><path d="M163.12 89.36a38.3 38.3 0 1 0-38.3-38.3 38.3 38.3 0 0 0 38.3 38.3zm0-46.91a8.61 8.61 0 1 1-8.61 8.61 8.61 8.61 0 0 1 8.61-8.6zM0 0h45.26c24.5 0 36.49 8.64 36.49 29.4 0 12-4.9 17.92-13.41 22.18V52l17.8 37.4H51.58l-13-29H34v29H0V0zm39.85 41.39c6.19 0 8.77-3.61 8.77-10.19 0-6.19-2.58-9.41-9-9.41h-6.09v19.6zm49.51 3.29l30-16.16v60.84h-30V44.68zM207.35 0h45.26c24.5 0 36.49 8.64 36.49 29.4 0 12-4.9 17.92-13.41 22.18V52l17.8 37.4h-34.56l-13-29h-4.51v29h-34V0zm39.85 41.39c6.19 0 8.77-3.61 8.77-10.19 0-6.19-2.58-9.41-9-9.41h-6.06v19.6z" fill="#fff"/><circle cx="104.39" cy="15.02" r="15.02" fill="#fff"/><path d="M371.32 19.31H341.9v33.26a8.82 8.82 0 0 1-17.63 0V18.93l-29.52 14.94v18.7a38.31 38.31 0 0 0 38.31 38.3A37.9 37.9 0 0 0 371.28 53zm45.34 0h-38V91H409V54.51c.38-3.43 4.4-5.92 8.22-5.92a8.65 8.65 0 0 1 8.65 8.61V91H455V57.21c0-21.14-17.64-37.89-38.34-37.9z" fill="#fff"/></svg>