<svg xmlns="http://www.w3.org/2000/svg" viewBox="0 0 123.43 164.25"><circle cx="43.95" cy="73.64" r="8.46" fill="#fff"/><path d="M36.57 101.44A8.46 8.46 0 1 1 28.11 93a8.46 8.46 0 0 1 8.46 8.44zm18.22 27.75a8.46 8.46 0 1 1-8.46-8.44 8.48 8.48 0 0 1 8.46 8.44z" fill="#fff"/><circle cx="79.45" cy="73.64" r="8.47" fill="#fff"/><path d="M86.83 101.44A8.46 8.46 0 1 0 95.3 93a8.46 8.46 0 0 0-8.47 8.44zm-18.21 27.75a8.47 8.47 0 1 0 8.47-8.44 8.47 8.47 0 0 0-8.47 8.44zM71.8 13.66a28.62 28.62 0 0 1 6.13-8.82c3.45-3.27-1.57-7.9-4.27-2-1.61 3.51-3 6.9-4.09 10.11a29.56 29.56 0 0 0-7.87-1A28.67 28.67 0 0 0 53.86 13c-1.14-3.22-2.49-6.62-4.1-10.14-2.69-5.89-7.72-1.25-4.27 2a28.65 28.65 0 0 1 6.16 8.87c-11.89 4.52-19 16.87-19 29.63 0 .31 0 .61.05.92a64.76 64.76 0 0 1 58 0v-.92c.06-12.84-6.81-25.23-18.9-29.7z" fill="#fff"/><path d="M61.72 40.83a61.71 61.71 0 1 0 61.71 61.72 61.72 61.72 0 0 0-61.71-61.72zm4.77 111.81l-4.77-28-4.78 28a50.32 50.32 0 1 1 9.55 0z" fill="#fff"/></svg>