<?xml version="1.0" encoding="utf-8"?>
<!DOCTYPE svg PUBLIC "-//W3C//DTD SVG 1.1//EN" "http://www.w3.org/Graphics/SVG/1.1/DTD/svg11.dtd">
<svg xmlns="http://www.w3.org/2000/svg" xmlns:xlink="http://www.w3.org/1999/xlink" version="1.1" baseProfile="full" width="133.417" height="133.417" viewBox="0 0 133.42 133.42" enable-background="new 0 0 133.42 133.42" xml:space="preserve">
	<path fill="#987FFF" fill-opacity="1" stroke-width="0.2" stroke-linejoin="round" d="M 43.6678,0.780273C 51.7254,0.390137 59.783,0 67.4631,0C 75.1433,0 82.4461,0.390137 89.7488,0.780273C 112.789,0.780273 132.637,20.6282 132.637,43.668C 133.027,51.1967 133.417,58.7253 133.417,66.4055C 133.417,74.0857 133.027,81.9172 132.637,89.7489C 132.637,112.789 112.789,132.636 89.7488,132.636C 82.5436,133.026 75.3386,133.417 67.6584,133.417C 59.9781,133.417 51.823,133.026 43.6678,132.636C 20.6281,132.636 0.780426,112.789 0.780426,89.7489C 0.390289,81.5271 3.05176e-005,73.3054 3.05176e-005,65.6252C 3.05176e-005,57.9451 0.390289,50.8065 0.780426,43.6678C 0.780426,20.6282 20.6281,0.780273 43.6678,0.780273 Z "/>
	<path fill="#FFFFFF" fill-opacity="1" stroke-linejoin="round" d="M 26.7252,103.419L 24.7332,36.5432L 29.2863,36.5432L 29.2863,32.8436C 29.2863,30.9575 30.8153,29.4287 32.7013,29.4287L 39.2465,29.4287C 41.1325,29.4287 42.6614,30.9575 42.6614,32.8436L 42.6614,36.5432L 108.684,36.5432L 106.976,103.988L 26.7252,103.419 Z M 93.4586,41.6658C 91.494,41.6658 89.9014,43.2582 89.9014,45.2229C 89.9014,47.1874 91.494,48.78 93.4586,48.78L 98.8656,48.78C 100.83,48.78 102.423,47.1874 102.423,45.2229C 102.423,43.2582 100.83,41.6658 98.8656,41.6658L 93.4586,41.6658 Z M 66.9929,92.7473C 80.0378,92.7473 90.6128,83.8923 90.6128,72.9691C 90.6128,62.0459 80.0378,53.1909 66.9929,53.1909C 53.948,53.1909 43.3729,62.0459 43.3729,72.9691C 43.3729,83.8923 53.948,92.7473 66.9929,92.7473 Z M 66.9928,86.9135C 57.1698,86.9135 49.2067,80.6704 49.2067,72.9691C 49.2067,65.2679 57.1698,59.0248 66.9928,59.0248C 76.8158,59.0248 84.7789,65.2679 84.7789,72.9691C 84.7789,80.6704 76.8158,86.9135 66.9928,86.9135 Z M 66.993,65.0009C 60.3134,65.0009 54.8984,68.5684 54.8984,72.9691C 54.8984,77.3699 60.3133,80.9373 66.993,80.9373C 73.6726,80.9373 79.0875,77.3699 79.0875,72.9691C 79.0875,68.5684 73.6726,65.0009 66.993,65.0009 Z "/>
</svg>
