<svg xmlns="http://www.w3.org/2000/svg" viewBox="0 0 24 24"><defs><linearGradient id="a" x1="8.66" y1="7.01" x2="16.83" y2="15.18" gradientUnits="userSpaceOnUse"><stop offset="0" stop-opacity=".25"/><stop offset="1" stop-color="#263238" stop-opacity="0"/></linearGradient></defs><path d="M22.56 6.29A12 12 0 1 0 5.36 22a23.63 23.63 0 0 1 17.2-15.71z" fill="#37474f"/><path d="M24 12a12 12 0 0 0-1.44-5.71A23.63 23.63 0 0 0 5.36 22 12 12 0 0 0 24 12z" fill="#4285f4"/><path d="M17.07 22.87a12 12 0 0 0 6.67-8.35L16.5 7.2 5.1 11.1z" fill="url(#a)"/><circle cx="14.1" cy="3.1" r=".5" fill="#bbdefb"/><circle cx="12.3" cy="5" r=".3" fill="#bbdefb"/><circle cx="5.5" cy="13.8" r=".4" fill="#bbdefb"/><circle cx="7" cy="7.2" r=".3" fill="#bbdefb"/><circle cx="8.6" cy="4.1" r=".3" fill="#bbdefb"/><circle cx="3.6" cy="14.3" r=".3" fill="#bbdefb"/><path d="M16.5 7.2a.37.37 0 0 0-.3-.1l-11 3.5a.22.22 0 0 0-.2.2.37.37 0 0 0 .1.3l4.9 2.7 6.54-6.54a.26.26 0 0 0-.04-.06z" fill="#e1e1e1"/><path d="M13 18.7h.1a.22.22 0 0 0 .2-.2l3.3-11.1a.47.47 0 0 0-.06-.14L10 13.8l2.8 4.8c0 .1.1.1.2.1z" fill="#f5f5f5"/></svg>