<svg xmlns="http://www.w3.org/2000/svg" viewBox="0 0 51.91 51.46"><path d="M48.83 24.12a4.53 4.53 0 0 1 2.1.68 2.25 2.25 0 0 1 .83 1.2 5.21 5.21 0 0 1 .15 1.61v1.76A13.17 13.17 0 0 1 48.19 31a32.31 32.31 0 0 1-4.83 1q-2.64.34-5.52.49t-5.71.24q-.49 2.72-1.13 5.8A65.68 65.68 0 0 1 28.71 46a10.08 10.08 0 0 1-3.12 4.25 6.32 6.32 0 0 1-3.66 1.22 8.92 8.92 0 0 1-3.86-.93 29.37 29.37 0 0 1-3.71-2.1 14.71 14.71 0 0 1-.1-3q.1-1.76.29-3.76t.54-4q.34-2 .63-4-3.13.49-5 .88a20.27 20.27 0 0 0-2.72.69 6.91 6.91 0 0 1-2.93-.68 5.87 5.87 0 0 1-1.76-1.42 8.45 8.45 0 0 1-1.17-1.9Q1.66 30.18 1 29a3.77 3.77 0 0 0 .15-2.25A3.71 3.71 0 0 0 0 24.51a1.5 1.5 0 0 0 1.17-1.12 1.53 1.53 0 0 0 0-1.51 20.92 20.92 0 0 1 3.37-.54q1.81-.15 3.56-.24a33.19 33.19 0 0 0 3.32-.34 9.28 9.28 0 0 0 2.73-.83h5.18a3.37 3.37 0 0 0-.1-2.15 2.27 2.27 0 0 1-.2-1.56 1 1 0 0 1 .73-.63.8.8 0 0 0 .63-.63 3.82 3.82 0 0 0 .2-2 2.81 2.81 0 0 1 .39-1.9q.49-.78 1.32-2.44A6.26 6.26 0 0 0 22.95 5a11.77 11.77 0 0 0 1.81-1.56 16.24 16.24 0 0 1 1.76-1.61A10.78 10.78 0 0 1 28.56.54 6.44 6.44 0 0 1 31.35 0a8.08 8.08 0 0 1 1.27 2.05q.38.95.78 1.86a7.33 7.33 0 0 0 1 1.66A6.15 6.15 0 0 0 36.33 7 9.82 9.82 0 0 1 36 9.18q-.29 1.27-.49 2.54a8.93 8.93 0 0 0-.1 2.25 1.56 1.56 0 0 0 1 1.37q-.39 1.08-.73 2.1t-.63 2a25.36 25.36 0 0 0 3.81.34 27.6 27.6 0 0 1 4.1.39 12.48 12.48 0 0 1 3.56 1.17 4.73 4.73 0 0 1 2.31 2.78z" fill="#fff"/></svg>
