<svg xmlns="http://www.w3.org/2000/svg" viewBox="0 0 66.7 139.1"><path fill="#FFF" d="M15.8 17.5v68.7c0 9.7 7.9 17.5 17.6 17.5S51 95.8 51 86.2V17.5C50.9 7.9 43 0 33.3 0S15.8 7.9 15.8 17.5z"/><path fill="#FFF" d="M66.7 86.8c0 16.8-12.5 30.8-28.8 33v10.3h13.5c2.5 0 4.5 2 4.5 4.5s-2 4.5-4.5 4.5h-36c-2.5 0-4.5-2-4.5-4.5s2-4.5 4.5-4.5h13.5v-10.3C12.6 117.6 0 103.6 0 86.8V64.2c0-2.5 2-4.5 4.5-4.5s4.5 2 4.5 4.5v22.6C9 100.1 19.9 111 33.3 111s24.3-10.9 24.3-24.3V64.2c0-2.5 2-4.5 4.5-4.5s4.5 2 4.5 4.5l.1 22.6z"/></svg>
