<svg viewBox="0 0 156 95" xmlns="http://www.w3.org/2000/svg"><path d="M60.743 19.973s-2.07-4.02-2.777-5.358c-4.707-8.905-4.606-9.38-9.364-9.983-1.332-.167-2.02-.328-2.02-.96V.855l.4-.275C55.58.567 74.708.567 74.708.567l.734.232v2.808c0 .642-.48.97-1.456.97l-2.01.275c-5.08.378-4.25 2.36-.875 8.78l32.046 62.61 1.095.286 28.45-64.475c.988-2.598.835-4.442-.435-5.525-1.275-1.05-2.173-1.682-5.47-1.81l-2.67-.125c-.327 0-.637-.114-.936-.33-.295-.2-.447-.463-.447-.78V.8l.406-.275h32.14l.327.275v2.684c0 .728-.435 1.094-1.293 1.094-4.21.178-7.332 1.052-9.353 2.61-2.025 1.568-3.606 3.724-4.74 6.538 0 0-26.163 57.18-35.115 76.193-3.427 6.23-6.797 5.66-9.76-.18-6.26-12.31-23.888-49.66-23.888-49.66L60.743 19.973z"/><path d="M112.087.536s-18.08-.054-26.13 0l-.4.275v2.674c0 .33.147.588.44.787.3.21.604.32.932.32l1.29.134c3.292.124 4.805.954 5.257 1.466.784.917 1.174 1.908-.73 5.87L58.995 76.357l-.887-.22s-24.175-48.682-31.175-64.97c-.728-1.683-1.055-2.94-1.055-3.71 0-1.655 1.563-2.55 4.69-2.674l3.647-.145c.965 0 1.456-.356 1.456-1.094V.87l-.327-.275S6.386.563.403.595L.074.87v2.808c0 .507.672.82 2.02.96 3.675.188 6.09.75 7.254 1.682 1.156.943 2.38 3.325 4.007 7.04 8.79 20.16 27.46 56.135 36.554 76.624 2.62 5.595 5.91 6.463 9.908-.173C66.738 77.56 85.5 40.124 85.5 40.124L100.28 13.73C102 10.94 103.66 8.455 104.5 7.3c1.542-2.118 2.405-2.517 6.616-2.705.858 0 1.293-.367 1.293-1.105V.816l-.323-.28z"/></svg>
