<svg xmlns="http://www.w3.org/2000/svg" viewBox="0 0 215 169.01"><path d="M55 156v-34h20.05v4.28H59.14v10.46h14.28V141H59.14v10.71h17.08V156H55zm42.37 0l-6.94-9.08-6.88 9.08h-4.9l9.44-12.14-9.95-12.5h5.46l6.84 9.39 6.89-9.39h5.41l-9.44 12.5 9 12.14h-4.9zm11.63-3.76V169h-4.22v-25.1c0-6.38 4.91-13.2 12.53-13.2s13.52 4.9 13.52 12.91-5.87 13.22-12.56 13.22c-3.36 0-7.7-1.4-9.27-4.59zm17.4-8.62c0-5.46-3.51-8.76-9.82-8.46-3 .14-7.71 2.34-7.27 10.18a8.42 8.42 0 0 0 8.5 7.35c4.95 0 8.59-2.87 8.59-9.07zm7.95 12.38v-24.67h4.12v2.62c2-2.3 5.16-3.18 8.52-3.18v4.49c-.46-.05-5.45-.67-8.52 5.77V156h-4.12zm13.88-12.38c0-7.14 5.1-12.91 12.14-12.91 8.73 0 12 5.82 12 13.21v2h-19.55c.31 4.64 4.47 7.1 8.31 7a9 9 0 0 0 6.78-3l2.7 2.84a13.79 13.79 0 0 1-9.79 4.09c-7.34-.02-12.59-5.53-12.59-13.23zm11.77-8.76a7.5 7.5 0 0 0-7.24 7.18h15.15c-.05-3.62-2.65-7.18-7.91-7.18zm14.38 17.64l3.06-2.71a20.12 20.12 0 0 0 1.71 1.77 6.08 6.08 0 0 0 2.34 1.22c2.66.7 7.45.47 7.78-3.12.19-2.05-1.36-3.17-3.07-3.81-2.26-.84-4.7-1.15-6.92-2.13a6.26 6.26 0 0 1-4.13-5.91c0-7.41 10.52-8.64 15.31-5.18a23.34 23.34 0 0 1 2.48 2.37l-3.09 2.39c-1.48-1.79-3-2.72-6.21-2.77-1.59 0-3.85.67-4.31 2.43-.64 2.44 2.15 3.37 4 3.84 2.44.63 5.06 1 7.24 2.34 2.9 1.82 3.66 5.76 2.52 8.83-1.24 3.32-4.83 4.63-8.12 4.78a12.88 12.88 0 0 1-10-3.77zm21.45 0l3.06-2.71a20.12 20.12 0 0 0 1.71 1.77 6.08 6.08 0 0 0 2.34 1.22c2.66.7 7.45.47 7.78-3.12.19-2.05-1.36-3.17-3.07-3.81-2.26-.84-4.7-1.15-6.92-2.13a6.26 6.26 0 0 1-4.13-5.91c0-7.41 10.52-8.64 15.31-5.18a23.34 23.34 0 0 1 2.48 2.37l-3.09 2.39c-1.48-1.79-3-2.72-6.21-2.77-1.59 0-3.85.67-4.31 2.43-.64 2.44 2.15 3.37 4 3.84 2.44.63 5.06 1 7.24 2.34 2.9 1.82 3.66 5.76 2.52 8.83-1.24 3.32-4.83 4.63-8.12 4.78a12.88 12.88 0 0 1-10-3.77zM26.78 156l-3-8.11H7.35l-3 8.11H0l13.21-34H18l13.16 34h-4.38zM15.3 126.79l-6.17 16.83H22zM33.66 156v-34h4.23v34h-4.23zm10.64 0v-24.16h4.23V156H44.3zm8.37-32v-.44a6.26 6.26 0 0 1-6-6h-.51a6.26 6.26 0 0 1-6 6v.44a6.26 6.26 0 0 1 6 6h.52a6.26 6.26 0 0 1 5.99-6z" fill="#fff"/><g fill="#b32100"><circle cx="180" cy="13.75" r="13.75"/><circle cx="35" cy="13.75" r="13.75"/></g><path d="M35 13.75s.67 72.08 72 72.08 73-72.08 73-72.08" fill="none" stroke="#fff" stroke-linecap="round" stroke-miterlimit="10" stroke-width="13"/></svg>