<svg xmlns="http://www.w3.org/2000/svg" viewBox="0 0 101.92 101.92"><title>bg-logo</title><path d="M101.92 50.96a51 51 0 1 1-51-51 51 51 0 0 1 51 51" fill="#231f20"/><path d="M63.26 43.68a13.21 13.21 0 0 0-5.78 1.34l20-24.71a.73.73 0 0 0-.64-1.18.7.7 0 0 0-.49.26l-2 2.46a7.88 7.88 0 0 1-13.25-1.9v-.13a.75.75 0 0 0-.15-.24.77.77 0 0 0-.25-.17.75.75 0 0 0-.26-.06.82.82 0 0 0-.26 0 .66.66 0 0 0-.26.16h-.07a131.46 131.46 0 0 1-11.24 9.35 92.18 92.18 0 0 1-13.75 9c3.15-9.38 9.11-16.06 15.78-17.13h.09a.73.73 0 0 0 .47-.3.73.73 0 0 0-.18-1 .71.71 0 0 0-.54-.12h-.06c-26.33 4.81-35.47 28.63-29.27 44.4S46.01 86.9 62.81 80.28a34.46 34.46 0 0 0 9.55-5.67 18.2 18.2 0 0 0 5.92-13.73c0-9.52-6.71-17.24-15-17.24m-4.65 3.08c2.09 0 4 1.28 5.52 3.42v4.14a4.28 4.28 0 0 1-8.46-.87v-5.8a5.5 5.5 0 0 1 2.94-.89m-2.94 10.45a5.66 5.66 0 0 0 8.46.08v6.74a5.66 5.66 0 0 0-8.46.09zm-4.94-26.2a17.33 17.33 0 0 0 16.24-.08l-11.3 14v-4.54l.8-.8-1.51-1.51-1.51 1.51.8.8v6.26l-3.52 4.35zm-14.13 40c-3.1-5.69-4.71-13.48-4.07-21.93a47.23 47.23 0 0 1 1.55-8.92 46.71 46.71 0 0 0 5.71-3.1v25.59c0 3.19-.19 8.06-1.77 8.41a3.69 3.69 0 0 1-1.39 0m12.17 9.27c-4.34-.33-8.14-3-11-7.31a8.41 8.41 0 0 0 1.41.13c6.36 0 11.52-7 11.52-15.56v-4.21L54.27 49v31.29a27 27 0 0 1-5.48 0m9.12-.73a16.47 16.47 0 0 1-2.21.53V67.88a4.28 4.28 0 0 1 8.46-.87v8.14c-.22.3-.44.6-.67.86a12.06 12.06 0 0 1-5.58 3.56m7.65-6.96V52.69a26.14 26.14 0 0 1 0 19.94" fill="#fff"/></svg>