<svg viewBox="0 0 104 28" xmlns="http://www.w3.org/2000/svg" xmlns:xlink="http://www.w3.org/1999/xlink"><title>Digikala</title><defs><path id="a" d="M0 0h104v28H0V0z"/></defs><g fill="none" fill-rule="evenodd"><path d="M100 18h-7c-.6 0-1-.4-1-1v-6c0-.6.4-1 1-1h7v8zM96 6h-4c-2.2 0-4 1.8-4 4v8c0 2.2 1.8 4 4 4h12V6h-8z" fill="#EE403D"/><mask id="b" fill="#fff"><use xlink:href="#a"/></mask><path d="M82 22h4V0h-4v22zM76 18h-7c-.6 0-1-.4-1-1v-6c0-.6.4-1 1-1h7v8zM68 6c-2.2 0-4 1.8-4 4v8c0 2.2 1.8 4 4 4h12V6H68zM48 0v22h4V0h-4zM57.3 14L64 6h-5.3L52 14l6.8 8H64l-6.7-8z" fill="#EE403D" mask="url(#b)"/><path d="M42 4h4V0h-4v4zM42 22h4V6h-4v16zM36 18h-7c-.6 0-1-.4-1-1v-6c0-.6.4-1 1-1h7v8zM28 6c-2.2 0-4 1.8-4 4v8c0 2.2 1.8 4 4 4h8v1c0 .6-.4 1-1 1h-7.4l3.3 4h5c2.2 0 4-1.8 4-4V6H28zM18 4h4V0h-4v4zM18 22h4V6h-4v16zM12 18H5c-.6 0-1-.4-1-1v-6c0-.6.4-1 1-1h7v8zm0-12H4c-2.2 0-4 1.8-4 4v8c0 2.2 1.8 4 4 4h12V0h-4v6z" fill="#808283" mask="url(#b)"/></g></svg>
