<svg xmlns="http://www.w3.org/2000/svg" viewBox="0 0 157.85 184.19"><defs><linearGradient id="a" x1="78.92" y1="184.19" x2="78.92" gradientUnits="userSpaceOnUse"><stop offset="0" stop-color="#772e7e"/><stop offset=".5" stop-color="#9c27a9"/></linearGradient></defs><path d="M79 0a85.74 85.74 0 0 0-10.92.59 79.35 79.35 0 0 0-56.63 119.64A81.87 81.87 0 0 0 36 145.64a79.36 79.36 0 0 0 39 12.76l3.85.27v12.51c0 6.88.11 12.63.26 12.77.52.52 1.38.23 5.36-1.76a157.72 157.72 0 0 0 41.94-30.39c17.66-18 27.65-37.91 31-61.68a112 112 0 0 0-.2-22.62C151.53 32.33 124.49 5.42 89.9.59A85.74 85.74 0 0 0 79 0z" fill="url(#a)"/><path d="M90.57 56h25.73a4.61 4.61 0 0 1 4.62 4.62v29.94a4.89 4.89 0 0 1 0 .94c-.25 4.83-.87 6.63-2.31 9.62a23.76 23.76 0 0 1-17.46 13c-1.34.21-1.78.11-2.47-.58s-.84-1.29-.84-5.15c0-4.92 0-5 3.74-6.18a13.19 13.19 0 0 0 5.26-3.29 13.11 13.11 0 0 0 2.44-6.23V91c-6.12.05-12.5-.05-18.68 0a4.62 4.62 0 0 1-4.62-4.64V60.63A4.61 4.61 0 0 1 90.57 56zm-49.01 0h25.73a4.61 4.61 0 0 1 4.62 4.62v29.94a4.9 4.9 0 0 1 0 .94c-.25 4.83-.87 6.63-2.31 9.62a23.76 23.76 0 0 1-17.46 13c-1.34.21-1.78.11-2.47-.58s-.84-1.29-.84-5.15c0-4.92 0-5 3.74-6.18a13.18 13.18 0 0 0 5.26-3.29 13.11 13.11 0 0 0 2.44-6.23V91c-6.12.05-12.49-.05-18.68 0a4.62 4.62 0 0 1-4.62-4.64V60.63A4.61 4.61 0 0 1 41.56 56z" fill="#fff"/><path d="M67.29 56H41.56a4.61 4.61 0 0 0-4.62 4.62v3A4.61 4.61 0 0 1 41.56 59h25.73a4.61 4.61 0 0 1 4.62 4.62v-3A4.61 4.61 0 0 0 67.29 56zm-14.76 49.21a13.18 13.18 0 0 0 5.26-3.29 13.11 13.11 0 0 0 2.44-6.23V93a13.47 13.47 0 0 1-2.41 5.9 13.18 13.18 0 0 1-5.26 3.29c-3.69 1.2-3.74 1.25-3.74 6.18v2c0-3.91.3-4.05 3.71-5.16zm49.01 0a13.19 13.19 0 0 0 5.26-3.29 13.11 13.11 0 0 0 2.44-6.23V93a13.47 13.47 0 0 1-2.41 5.9 13.19 13.19 0 0 1-5.26 3.29c-3.69 1.2-3.74 1.25-3.74 6.18v2c0-3.91.3-4.05 3.71-5.16zM116.3 56H90.57a4.61 4.61 0 0 0-4.62 4.62v3A4.61 4.61 0 0 1 90.57 59h25.73a4.61 4.61 0 0 1 4.62 4.62v-3A4.61 4.61 0 0 0 116.3 56z" fill="#6a1b9a"/></svg>