<svg xmlns="http://www.w3.org/2000/svg" viewBox="0 0 186.06 102.68"><path d="M0 99.37c2.7-.3 9.76-1.05 11.71-1.8 3.61-1.36 4.66-4.06 4.66-7.37V13.53c0-3.31-.9-5.86-4.66-7.37A57.84 57.84 0 0 0 0 3.31V0h86.38v25.7h-3.9c-2-6.76-9.77-19.84-17-20.74a99.34 99.34 0 0 0-12.32-.6H36.35v43.45h11.42c7.81 0 11.27-2.56 13.23-4.52 2.7-2.55 4.65-9.17 5.25-14.13h4.06v42.7h-4.06C65.8 67.35 63.4 59.08 61 56.67c-2-2.1-5.87-4.35-13.23-4.35H36.35V89.6c0 3.31 1.21 5.86 4.51 7.37a70.47 70.47 0 0 0 11.27 2.4v3.31H0v-3.31zM112.29 99.37c2.71-.15 10.22-1.2 12.17-2 3.61-1.36 4.66-4.21 4.66-7.52V4.36h-5.26a99.64 99.64 0 0 0-11.57.6c-6.46.9-14.15 14.12-15.95 20.74h-4.18V0h93.9v25.7h-4.15c-1.8-6.62-9.52-19.84-16-20.74a94.67 94.67 0 0 0-11.57-.6h-5.24v84.79c0 3.3 1.2 6 4.66 7.51a80.45 80.45 0 0 0 12.17 2.71v3.31h-53.64v-3.31z"/></svg>