<svg xmlns="http://www.w3.org/2000/svg" viewBox="0 0 713.39 707.41"><defs><linearGradient id="a" x1="357.17" y1="110" x2="357.17" gradientUnits="userSpaceOnUse"><stop offset="0" stop-color="#f7b500"/><stop offset="1" stop-color="#fbd203"/></linearGradient><linearGradient id="b" x1="356.7" y1="707.41" x2="356.7" y2="110" gradientUnits="userSpaceOnUse"><stop offset="0" stop-color="#fdcb00"/><stop offset="1" stop-color="#f7e830"/></linearGradient></defs><path fill="url(#a)" d="M662.57 21.09V110H51.77l.17-88.91L105.63 0h504.19l52.75 21.09z"/><path d="M342.91 707.16c6.3-35.2 12.4-70.5 19.1-105.7l.6-4.5c-27.2-.1-54.5 0-81.7-.1-6.6-.2-13.4 0-20-.8-11.3-.5-22.7-.1-34-1.2-14 0-27.9-1.3-41.9-1.3-11-1.1-22.1-.7-33.2-1.2-7.2-.9-14.6-.5-21.9-.8-11.9-1.3-24-.4-35.9-1.7-12.6.1-25.2-1-37.8-1.3a1.42 1.42 0 0 0 .2-.6c4.2.1 8.3-.2 12.5-.3 9.3-1.2 18.7-.4 28-1.7 9.7 0 19.3-1.3 29-1.3 8.6-1.2 17.3-.5 25.9-1.7 10.1 0 20-1.3 30.1-1.4 8.3-1.1 16.7-.5 25-1.6 9.7.1 19.3-1.4 29-1.3 9.5-1.1 19.2-.8 28.7-1.8-.9-3.7-1.6-7.4-2.4-11.1-.7-2.3-3.5-1.8-5.3-2.1q-32.55-4.65-64.9-9.2c1.4-1.1 3.3-.6 4.9-.8 16.8-1.3 33.5-2.8 50.3-4 3.8-.2 7.5-.9 11.3-1-1.7-5.2-2.7-10.9-5-15.7-35.9-5.5-71.8-10.4-107.6-16.3 9.3-1.5 18.7-2.2 28-3.2l.8-.3c29.7-3.1 59.5-6.6 89.2-9.5 37.7-.2 75.3-.1 113 0 1.2-.2 3.3.4 3.5-1.3 3.1-16.2 6.1-32.4 9.2-48.6 4.3-22.5 11.1-44.7 21.6-65.2a192.28 192.28 0 0 1 74.4-79.6c29.7-17.4 64.1-25.8 98.3-27.4a154.43 154.43 0 0 1 33.3.7c7.2 1.7 14.6 3.7 20.3 8.6 4.7 3.8 7.5 9.4 9.6 15 4.6 13.3 7.2 27.1 9.4 41 .1 5.6 1.1 11.9-1.9 17-2.8 5-8.4 7.4-13.7 8.9-19.3 5-39.5.3-58.8 5a71.54 71.54 0 0 0-40.8 24.9c-11.9 14.8-18.2 33.2-21.7 51.6-2.7 16.4-6.1 32.8-8.8 49.3 19 .1 38.1-.1 57.2.1 7.6 0 15.4 4.2 18.5 11.4 4 9.2 3.1 19.6 1.8 29.3-1.6 10.9-4.2 21.7-9.1 31.7-4.1 8.5-10.9 16.3-20.2 19.3-4.8 1.9-10 1.5-15.1 1.5-16.8 0-33.6.2-50.4 0-2.7 12.3-4.5 24.9-6.9 37.4-4.4 24.3-8.7 48.7-13.1 73.1z" fill="#107bd4"/><path fill="#f7e830" d="M625.57 110h87.82l-87.82-65.4V110zM87.57 110V44.48L0 110h87.57z"/><path fill="#ef9f1f" d="M51.77 71.24l35.8-26.76-35.63-23.39-.17 50.15zM662.58 72.16l-.01-51.07-37 23.51 37.01 27.56z"/><circle cx="210.3" cy="55.71" r="18.73" fill="#ad8926"/><circle cx="504.61" cy="55.08" r="18.73" fill="#ad8926"/><path fill="url(#b)" d="M0 110h713.39v597.41H0z"/><path d="M200.3 149.41s5.81 130.59 155 134.49c79.8 2.11 142.27-32.89 155.08-134.49" fill="none" stroke="#fff" stroke-linecap="round" stroke-width="22.68"/><path d="M657.17 342.6c-2.2-13.9-4.8-27.7-9.4-41-2.1-5.6-4.9-11.2-9.6-15-5.7-4.9-13.1-6.9-20.3-8.6a154.43 154.43 0 0 0-33.3-.7c-34.2 1.6-68.6 10-98.3 27.4a192.28 192.28 0 0 0-74.4 79.6c-10.5 20.5-17.3 42.7-21.6 65.2-3.1 16.2-6.1 32.4-9.2 48.6-.2 1.7-2.3 1.1-3.5 1.3-37.7-.1-75.3-.2-113 0-29.7 2.9-108.69 11.9-118 13.4 35.8 5.9 71.7 10.6 107.6 16.1 2.3 4.8 3.3 10.4 5 15.6-3.8.1-65.1 4.61-66.5 5.71q32.4 4.5 64.9 9.19c1.8.3 4.6-.2 5.3 2.1.8 3.7 1.5 7.4 2.4 11.1-9.5 1-204 11.2-208.2 11.1a1.42 1.42 0 0 1-.2.6c12.6.3 306.4 8 306.4 8L341.5 707.01l131.4.41s18.52-103 21.22-115.32q25.2.3 50.42.26c5.1 0 10.31.53 15.11-1.37 9.3-3 16.1-10.74 20.21-19.24a106.82 106.82 0 0 0 9.3-31.67c1.3-9.7 2.4-20.07-1.6-29.27a21.43 21.43 0 0 0-18.7-11.4c-19.1-.2-38.3 0-57.3-.1 0 .05-.08.11-.1.17s0-.11 0-.17c2.7-16.5 6.09-32.9 8.79-49.3 3.5-18.4 9.79-36.8 21.69-51.6a71.54 71.54 0 0 1 40.8-24.9c19.3-4.7 39.5 0 58.8-5 5.3-1.5 10.9-3.9 13.7-8.9 3.03-5.11 2.71-10.67 1.93-17.01z" fill="#0d69b3"/><path fill="#f8f3b5" d="M0 110h713.39v10.67H0z"/></svg>
