<svg width="77" height="78" viewBox="0 0 77 78" xmlns="http://www.w3.org/2000/svg">
  <g fill="none" fill-rule="evenodd">
	<path d="M65 12C58 5 49 1.3 38.3 1.3 27.7 1.3 18.8 5 11.7 12 4.5 19.2 1 28 1 38.8c0 10.6 3.5 19.5 10.7 26.6 7 7.2 16 10.8 26.6 10.8C49 76.2 58 72.6 65 65.5c7.2-7.2 10.7-16 10.7-26.7S72.2 19.2 65 12z" fill="#F9A024"/>
	<path d="M38.3 77c-10.8 0-20-3.6-27.3-11C3.7 59 0 49.7 0 39c0-11 3.7-20 11-27.4C18.3 4 27.5.4 38.3.4c11 0 20 3.7 27.4 11 7.3 7.3 11 16.5 11 27.4 0 10.8-3.7 20-11 27.3-7.3 7.4-16.5 11-27.4 11zm0-74.7c-10.3 0-19 3.5-26 10.4-7 7-10.4 15.7-10.4 26 0 10.4 3.4 19 10.3 26 7 7 15.7 10.6 26 10.6 10.4 0 19-3.5 26-10.5S75 49 75 38.8c0-10.4-3.5-19.2-10.4-26-7-7-15.7-10.5-26-10.5z" fill="#335C88"/>
	<path d="M19 26c1.4-1 3-1.6 5-1.7 1.8 0 3.7.4 5.6 1 2 1 3.8 2 5.7 3.2l.8-.7c-1-2.2-2.8-4-5-5.3-2-1.3-4.6-2-7.2-2-1.3 0-2.7 0-4 .7-1.3.6-2.4 1.5-3.3 2.6-1 1-1.4 2.2-1.8 3.5-.3 1.2-.5 2.4-.3 3.7h1c1-2 2.2-3.7 3.6-5zm24.2-3.4c1.7-1.2 3.6-2 5.4-2.4 2-.4 3.5-.2 5.2.6 1.6.8 3.2 2.4 4.6 4l1-.3c-.2-1.3-.6-2.4-1.2-3.5-.6-1-1.4-2.2-2.5-3-1-1-2.4-1.5-3.8-1.8-1.5-.2-3 0-4.2.2-2.6.5-5 2-6.7 3.7-1.6 2-3 4-3.5 6.4l1 .5c1.5-1.7 3-3.3 4.7-4.4zm17.2 25c-.7 2-2 3.7-3.2 5.2-.7.8-1.4 1.5-2.2 2l-2.4 1.8c-3.4 2-7.3 3.2-11.3 4-4 .5-8 .4-12-.5-2-.3-4-1-5.7-1.8-2-1-3.6-2-5.2-3.3l-.6.4c1.2 1.8 2.8 3.4 4.6 4.7 2 1.4 4 2.5 6 3.2 4.3 1.5 9 1.8 13.5 1 4.3-.5 8.8-2 12.4-5C58 56.7 61 52.5 61.2 48h-.8zm-22.8-12L39 49h.8l-1.4-13.4h-.8z" fill="#335C88"/>
  </g>
</svg>
