<svg width="286" height="237" viewBox="0 0 286 237" xmlns="http://www.w3.org/2000/svg">
	<g fill="none" fill-rule="evenodd">
		<path d="M250 118.3C250 183 197 236 132.3 236s-118-53-118-117.7C14.3 53.7 67.6.5 132.3.5s118 53.2 118 117.8" fill="#0066B2"/>
		<path d="M158.8 180.3c50.3 20.7 41.7-31.6 14.8-71.8-15.2-22.7-35-41.6-47.6-50.7-41.7-30.5-67-12-37.8 47.8 9.5 19.3 21.6 32.3 31 44.6 7.4 9.4 21.5 14 16.6 18.6-5.7 5-19.2-17.2-19.2-17.2-10-12-19.7-25-29.5-42.7-22-41-19-82 22-64 35 15 68 58 81 88 6 14 23 69-30 47" fill="#FFF"/>
		<path d="M2 153.2c22.3-14.8 43.3-24.3 79-36 50.3-16.7 88.2-28 134.6-51.2 22.6-11.3 56-33.3 69.4-54.6-3.8 8-15.6 23.6-21 30.4C201 120.6 67 116.2 3 154" fill="#EC1C24"/>
		<path d="M34.3 95.6c20.2 0 18.3 0 18.5.2.4 0 16.2 27.3 16.2 27.5v-22c0-1.4-4-5.5-4-5.5h13.5c-2.8 3.4-3.4 3-3.4 5.2v32.3c0 2 2 3 4 6.4H61L44 111s-.2 11.3 0 21c.2 3 1.6 4 4.2 7h-15c5.3-3 4.6-6.5 4.6-6.6-.4-13 0-24.3 0-31.5 0-1 0-1-4-6m63.6 20c1.7-6 3-11 3.8-15 .2-1-1.3-3-3.5-5l-.3-1H120c3 7 9.7 27 14.8 39 1.3 3 3.6 4 3.6 4h-26.2c4.6-4 4-4 2-10H99.8c-3 7 1 10 1.4 10H86.8c6-5 5.6-6 5.6-6l5.3-19h6l-2.6 8h12l-6-17-2 8h-6m99 1c2-6 3-11 4-15 0-1-1-3-3-5h22c3 7 10 27 15 40 2 3 4 4 4 4h-27c5-4 4-4 2-11h-15c-3 7 1 10 2 10h-15c6-4 6-5.7 6-5.7l6-18h6l-3 8.6h11l-6-16-2 8h-6m-19-9.6v-9c-3 3-1 2.8-10 1-26.4-4-28.4 20.6-14 26 12 4.8 16.3 5.7 14.5 10-.7 1.5-11.7 6.7-23-4v15c1-1 5-4 5-4s12 5.5 23 0c17-9 8-23-10-28-15-5-1-15.6 14-4" fill="#FFF"/>
		<path d="M285.3 11.8c-18 53.3-90 94.5-150.6 133.8-36.6 23.7-73 51-98 74.2-6.5 6.2 1.5-2.2-1 .3 34.8-40 75-64 97-79 37.6-25 59-32 123.6-91" fill="#EC1C24"/>
		<path d="M158.8 180.3c50.3 20.7 41.7-31.6 14.8-71.8-15.2-22.7-34-40.7-47.6-50.7L108.6 45c35.4 17 67.7 58.2 81 88.7 6 14 22.7 69.6-30.5 47.2M134 11c0 .5-.4 1-1 1-.4 0-1-.5-1-1s.6-1 1-1c.6 0 1 .5 1 1m6.7 14.5c0 .7-.5 1.2-1.2 1.2-.6 0-1.2-.7-1.2-1.4 0-.6.8-1.2 1.4-1.2.7 0 1.2 1 1.2 2m17 24c0 1-1 1-1 1s-2 0-2-1 0-1 1-1 1 1 1 2m-27-16c0 1-1 1-1 1-1 0-1 0-1-1s0-1 1-1l1 1m10 6c0 1-1 1-1 1s-1 0-1-1 0-1 1-1 1 1 1 1m-13-16c0 1-1 2-2 2s-1 0-1-1c0 0 0-1 1-1l1 1m-16 10c0 1-1 1-1 1-1 0-1 0-1-1s0-1 1-1l1 1m2 2c0 1-1 1-1 1s-1 0-1-1c0 0 0-1 1-1s1 1 1 1m3 2c0 1-1 1-1 1s-1 0-1-1c0 0 0-1 1-1s1 1 1 1m-4 4c0 1-1 1-1 1s-1 0-1-1h1l1 1M90 57c0 .5-.5 1-1 1s-1-.5-1-1 .5-1 1-1 1 .5 1 1m4 5c0 .5-.3 1-1 1-.4 0-1-.5-1-1s.6-1 1-1c.7 0 1 .5 1 1m-3 81c0 .4-.3.8-.8.8s-1-.4-1-1c0-.5.5-1 1-1s1 .5 1 1m.5 22.4c0 .7-.5 1.2-1.2 1.2-.6 0-1-.5-1-1.2 0-.6.4-1.2 1-1.2.7 0 1.2.6 1.2 1.2M79 176.7c0 .5-.4 1-1 1-.5 0-1-.5-1-1 0-.6.5-1 1-1 .6 0 1 .4 1 1m-15.2 4.6c0 .7-.5 1.2-1.2 1.2-.6 0-1.2-.5-1.2-1.2 0-.6.6-1.2 1.2-1.2.7 0 1.2 1 1.2 2m-3-10c0 1-.6 2-1.3 2-.6 0-1.2 0-1.2-1s.6-1 1.2-1c.7 0 1.2 1 1.2 1m-1.7 6c0 1-.5 1-1 1-.6 0-1 0-1-1 0 0 .4-1 1-1 .5 0 1 1 1 1m-11.5-6c0 1-.4 1-1 1-.4 0-1 0-1-1 0 0 .6-1 1-1 .6 0 1 1 1 1m39.8 18c0 1-.4 1-1 1-.5 0-1 0-1-1 0 0 .5-1 1-1 .6 0 1 1 1 1m12-8c0 1-.6 1-1.2 1s-1 0-1-1l1-1c1 0 2 1 2 2m1 11c0 1 0 1-1 1 0 0-1 0-1-1l1-1c1 0 1 1 1 1m49-10c0 1 0 1-1 1 0 0-1 0-1-1l1-1c1 0 1 1 1 1m-23 8c0 1 0 1-1 1 0 0-1 0-1-1s1-1 1-1c1 0 1 1 1 1m62 12c0 1 0 1-1 1 0 0-1 0-1-1l1-1c1 0 1 1 1 1" fill="#FFF"/>
		<path d="M193.5 156.7c0 .6-.5 1-1 1-.8 0-1.3-.4-1.3-1 0-.7.5-1.2 1.2-1.2.6 0 1 .5 1 1.2M184 163c0 .6-.3 1-1 1-.4 0-.8-.4-.8-1 0-.4.4-1 1-1 .4 0 1 .6 1 1m9.2 2c0 .6-.5 1-1.2 1-.6 0-1.2-.4-1.2-1 0-.7.6-1.2 1.2-1.2.7 0 1.2.5 1.2 1m-9.4 11.6c0 .5-.3 1-1 1-.4 0-.8-.5-.8-1 0-.6.4-1 1-1 .4 0 1 .4 1 1m24-26.2c0 .6-.5 1-1 1s-1-.4-1-1c0-.5.5-1 1-1s1 .5 1 1m2.3 5.8c0 .7-.5 1.3-1 1.3-.8 0-1.3-.6-1.3-1.2s.5-1 1.2-1c.6 0 1 1 1 1m16.6 7c0 1-.4 2-1 2-.7 0-1.3 0-1.3-1s.6-1 1.2-1 1 1 1 1m-17 12c0 1-1 1-1 1s-1 0-1-1c0 0 0-1 1-1s1 1 1 1m10-10c0 1-1 1-1 1s-1 0-1-1 0-1 1-1 1 1 1 1m-2 16c0 1-1 1-1 1s-1 0-1-1 0-1 1-1 1 1 1 1m4-26c0 1-1 2-2 2s-2 0-2-1 0-1 1-1 1 1 1 2" fill="#FFF"/>
		<path fill="#FFF" d="M222 150.5l-.5 4-4 .5 4 .5.5 4.2.4-4.2 4-.5-4-.4-.4-4m-9 30c0 1-.6 1.6-1.4 1.6-.8 0-1.5-.7-1.5-1.5s1-1.4 2-1.4 2 .6 2 1.4"/>
		<path fill="#FFF" d="M211.6 176.2l-.4 4-4 .5 4 .5.4 4.2.5-4.2 4-.5-4-.4v-4M103 58.8c0 .8-.6 1.5-1.4 1.5s-1.5-.7-1.5-1.5 1-1.5 2-1.5 2 .7 2 1.5"/>
		<path fill="#FFF" d="M101.4 54.3l-.5 4-4 .5 4 .4v4.2-4.2l4-.5-4-.4-1-4M158 23c0 1-.7 1.5-1.5 1.5S155 24 155 23c0-.7.5-1.4 1.3-1.4s1.5.7 1.5 1.5"/>
		<path fill="#FFF" d="M156.3 18.6l-.4 4-4 .5 4 1v4-4h4-4l-1-4M91 204c0 1-.6 1.5-1.5 1.5-.8 0-1.4-.6-1.4-1.5 0-.8 1-1.4 2-1.4s2 .3 2 1"/>
		<path fill="#FFF" d="M89.5 199.8l-.4 4-4 .5 4 .5 1 4.2 1-4.2 4-.5-4-.4v-5"/>
		<path d="M17 144c-6.3 3-12 6.2-17 9.2l3 1c4.3-2.5 9.4-5.3 14.8-7.7m33.4 57c-6 5-12 10.7-18 16.5l-.4 4c5.6-5.7 12.5-12 20.4-18.6" fill="#EC1C24"/>
	</g>
</svg>
