<svg xmlns="http://www.w3.org/2000/svg" width="512" height="512" viewBox="0 0 512 512"><path fill="none" d="M402.5 74.74c0-4.55-3.69-8.24-8.24-8.24H117.74c-4.55 0-8.24 3.69-8.24 8.24v362.52c0 4.55 3.69 8.24 8.24 8.24h276.52c4.55 0 8.24-3.69 8.24-8.24V74.74z"/><path fill="#fff" d="M418.5 75.22c0-13.653-11.067-24.72-24.72-24.72H118.22c-13.652 0-24.72 11.066-24.72 24.72v362.56c0 13.652 11.068 24.72 24.72 24.72h275.56c13.653 0 24.72-11.067 24.72-24.72V75.22zm-16 362.04c0 4.55-3.69 8.24-8.24 8.24H117.74c-4.55 0-8.24-3.69-8.24-8.24V74.74c0-4.55 3.69-8.24 8.24-8.24h276.52c4.55 0 8.24 3.69 8.24 8.24v362.52z"/><path fill="#fff" d="M134.5 248.5h247v16h-247zm0-41h247v16h-247zm0 82h247v16h-247zm0 41h247v17h-247zm0 41h247v17h-247z"/><circle fill="#fff" cx="153" cy="109.74" r="12.36"/><circle fill="#fff" cx="194.2" cy="109.74" r="12.36"/><path fill="#fff" d="M383.72 109.74c0 6.826-5.536 12.36-12.36 12.36-6.823 0-12.36-5.534-12.36-12.36s5.537-12.36 12.36-12.36c6.824 0 12.36 5.534 12.36 12.36zm-41.2 0c0 6.826-5.536 12.36-12.36 12.36-6.823 0-12.36-5.534-12.36-12.36s5.537-12.36 12.36-12.36c6.824 0 12.36 5.534 12.36 12.36z"/></svg>