<svg xmlns="http://www.w3.org/2000/svg" viewBox="0 0 402 402"><path d="M273.8 115.51a22.72 22.72 0 0 1-.78 4.6c-.43 1.59-1.9 7.75-3.27 13.69s-3.73 16-5.25 22.4-3.62 15.38-4.67 20c-2.35 10.36-6.32 27.35-8.85 38-3.44 14.42-5.26 22.29-6.84 29.6-3.83 17.73-2.62 16.73-15.54 12.83-4-1.2-13.26-3.93-20.66-6.07s-14.15-4.12-15-4.38-9.63-2.72-9.69-2.38 12.53 4.95 12.53 4.95-6.7 11.5-12.53 19.29-11 14.42-11.42 14.74c-1.57 1.08-2.67-1.45-9.66-22.17-3.86-11.44-7.62-21.45-8.36-22.25-1.2-1.29-11.18-5-25.21-9.37-10.79-3.36-26.41-8.87-27.09-9.55s2.35-2.86 14-9.9l18.68-11.29 33.2-20c10.78-6.5 25.18-15.26 32-19.45s23.2-14.16 36.4-22.15 26.88-16.36 30.4-18.59c7.41-4.7 7.6-4.77 7.6-2.5M161.73 232.08c-.51 1.36 10.49 34.5 11.45 34.51s2.78-7.31 4.59-17.6c2.35-13.37 2.86-15.06 5.43-18.29 1.28-1.6 4.1-5.21 6.26-8s5.66-7.3 7.78-10 5.9-7.54 8.4-10.77 5.63-7.23 7-8.91 5.82-7.44 10-12.81S233 167 236.44 162.73s8.26-10.43 10.73-13.73 4.86-8.64 5.23-8.79c-.33 0-20.76 20.39-45.4 45.31s-45 45.87-45.27 46.56z" fill="#fff"/></svg>
