<svg xmlns="http://www.w3.org/2000/svg" viewBox="0 0 257.66 101.59"><path fill="#3f170d" d="M86.15 76l-.53 8.16h-23v-1.37q.59 0 1.56-.17a5.34 5.34 0 0 0 1.27-.26 1.78 1.78 0 0 0 .87-.76 2.57 2.57 0 0 0 .24-1.19V60.48a2.86 2.86 0 0 0-.21-1.14 1.66 1.66 0 0 0-.9-.81 6.63 6.63 0 0 0-1.45-.45 10.76 10.76 0 0 0-1.42-.23v-1.39h21.48v6.68H82.6A9 9 0 0 0 80.91 60a4.18 4.18 0 0 0-2.47-1.83q-.61-.09-1.44-.17t-1.91 0h-4.37v11h3.13a6.25 6.25 0 0 0 2.2-.28 3 3 0 0 0 1.22-.95 5.06 5.06 0 0 0 .73-1.5 9.55 9.55 0 0 0 .4-1.79h1.46v10.86H78.4a8.75 8.75 0 0 0-.42-2 5.08 5.08 0 0 0-.71-1.51 2.81 2.81 0 0 0-1.38-1 7.23 7.23 0 0 0-2-.23h-3.17v8.31a8.7 8.7 0 0 0 .18 2 1.83 1.83 0 0 0 .68 1.09 2.93 2.93 0 0 0 1.39.48 22.1 22.1 0 0 0 2.5.11h1.7a17 17 0 0 0 1.78-.08 10.45 10.45 0 0 0 1.53-.28 2.34 2.34 0 0 0 1.12-.56 12.49 12.49 0 0 0 1.88-2.84A19.2 19.2 0 0 0 84.75 76h1.41zm30.08-4.54a6.48 6.48 0 0 1 1.3 2.14 8 8 0 0 1 .42 2.71 7.7 7.7 0 0 1-2.71 6.05 9.85 9.85 0 0 1-6.74 2.38 12.46 12.46 0 0 1-3.71-.58 14.3 14.3 0 0 1-3.2-1.4l-.84 1.43h-1.57l-.27-9.49h1.58a20.86 20.86 0 0 0 1.14 3.17 11.07 11.07 0 0 0 1.73 2.65 7.83 7.83 0 0 0 2.37 1.84 6.92 6.92 0 0 0 3.15.68 7.14 7.14 0 0 0 2.35-.35 4.13 4.13 0 0 0 1.63-1 4.08 4.08 0 0 0 .93-1.52 6.09 6.09 0 0 0 .3-2 5.57 5.57 0 0 0-.94-3.1 5.78 5.78 0 0 0-2.79-2.18q-1.27-.51-2.91-1.12t-2.83-1.16a9.19 9.19 0 0 1-3.62-2.76 7.18 7.18 0 0 1-1.3-4.46 6.82 6.82 0 0 1 .64-2.95 7.68 7.68 0 0 1 1.83-2.44 8.31 8.31 0 0 1 2.68-1.59 9.14 9.14 0 0 1 3.22-.58 9.44 9.44 0 0 1 3.43.59 16.35 16.35 0 0 1 2.76 1.37l.8-1.33h1.56l.16 9.2h-1.58q-.43-1.58-1-3a10.71 10.71 0 0 0-1.4-2.62 6.41 6.41 0 0 0-2.05-1.81 6 6 0 0 0-3-.67 4.53 4.53 0 0 0-3.16 1.19 3.79 3.79 0 0 0-1.31 2.91 5 5 0 0 0 .84 3 6.14 6.14 0 0 0 2.44 1.94 30.31 30.31 0 0 0 2.8 1.18q1.38.5 2.67 1.06a19.91 19.91 0 0 1 2.32 1.16 8.48 8.48 0 0 1 1.88 1.46zm32.44 0A6.48 6.48 0 0 1 150 73.6a7.94 7.94 0 0 1 .42 2.71 7.7 7.7 0 0 1-2.71 6.05 9.84 9.84 0 0 1-6.74 2.38 12.47 12.47 0 0 1-3.71-.58 14.3 14.3 0 0 1-3.2-1.4l-.84 1.43h-1.56l-.27-9.49h1.58a20.92 20.92 0 0 0 1.14 3.17 11.1 11.1 0 0 0 1.73 2.65 7.83 7.83 0 0 0 2.37 1.84 6.92 6.92 0 0 0 3.15.68 7.14 7.14 0 0 0 2.35-.35 4.12 4.12 0 0 0 1.63-1 4.07 4.07 0 0 0 .93-1.52 6.08 6.08 0 0 0 .3-2 5.57 5.57 0 0 0-.94-3.1 5.77 5.77 0 0 0-2.79-2.18q-1.27-.51-2.91-1.12t-2.83-1.16a9.19 9.19 0 0 1-3.64-2.76 7.18 7.18 0 0 1-1.3-4.46 6.82 6.82 0 0 1 .64-2.95 7.69 7.69 0 0 1 1.81-2.44 8.32 8.32 0 0 1 2.68-1.59 9.14 9.14 0 0 1 3.22-.58 9.44 9.44 0 0 1 3.43.59 16.33 16.33 0 0 1 2.76 1.37l.8-1.33h1.56l.16 9.2h-1.58q-.43-1.58-1-3a10.7 10.7 0 0 0-1.4-2.62 6.4 6.4 0 0 0-2.05-1.81 6 6 0 0 0-3-.67 4.53 4.53 0 0 0-3.16 1.19 3.79 3.79 0 0 0-1.31 2.91 5 5 0 0 0 .84 3A6.14 6.14 0 0 0 139 66.6a30.31 30.31 0 0 0 2.8 1.18q1.38.5 2.67 1.06a19.91 19.91 0 0 1 2.32 1.16 8.48 8.48 0 0 1 1.88 1.46zM176 84.17h-12.5v-1.38l1.52-.12a5.62 5.62 0 0 0 1.41-.23 1.93 1.93 0 0 0 .94-.69 2.18 2.18 0 0 0 .29-1.22V60.44a2.68 2.68 0 0 0-.21-1.14 1.75 1.75 0 0 0-1-.77 10.25 10.25 0 0 0-1.47-.44 9.78 9.78 0 0 0-1.46-.24v-1.39H176v1.39a12.45 12.45 0 0 0-1.45.15 10 10 0 0 0-1.46.32 1.54 1.54 0 0 0-1 .76 2.67 2.67 0 0 0-.25 1.17V80.3a2.27 2.27 0 0 0 .28 1.14 1.93 1.93 0 0 0 1 .79 9.26 9.26 0 0 0 1.34.34 9.67 9.67 0 0 0 1.57.21v1.39zm35.83-24.43a13.61 13.61 0 0 1 2.87 4.62 16.62 16.62 0 0 1 1 6 16.33 16.33 0 0 1-1.05 6 13.34 13.34 0 0 1-2.93 4.59 12.7 12.7 0 0 1-4.22 2.89 13.55 13.55 0 0 1-10.46-.07 12.39 12.39 0 0 1-4.21-3 13.68 13.68 0 0 1-2.76-4.6 16.47 16.47 0 0 1-1-5.79 16.17 16.17 0 0 1 1.05-6 14 14 0 0 1 2.91-4.58 12.55 12.55 0 0 1 4.27-2.93 13.4 13.4 0 0 1 10.28 0 12.42 12.42 0 0 1 4.25 2.87zm-2.91 19.65a13 13 0 0 0 1.59-4 23.25 23.25 0 0 0 .5-5 23 23 0 0 0-.56-5.23 13 13 0 0 0-1.62-4.16 7.8 7.8 0 0 0-2.7-2.59 7.34 7.34 0 0 0-3.71-.93 7.12 7.12 0 0 0-4 1.07 8.34 8.34 0 0 0-2.68 2.87 13.77 13.77 0 0 0-1.46 4 23.76 23.76 0 0 0-.48 4.84 23.26 23.26 0 0 0 .51 5.08 12.88 12.88 0 0 0 1.6 4 7.89 7.89 0 0 0 2.66 2.69 7.27 7.27 0 0 0 3.83 1 7.36 7.36 0 0 0 3.77-1 7.64 7.64 0 0 0 2.75-2.64zM257.66 57.84a8.72 8.72 0 0 0-1.68.31 6 6 0 0 0-1.62.61 2.76 2.76 0 0 0-.95 1.88 20.84 20.84 0 0 0-.24 3.52v20.29h-1.7l-16.8-22.68v14.3a17.12 17.12 0 0 0 .3 3.69 3.42 3.42 0 0 0 .93 1.84 4.57 4.57 0 0 0 1.86.8 11.39 11.39 0 0 0 1.86.39v1.39h-11.38v-1.39a11 11 0 0 0 1.76-.39 4.7 4.7 0 0 0 1.56-.62 2.85 2.85 0 0 0 .94-1.67 19.86 19.86 0 0 0 .25-3.84V62.63a5.45 5.45 0 0 0-.31-1.8 3.35 3.35 0 0 0-.84-1.39 5.91 5.91 0 0 0-1.9-1.1 6.8 6.8 0 0 0-1.94-.5v-1.38h7.92l15.58 21.13V64.41a16.9 16.9 0 0 0-.31-3.72 3 3 0 0 0-.9-1.73 6.54 6.54 0 0 0-1.79-.72 9.78 9.78 0 0 0-1.88-.39v-1.39h11.27v1.39zM43.31 68.38a16.18 16.18 0 0 1 3.25 5.35 19.89 19.89 0 0 1 1 6.76 19.26 19.26 0 0 1-6.79 15.14q-6.79 6-16.85 6a31.14 31.14 0 0 1-9.28-1.44 35.78 35.78 0 0 1-8-3.49l-2.1 3.56H.68L0 76.49h4a52.21 52.21 0 0 0 2.86 7.93A27.66 27.66 0 0 0 11.13 91a19.56 19.56 0 0 0 5.93 4.59A17.31 17.31 0 0 0 25 97.34a17.81 17.81 0 0 0 5.88-.88A10.3 10.3 0 0 0 34.91 94a10.19 10.19 0 0 0 2.32-3.79 15.25 15.25 0 0 0 .76-5 13.92 13.92 0 0 0-2.34-7.75 14.45 14.45 0 0 0-7-5.45q-3.17-1.26-7.28-2.8t-7.08-2.89a23 23 0 0 1-9.09-6.95Q2 55.1 2 48.21a17.06 17.06 0 0 1 1.61-7.37 19.2 19.2 0 0 1 4.59-6.1 20.81 20.81 0 0 1 6.69-4 22.85 22.85 0 0 1 8.06-1.44 23.6 23.6 0 0 1 8.57 1.46 40.83 40.83 0 0 1 6.91 3.42l2-3.32h3.91l.39 23h-4q-1.08-4-2.42-7.57a26.8 26.8 0 0 0-3.49-6.54 16 16 0 0 0-5.13-4.52 15.07 15.07 0 0 0-7.42-1.68 11.33 11.33 0 0 0-7.91 3 9.47 9.47 0 0 0-3.27 7.28 12.53 12.53 0 0 0 2.1 7.45 15.36 15.36 0 0 0 6.1 4.86 76 76 0 0 0 7 3q3.44 1.25 6.67 2.66a49.7 49.7 0 0 1 5.64 2.88 21.22 21.22 0 0 1 4.71 3.7zM100.63 6h-1.07A7.4 7.4 0 0 0 99 4.68a12.09 12.09 0 0 0-.82-1.46A7.36 7.36 0 0 0 97.2 2a2 2 0 0 0-1.07-.62q-.49-.06-1.22-.09h-2.28V19a2.05 2.05 0 0 0 .22.95 1.45 1.45 0 0 0 .77.66 9.19 9.19 0 0 0 1.18.3 8.59 8.59 0 0 0 1.4.2v1.11H85.73v-1.16l1.34-.12a5.15 5.15 0 0 0 1.24-.23 1.51 1.51 0 0 0 .76-.59 1.9 1.9 0 0 0 .24-1V1.22H87.2q-.72 0-1.37.1a1.91 1.91 0 0 0-1.08.68 8.21 8.21 0 0 0-1 1.26 10.62 10.62 0 0 0-.83 1.49A9.05 9.05 0 0 0 82.4 6h-1.09V0h19.33v6zm42.71 16.17h-9.2v-1.11l1.09-.09a3.22 3.22 0 0 0 1-.19 1.32 1.32 0 0 0 .69-.57 2 2 0 0 0 .22-1v-7.88h-10.46V19a2.12 2.12 0 0 0 .18.92 1.54 1.54 0 0 0 .71.66 4 4 0 0 0 .95.28 6.92 6.92 0 0 0 1.07.16v1.11h-9.2v-1.07l1.09-.09a3.23 3.23 0 0 0 1-.19 1.32 1.32 0 0 0 .69-.57 2 2 0 0 0 .22-1v-16a2.05 2.05 0 0 0-.2-.91 1.42 1.42 0 0 0-.7-.65 5.73 5.73 0 0 0-1-.36 6 6 0 0 0-1-.19V0h9.2v1.11a7 7 0 0 0-1.07.14 7.69 7.69 0 0 0-.95.23 1.12 1.12 0 0 0-.71.63 2.48 2.48 0 0 0-.18 1v6.83h10.32V3.22a2 2 0 0 0-.2-.91 1.42 1.42 0 0 0-.7-.65 5.72 5.72 0 0 0-1-.36 6 6 0 0 0-1-.19V0h9.2v1.11a7 7 0 0 0-1.07.14 7.69 7.69 0 0 0-.95.23 1.12 1.12 0 0 0-.71.63 2.48 2.48 0 0 0-.18 1V19a2.12 2.12 0 0 0 .18.92 1.55 1.55 0 0 0 .71.66 4 4 0 0 0 .95.28 6.92 6.92 0 0 0 1.07.16v1.11zM183.12 15.64l-.42 6.53h-18.41v-1.11q.47 0 1.25-.13a4.21 4.21 0 0 0 1-.21 1.43 1.43 0 0 0 .7-.61 2.06 2.06 0 0 0 .2-1V3.22a2.29 2.29 0 0 0-.17-.91 1.34 1.34 0 0 0-.72-.65 5.36 5.36 0 0 0-1.13-.36 8.76 8.76 0 0 0-1.13-.19V0h17.16v5.34h-1.17a7.23 7.23 0 0 0-1.35-2.52 3.34 3.34 0 0 0-2-1.46q-.48-.06-1.16-.09t-1.53 0h-3.48V10h2.5a5 5 0 0 0 1.74-.18 2.41 2.41 0 0 0 1-.76 4.06 4.06 0 0 0 .59-1.21 7.67 7.67 0 0 0 .32-1.43h1.17v8.69h-1.17a7 7 0 0 0-.34-1.59 4.08 4.08 0 0 0-.57-1.21 2.25 2.25 0 0 0-1.1-.8 5.79 5.79 0 0 0-1.63-.19h-2.5V18a7 7 0 0 0 .14 1.58 1.46 1.46 0 0 0 .55.87 2.34 2.34 0 0 0 1.11.38 17.53 17.53 0 0 0 2 .09h1.36a13.48 13.48 0 0 0 1.42-.06 8.31 8.31 0 0 0 1.23-.23 1.88 1.88 0 0 0 .9-.45 10 10 0 0 0 1.52-2.3 15.42 15.42 0 0 0 1-2.24h1.13z"/></svg>