<svg xmlns="http://www.w3.org/2000/svg" viewBox="0 0 90 90"><circle cx="45" cy="45" r="45" fill="#f1c40e"/><path d="M52 26h-2v-8a2 2 0 0 0-2-2h-4a2 2 0 0 0-2 2v8h-2a4 4 0 0 0-4 4v12a4 4 0 0 0 4 4h12a4 4 0 0 0 4-4V30a4 4 0 0 0-4-4z" fill="#59b0d3"/><path fill="#abcfd3" d="M38 46h16v28H38z"/><path d="M52 25h-1v-7a3 3 0 0 0-3-3h-4a3 3 0 0 0-3 3v7h-1a5 5 0 0 0-5 5v12a5 5 0 0 0 2 4v28a1 1 0 0 0 1 1h16a1 1 0 0 0 1-1V46a5 5 0 0 0 2-4V30a5 5 0 0 0-5-5zm-9-7a1 1 0 0 1 1-1h4a1 1 0 0 1 1 1v7h-6v-7zm3 11a1 1 0 0 0-1 1v3h-1a1 1 0 0 1-1-1v-5h6v5a1 1 0 0 1-1 1h-1v-3a1 1 0 0 0-1-1zm-1 28h-6v-2h6v2zm0 2v2h-6v-2h6zm0 4v2h-6v-2h6zm2 0h6v2h-6v-2zm0-2v-2h6v2h-6zm0-4v-2h6v2h-6zm-2-4h-6v-2h6v2zm-6 14h6v2h-6v-2zm8 0h6v2h-6v-2zm6-14h-6v-2h6v2zm-8-4h-6v-2h6v2zm-6 22h6v2h-6v-2zm8 2v-2h6v2h-6zm6-26v2h-6v-2h6zm2-5a3 3 0 0 1-3 3H40a3 3 0 0 1-3-3V30a3 3 0 0 1 3-3h1v5a3 3 0 0 0 3 3h1v3a1 1 0 0 0 2 0v-3h1a3 3 0 0 0 3-3v-5h1a3 3 0 0 1 3 3v12z" fill="#232e38"/><path d="M47 19h-2a1 1 0 0 0 0 2h2a1 1 0 0 0 0-2z" fill="#232e38"/></svg>