<svg xmlns="http://www.w3.org/2000/svg" baseProfile="full" width="133.417" height="133.417" viewBox="0 0 133.42 133.42"><path fill="#987FFF" d="M43.668.78C51.725.39 59.783 0 67.463 0c7.68 0 14.983.39 22.286.78 23.04 0 42.887 19.848 42.887 42.888.39 7.53.78 15.057.78 22.738 0 7.68-.39 15.51-.78 23.343 0 23.04-19.848 42.886-42.888 42.886-7.206.39-14.41.78-22.092.78-7.68 0-15.835-.39-23.99-.78C20.628 132.636.78 112.79.78 89.75.39 81.526 0 73.304 0 65.624s.39-14.819.78-21.957C.78 20.628 20.628.78 43.668.78z"/><path fill="#FFF" d="M26.725 103.42l-1.992-66.877h4.553v-3.7c0-1.886 1.53-3.414 3.415-3.414h6.546c1.886 0 3.415 1.527 3.415 3.414v3.7h66.024l-1.708 67.444-80.25-.57zM93.46 41.665c-1.966 0-3.56 1.592-3.56 3.557 0 1.964 1.594 3.557 3.56 3.557h5.406c1.964 0 3.557-1.593 3.557-3.557 0-1.965-1.593-3.557-3.557-3.557H93.46zm-26.467 51.08c13.045 0 23.62-8.854 23.62-19.777 0-10.924-10.575-19.78-23.62-19.78-13.045 0-23.62 8.856-23.62 19.78 0 10.922 10.575 19.777 23.62 19.777zm0-5.832c-9.823 0-17.786-6.244-17.786-13.945 0-7.702 7.963-13.945 17.786-13.945S84.78 65.268 84.78 72.97c0 7.7-7.964 13.944-17.787 13.944zm0-21.913c-6.68 0-12.095 3.568-12.095 7.97 0 4.4 5.415 7.967 12.095 7.967 6.68 0 12.095-3.567 12.095-7.968 0-4.402-5.415-7.97-12.095-7.97z"/></svg>
