<svg xmlns="http://www.w3.org/2000/svg" viewBox="0 0 240 240"><defs><linearGradient id="a" x1="-356.86" y1="400.18" x2="-357.11" y2="399.6" gradientTransform="matrix(240 0 0 -240 85801 96081)" gradientUnits="userSpaceOnUse"><stop offset="0" stop-color="#37aee2"/><stop offset="1" stop-color="#1e96c8"/></linearGradient><linearGradient id="b" x1="-355.64" y1="399.08" x2="-355.45" y2="398.72" gradientTransform="matrix(130.49 0 0 -109.45 46536.81 43802.47)" gradientUnits="userSpaceOnUse"><stop offset="0" stop-color="#eff7fc"/><stop offset="1" stop-color="#fff"/></linearGradient></defs><title>telegram</title><circle cx="120" cy="120" r="120" fill="url(#a)"/><path d="M98 175c-3.89 0-3.23-1.47-4.57-5.17L82 132.21 170 80" fill="#c8daea"/><path d="M98 175c3 0 4.33-1.37 6-3l16-15.56-20-12" fill="#a9c9dd"/><path d="M100 144.41l48.36 35.73c5.52 3 9.5 1.47 10.88-5.12L179 82.25c2-8.08-3.08-11.75-8.36-9.35L55 117.48c-7.89 3.16-7.84 7.57-1.44 9.53l29.66 9.26 68.67-43.32c3.24-2 6.22-.91 3.78 1.26" fill="url(#b)"/></svg>